{
.appVersion = "3175";
.formatVersion = 3;
DisplayStrings = (
"/I.ss01",
"30°",
"H¹H²H³H⁴H",
"/a.alt1/a.alt3/a.alt4/a.alt5/a.alt6 b/b.alt1/b.alt2/b.alt3/b.alt4/b.alt5/b.alt6 c/c.alt1/c.alt2/c.alt3/c.alt5/c.alt6 d/d.alt1/d.alt2/d.alt3/d.alt4/d.alt6 e/e.alt1/e.alt3/e.alt4/e.alt6 f/f.alt1/f.alt2/f.alt3/f.alt4/f.alt5/f.alt6 g/g.alt3/g.alt4/g.alt5/g.alt6 h/h.alt2/h.alt3/h.alt4/h.alt5/h.alt6 i/i.alt1/i.alt2/i.alt3/i.alt4/i.alt5/i.alt6 j/j.alt1/j.alt2/j.alt3/j.alt4/j.alt5/j.alt6 k",
"̸ø",
"̧",
"̀́̂̃̄̆ i ̇ ̈ ̊ ̋ ̌ ̣̉",
"ư/uhorn.alt1/uhorn.alt2/uhorn.alt3/uhorn.alt4/uhorn.alt5/uhorn.alt6",
"/caron.alt LĽdď/dcaron.alt1/dcaron.alt2/dcaron.alt3/dcaron.alt4/dcaron.alt5/dcaron.alt6 ľ/lcaron.alt1/lcaron.alt2/lcaron.alt3/lcaron.alt4/lcaron.alt5/lcaron.alt6 ť/tcaron.alt1/tcaron.alt2/tcaron.alt3/tcaron.alt4/tcaron.alt5/tcaron.alt6/lcaron.ss01/lcaron.ss01.alt1/lcaron.ss01.alt2/lcaron.ss01.alt3/lcaron.ss01.alt4/lcaron.ss01.alt5/lcaron.ss01.alt6",
"ƠH/Ohorn.alt1/Ohorn.alt2/Ohorn.alt3/Ohorn.alt4/Ohorn.alt5/Ohorn.alt6",
"ÁĂǍÂÄ",
"S/S.alt1/S.alt2/S.alt3/S.alt4/S.alt5/S.alt6",
"ni.n,"
);
axes = (
{
name = Weight;
tag = wght;
}
);
customParameters = (
{
name = glyphOrder;
value = (
.notdef,
.null,
CR,
space,
space.alt1,
space.alt2,
space.alt3,
space.alt4,
space.alt5,
space.alt6,
nbspace,
thinspace,
A,
A.alt1,
A.alt2,
A.alt3,
A.alt4,
A.alt5,
A.alt6,
B,
B.alt1,
B.alt2,
B.alt3,
B.alt4,
B.alt5,
B.alt6,
C,
C.alt1,
C.alt2,
C.alt3,
C.alt4,
C.alt5,
C.alt6,
D,
D.alt1,
D.alt2,
D.alt3,
D.alt4,
D.alt5,
D.alt6,
E,
E.alt1,
E.alt2,
E.alt3,
E.alt4,
E.alt5,
E.alt6,
F,
F.alt1,
F.alt2,
F.alt3,
F.alt4,
F.alt5,
F.alt6,
G,
G.alt1,
G.alt2,
G.alt3,
G.alt4,
G.alt5,
G.alt6,
H,
H.alt1,
H.alt2,
H.alt3,
H.alt4,
H.alt5,
H.alt6,
I,
I.alt1,
I.alt2,
I.alt3,
I.alt4,
I.alt5,
I.alt6,
J,
J.alt1,
J.alt2,
J.alt3,
J.alt4,
J.alt5,
J.alt6,
K,
K.alt1,
K.alt2,
K.alt3,
K.alt4,
K.alt5,
K.alt6,
L,
L.alt1,
L.alt2,
L.alt3,
L.alt4,
L.alt5,
L.alt6,
M,
M.alt1,
M.alt2,
M.alt3,
M.alt4,
M.alt5,
M.alt6,
N,
N.alt1,
N.alt2,
N.alt3,
N.alt4,

glyphs = (
{
glyphname = .notdef;
lastChange = "2023-01-26 16:29:42 +0000";
layers = (
{
background = {
shapes = (
{
closed = 1;
nodes = (
(326,688,o),
(429,699,o),
(508,697,c),
(499,486,o),
(495,292,o),
(494,80,c),
(360,79,o),
(245,78,o),
(175,74,c),
(176,271,o),
(183,545,o),
(190,688,c)
);
},
{
closed = 1;
nodes = (
(95,7,o),
(113,-7,o),
(134,-7,cs),
(136,-7,ls),
(144,-7,o),
(151,-7,o),
(157,-6,cs),
(306,4,o),
(423,5,o),
(535,4,cs),
(555,4,o),
(575,17,o),
(575,43,cs),
(575,230,o),
(581,544,o),
(593,736,cs),
(594,758,o),
(575,774,o),
(552,774,cs),
(393,773,o),
(258,772,o),
(152,766,cs),
(131,766,o),
(111,753,o),
(111,727,cs),
(99,489,o),
(95,271,o),
(95,32,cs)
);
},
{
closed = 1;
nodes = (
(299,512,o),
(295,437,o),
(291,200,cs),
(291,175,o),
(309,162,o),
(332,162,cs),
(352,162,o),
(372,174,o),
(372,201,cs),
(376,437,o),
(381,511,o),
(387,571,cs),
(388,597,o),
(369,611,o),
(347,611,cs),
(328,611,o),
(308,597,o),
(306,571,cs)
);
}
);
};
layerId = m01;
shapes = (
{
closed = 1;
nodes = (
(326,688,o),
(429,699,o),
(508,697,c),
(499,505,o),
(495,313,o),
(494,80,c),
(328,79,o),
(237,77,o),
(175,74,c),
(176,256,o),
(183,533,o),
(190,688,c)
);
},
{
closed = 1;
nodes = (
(95,8,o),
(112,-9,o),
(134,-7,cs),
(254,1,o),
(388,5,o),
(535,4,cs),
(558,4,o),
(575,20,o),
(575,43,cs),
(575,269,o),
(583,572,o),
(593,736,cs),
(594,757,o),
(576,774,o),
(552,774,cs),
(334,773,o),
(236,771,o),
(152,766,cs),
(128,766,o),
(111,750,o),
(111,727,cs),
(100,507,o),
(95,292,o),
(95,32,cs)
);
},
{
closed = 1;
nodes = (
(299,518,o),
(290,285,o),
(291,200,cs),
(291,177,o),
(307,162,o),
(332,162,cs),
(356,162,o),
(372,178,o),
(372,201,cs),
(371,268,o),
(381,503,o),
(387,571,cs),
(388,595,o),
(372,611,o),
(347,611,cs),
(325,611,o),
(308,594,o),
(306,571,cs)
);
}
);
width = 678;
},
{
background = {
shapes = (
{
closed = 1;
nodes = (
(326,688,o),
(429,699,o),
(508,697,c),
(499,486,o),
(495,292,o),
(494,80,c),
(360,79,o),
(245,78,o),
(175,74,c),
(176,271,o),
(183,545,o),
(190,688,c)
);
},
{
closed = 1;
nodes = (
(95,7,o),
(113,-7,o),
(134,-7,cs),
(136,-7,ls),
(144,-7,o),
(151,-7,o),
(157,-6,cs),
(306,4,o),
(423,5,o),
(535,4,cs),
(555,4,o),
(575,17,o),
(575,43,cs),
(575,230,o),
(581,544,o),
(593,736,cs),
(594,758,o),
(575,774,o),
(552,774,cs),
(393,773,o),
(258,772,o),
(152,766,cs),
(131,766,o),
(111,753,o),
(111,727,cs),
(99,489,o),
(95,271,o),
(95,32,cs)
);
},
{
closed = 1;
nodes = (
(299,512,o),
(295,437,o),
(291,200,cs),
(291,175,o),
(309,162,o),
(332,162,cs),
(352,162,o),
(372,174,o),
(372,201,cs),
(376,437,o),
(381,511,o),
(387,571,cs),
(388,597,o),
(369,611,o),
(347,611,cs),
(328,611,o),
(308,597,o),
(306,571,cs)
);
}
);
};
layerId = m002;
shapes = (
{
closed = 1;
nodes = (
(326,688,o),
(429,699,o),
(508,697,c),
(499,505,o),
(495,313,o),
(494,80,c),
(328,79,o),
(237,77,o),
(175,74,c),
(176,256,o),
(183,533,o),
(190,688,c)
);
},
{
closed = 1;
nodes = (
(95,8,o),
(112,-9,o),
(134,-7,cs),
(254,1,o),
(388,5,o),
(535,4,cs),
(558,4,o),
(575,20,o),
(575,43,cs),
(575,269,o),
(583,572,o),
(593,736,cs),
(594,757,o),
(576,774,o),
(552,774,cs),
(334,773,o),
(236,771,o),
(152,766,cs),
(128,766,o),
(111,750,o),
(111,727,cs),
(100,507,o),
(95,292,o),
(95,32,cs)
);
},
{
closed = 1;
nodes = (
(299,518,o),
(290,285,o),
(291,200,cs),
(291,177,o),
(307,162,o),
(332,162,cs),
(356,162,o),
(372,178,o),
(372,201,cs),
(371,268,o),
(381,503,o),
(387,571,cs),
(388,595,o),
(372,611,o),
(347,611,cs),
(325,611,o),
(308,594,o),
(306,571,cs)
);
}
);
width = 678;
},
{
background = {
shapes = (
{
closed = 1;
nodes = (
(326,688,o),
(429,699,o),
(508,697,c),
(499,486,o),
(495,292,o),
(494,80,c),
(360,79,o),
(245,78,o),
(175,74,c),
(176,271,o),
(183,545,o),
(190,688,c)
);
},
{
closed = 1;
nodes = (
(95,7,o),
(113,-7,o),
(134,-7,cs),
(136,-7,ls),
(144,-7,o),
(151,-7,o),
(157,-6,cs),
(306,4,o),
(423,5,o),
(535,4,cs),
(555,4,o),
(575,17,o),
(575,43,cs),
(575,230,o),
(581,544,o),
(593,736,cs),
(594,758,o),
(575,774,o),
(552,774,cs),
(393,773,o),
(258,772,o),
(152,766,cs),
(131,766,o),
(111,753,o),
(111,727,cs),
(99,489,o),
(95,271,o),
(95,32,cs)
);
},
{
closed = 1;
nodes = (
(299,512,o),
(295,437,o),
(291,200,cs),
(291,175,o),
(309,162,o),
(332,162,cs),
(352,162,o),
(372,174,o),
(372,201,cs),
(376,437,o),
(381,511,o),
(387,571,cs),
(388,597,o),
(369,611,o),
(347,611,cs),
(328,611,o),
(308,597,o),
(306,571,cs)
);
}
);
};
layerId = m003;
shapes = (
{
closed = 1;
nodes = (
(326,688,o),
(429,699,o),
(508,697,c),
(499,505,o),
(495,313,o),
(494,80,c),
(328,79,o),
(237,77,o),
(175,74,c),
(176,256,o),
(183,533,o),
(190,688,c)
);
},
{
closed = 1;
nodes = (
(95,8,o),
(112,-9,o),
(134,-7,cs),
(254,1,o),
(388,5,o),
(535,4,cs),
(558,4,o),
(575,20,o),
(575,43,cs),
(575,269,o),
(583,572,o),
(593,736,cs),
(594,757,o),
(576,774,o),
(552,774,cs),
(334,773,o),
(236,771,o),
(152,766,cs),
(128,766,o),
(111,750,o),
(111,727,cs),
(100,507,o),
(95,292,o),
(95,32,cs)
);
},
{
closed = 1;
nodes = (
(299,518,o),
(290,285,o),
(291,200,cs),
(291,177,o),
(307,162,o),
(332,162,cs),
(356,162,o),
(372,178,o),
(372,201,cs),
(371,268,o),
(381,503,o),
(387,571,cs),
(388,595,o),
(372,611,o),
(347,611,cs),
(325,611,o),
(308,594,o),
(306,571,cs)
);
}
);
width = 678;
}
);
},
{
glyphname = A;
lastChange = "2023-02-07 13:18:29 +0000";
layers = (
{
anchors = (
{
name = bottom;
pos = (358,0);
},
{
name = ogonek;
pos = (652,10);
},
{
name = top;
pos = (384,764);
}
);
layerId = m01;
shapes = (
{
closed = 1;
nodes = (
(162,253,o),
(286,513,o),
(385,737,c),
(442,591,o),
(563,276,o),
(662,5,cs),
(665,-4,o),
(666,-15,o),
(684,-17,cs),
(693,-18,o),
(703,-14,o),
(703,-3,cs),
(703,8,o),
(685,41,o),
(680,55,cs),
(604,260,o),
(427,712,o),
(405,768,cs),
(400,782,o),
(396,789,o),
(388,788,cs),
(373,787,o),
(371,776,o),
(366,765,cs),
(242,476,o),
(148,287,o),
(48,55,cs),
(37,29,o),
(33,21,o),
(30,13,cs),
(24,-3,o),
(33,-10,o),
(39,-12,cs),
(51,-15,o),
(58,-8,o),
(61,0,cs)
);
},
{
closed = 1;
nodes = (
(162,305,o),
(162,297,cs),
(162,284,o),
(155,286,o),
(175,288,cs),
(286,302,o),
(441,304,o),
(556,304,cs),
(577,304,o),
(606,302,o),
(606,319,cs),
(606,331,o),
(598,341,o),
(584,339,cs),
(555,335,o),
(533,332,o),
(476,332,cs),
(354,332,o),
(231,325,o),
(188,316,cs),
(166,311,o)
);
}
);
width = 734;
},
{
anchors = (
{
name = bottom;
pos = (367,0);
},
{
name = ogonek;
pos = (698,10);
},
{
name = top;
pos = (393,764);
}
);
layerId = m002;
shapes = (
{
closed = 1;
nodes = (
(185,230,o),
(293,438,o),
(392,657,c),
(449,511,o),
(556,226,o),
(647,2,cs),
(654,-15,o),
(673,-19,o),
(684,-19,cs),
(703,-19,o),
(722,-4,o),
(722,26,cs),
(722,37,o),
(713,55,o),
(707,69,cs),
(637,243,o),
(454,708,o),
(434,760,cs),
(427,778,o),
(411,789,o),
(394,789,cs),
(381,789,o),
(366,782,o),
(360,769,cs),
(244,524,o),
(123,290,o),
(32,58,cs),
(22,32,o),
(22,28,o),
(22,25,cs),
(22,1,o),
(44,-15,o),
(65,-15,cs),
(81,-15,o),
(95,-6,o),
(102,14,cs)
);
},
{
closed = 1;
nodes = (
(140,312,o),
(140,289,cs),
(140,266,o),
(171,243,o),
(191,245,cs),
(302,259,o),
(428,259,o),
(543,259,cs),
(581,259,o),
(639,262,o),
(639,302,cs),
(639,325,o),
(620,348,o),
(594,344,cs),
(565,339,o),
(517,336,o),
(462,338,cs),
(340,343,o),
(235,335,o),
(192,326,cs),
(170,321,o)
);
}
);
width = 752;
},
{
anchors = (
{
name = bottom;
pos = (377,0);
},
{
name = ogonek;
pos = (721,10);
},
{
name = top;
pos = (403,764);
}
);
layerId = m003;
shapes = (
{
closed = 1;
nodes = (
(245,190,o),
(299,382,o),
(398,591,c),
(455,445,o),
(501,176,o),
(581,24,cs),
(601,-15,o),
(633,-19,o),
(676,-19,cs),
(737,-19,o),
(775,13,o),
(775,43,cs),
(775,54,o),
(768,75,o),
(760,89,cs),
(690,213,o),
(542,691,o),
(531,719,cs),
(515,761,o),
(467,789,o),
(400,789,cs),
(347,789,o),
(308,764,o),
(279,707,cs),
(196,546,o),
(110,356,o),
(19,124,cs),
(9,98,o),
(-3,67,o),
(-3,38,cs),
(-3,14,o),
(16,-15,o),
(77,-15,cs),
(153,-15,o),
(183,4,o),
(198,49,cs)
);
},
{
closed = 1;
nodes = (
(171,315,o),
(171,262,cs),
(171,219,o),
(196,177,o),
(216,179,cs),
(327,193,o),
(394,189,o),
(509,189,cs),
(581,189,o),
(726,215,o),
(726,301,cs),
(726,346,o),
(698,368,o),
(658,364,cs),
(629,361,o),
(483,346,o),
(468,348,cs),
(347,364,o),
(291,350,o),
(248,341,cs),
(226,336,o)
);
}
);
width = 788;
}
);
unicode = 65;
},
{
glyphname = A.alt1;
lastChange = "2023-02-08 10:43:19 +0000";
layers = (
{
anchors = (
{
name = bottom;
pos = (353,0);
},
{
name = ogonek;
pos = (636,10);
},
{
name = top;
pos = (379,764);
}
);
layerId = m01;
shapes = (
{
closed = 1;
nodes = (
(278,437,o),
(378,640,c),
(411,511,o),
(565,123,o),
(605,11,cs),
(614,-10,o),
(627,-19,o),
(644,-19,cs),
(665,-19,o),
(685,-1,o),
(685,20,cs),
(685,24,o),
(684,28,o),
(683,32,cs),
(651,119,o),
(524,442,o),
(475,599,cs),
(458,653,o),
(443,707,o),
(429,761,cs),
(425,780,o),
(407,790,o),
(390,790,cs),
(371,790,o),
(362,783,o),
(351,764,cs),
(267,616,o),
(188,399,o),
(115,224,cs),
(77,136,o),
(44,68,o),
(34,49,cs),
(18,20,o),
(39,-12,o),
(71,-12,cs),
(84,-12,o),
(97,-6,o),
(104,8,cs),
(209,218,o)
);
},
{
closed = 1;
nodes = (
(150,302,o),
(150,288,cs),
(150,265,o),
(159,243,o),
(207,248,cs),
(313,258,o),
(429,257,o),
(560,254,cs),
(588,253,o),
(613,260,o),
(613,292,cs),
(613,313,o),
(595,333,o),
(573,332,cs),
(442,326,o),
(310,339,o),
(180,320,cs),
(159,317,o)
);
}
);
width = 716;
},
{
anchors = (
{
name = bottom;
pos = (336,-3);
},
{
name = ogonek;
pos = (629,10);
},
{
name = top;
pos = (382,740);
}
);
layerId = m002;
shapes = (
{
closed = 1;
nodes = (
(271,437,o),
(371,640,c),
(404,511,o),
(558,123,o),
(598,11,cs),
(607,-10,o),
(620,-19,o),
(637,-19,cs),
(658,-19,o),
(678,-1,o),
(678,20,cs),
(678,24,o),
(677,28,o),
(676,32,cs),
(644,119,o),
(517,442,o),
(468,599,cs),
(451,653,o),
(436,707,o),
(422,761,cs),
(418,780,o),
(400,790,o),
(383,790,cs),
(364,790,o),
(355,783,o),
(344,764,cs),
(260,616,o),
(181,399,o),
(108,224,cs),
(70,136,o),
(37,68,o),
(27,49,cs),
(11,20,o),
(32,-12,o),
(64,-12,cs),
(77,-12,o),
(90,-6,o),
(97,8,cs),
(202,218,o)
);
},
{
closed = 1;
nodes = (
(143,302,o),
(143,288,cs),
(143,265,o),
(152,243,o),
(200,248,cs),
(306,258,o),
(422,257,o),
(553,254,cs),
(581,253,o),
(606,260,o),
(606,292,cs),
(606,313,o),
(588,333,o),
(566,332,cs),
(435,326,o),
(303,339,o),
(173,320,cs),
(152,317,o)
);
}
);
width = 709;
},
{
anchors = (
{
name = bottom;
pos = (354,0);
},
{
name = ogonek;
pos = (702,10);
},
{
name = top;
pos = (398,765);
}
);
guides = (
{
pos = (614,591);
}
);
layerId = m003;
shapes = (
{
closed = 1;
nodes = (
(297,374,o),
(386,562,c),
(419,448,o),
(506,123,o),
(535,44,cs),
(555,-10,o),
(589,-19,o),
(645,-19,cs),
(726,-19,o),
(746,16,o),
(746,37,cs),
(746,41,o),
(745,45,o),
(744,49,cs),
(712,136,o),
(585,442,o),
(536,599,cs),
(519,653,o),
(504,707,o),
(501,721,cs),
(486,780,o),
(444,790,o),
(391,790,cs),
(349,790,o),
(323,783,o),
(294,732,cs),
(228,616,o),
(149,399,o),
(76,224,cs),
(38,136,o),
(13,82,o),
(6,69,cs),
(-21,20,o),
(19,-12,o),
(72,-12,cs),
(130,-12,o),
(168,-6,o),
(189,36,cs),
(280,218,o)
);
},
{
closed = 1;
nodes = (
(151,299,o),
(151,285,cs),
(151,211,o),
(160,170,o),
(208,175,cs),
(314,185,o),
(530,184,o),
(661,181,cs),
(689,180,o),
(714,215,o),
(714,271,cs),
(714,317,o),
(696,350,o),
(659,348,cs),
(543,343,o),
(311,356,o),
(181,337,cs),
(160,334,o)
);
}
);
userData = {
com.hugojourdan.ColorFlow = {
"0" = 0;
"1" = 0;
"10" = 0;
"11" = 0;
"2" = 0;
"3" = 0;
"4" = 0;
"5" = 0;
"6" = 0;
"7" = 0;
"8" = 0;
"9" = 0;
};
};
width = 759;
}
);
metricLeft = A;
metricRight = A;
},
{
glyphname = A.alt2;
lastChange = "2023-02-08 10:43:41 +0000";
layers = (
{
anchors = (
{
name = bottom;
pos = (368,0);
},
{
name = ogonek;
pos = (663,10);
},
{
name = top;
pos = (394,764);
}
);
layerId = m01;
shapes = (
{
closed = 1;
nodes = (
(211,202,o),
(311,417,o),
(405,646,c),
(445,524,o),
(482,405,o),
(523,289,cs),
(558,188,o),
(597,90,o),
(642,-5,cs),
(648,-18,o),
(663,-24,o),
(677,-24,cs),
(703,-24,o),
(715,-5,o),
(715,16,cs),
(715,32,o),
(708,48,o),
(698,68,cs),
(669,123,o),
(636,208,o),
(604,297,cs),
(561,418,o),
(468,713,o),
(451,746,cs),
(439,769,o),
(426,784,o),
(408,784,cs),
(394,784,o),
(378,774,o),
(370,756,cs),
(263,503,o),
(130,221,o),
(34,33,cs),
(16,1,o),
(43,-28,o),
(72,-28,cs),
(84,-28,o),
(96,-22,o),
(104,-8,cs)
);
},
{
closed = 1;
nodes = (
(335,248,o),
(486,251,o),
(552,248,cs),
(579,248,o),
(592,265,o),
(592,285,cs),
(592,306,o),
(579,326,o),
(552,326,cs),
(477,329,o),
(324,325,o),
(216,314,cs),
(194,312,o),
(175,296,o),
(175,274,cs),
(176,254,o),
(193,234,o),
(216,236,cs)
);
}
);
width = 746;
},
{
anchors = (
{
name = bottom;
pos = (361,16);
},
{
name = ogonek;
pos = (656,10);
},
{
name = top;
pos = (411,764);
}
);
layerId = m002;
shapes = (
{
closed = 1;
nodes = (
(204,202,o),
(304,417,o),
(398,646,c),
(438,524,o),
(475,405,o),
(516,289,cs),
(551,188,o),
(590,90,o),
(635,-5,cs),
(641,-18,o),
(656,-24,o),
(670,-24,cs),
(696,-24,o),
(708,-5,o),
(708,16,cs),
(708,32,o),
(701,48,o),
(691,68,cs),
(662,123,o),
(629,208,o),
(597,297,cs),
(554,418,o),
(461,713,o),
(444,746,cs),
(432,769,o),
(419,784,o),
(401,784,cs),
(387,784,o),
(371,774,o),
(363,756,cs),
(256,503,o),
(123,221,o),
(27,33,cs),
(9,1,o),
(36,-28,o),
(65,-28,cs),
(77,-28,o),
(89,-22,o),
(97,-8,cs)
);
},
{
closed = 1;
nodes = (
(328,248,o),
(479,251,o),
(545,248,cs),
(572,248,o),
(585,265,o),
(585,285,cs),
(585,306,o),
(572,326,o),
(545,326,cs),
(470,329,o),
(317,325,o),
(209,314,cs),
(187,312,o),
(168,296,o),
(168,274,cs),
(169,254,o),
(186,234,o),
(209,236,cs)
);
}
);
width = 739;
},
{
anchors = (
{
name = bottom;
pos = (382,10);
},
{
name = ogonek;
pos = (728,10);
},
{
name = top;
pos = (414,768);
}
);
guides = (
{
pos = (785,596);
}
);
layerId = m003;
shapes = (
{
closed = 1;
nodes = (
(269,159,o),
(334,398,o),
(407,566,c),
(429,500,o),
(450,354,o),
(473,289,cs),
(508,188,o),
(547,90,o),
(574,32,cs),
(598,-18,o),
(642,-24,o),
(687,-24,cs),
(757,-24,o),
(777,9,o),
(777,30,cs),
(777,46,o),
(770,62,o),
(760,82,cs),
(731,137,o),
(706,208,o),
(674,297,cs),
(631,418,o),
(551,675,o),
(536,709,cs),
(509,769,o),
(480,784,o),
(418,784,cs),
(368,784,o),
(326,774,o),
(300,713,cs),
(211,503,o),
(90,221,o),
(5,58,cs),
(-24,1,o),
(22,-28,o),
(82,-28,cs),
(137,-28,o),
(176,-22,o),
(196,18,cs)
);
},
{
closed = 1;
nodes = (
(345,181,o),
(496,184,o),
(562,181,cs),
(589,181,o),
(622,205,o),
(622,271,cs),
(622,328,o),
(589,346,o),
(562,346,cs),
(487,349,o),
(334,345,o),
(226,334,cs),
(204,332,o),
(165,318,o),
(165,251,cs),
(165,194,o),
(203,167,o),
(226,169,cs)
);
}
);
userData = {
com.hugojourdan.ColorFlow = {
"0" = 0;
"1" = 0;
"10" = 0;
"11" = 0;
"2" = 0;
"3" = 0;
"4" = 0;
"5" = 0;
"6" = 0;
"7" = 0;
"8" = 0;
"9" = 0;
};
};
width = 790;
}
);
metricLeft = A;
metricRight = A;
},
{
glyphname = A.alt3;
lastChange = "2023-02-08 10:44:09 +0000";
layers = (
{
anchors = (
{
name = bottom;
pos = (382,0);
},
{
name = ogonek;
pos = (689,10);
},
{
name = top;
pos = (408,764);
}
);
layerId = m01;
shapes = (
{
closed = 1;
nodes = (
(201,209,o),
(294,428,o),
(380,648,c),
(460,411,o),
(572,172,o),
(669,0,cs),
(676,-12,o),
(690,-20,o),
(704,-20,cs),
(711,-20,o),
(718,-18,o),
(724,-14,cs),
(737,-6,o),
(744,7,o),
(744,21,cs),
(744,28,o),
(742,35,o),
(739,41,cs),
(613,256,o),
(508,509,o),
(434,724,cs),
(424,754,o),
(413,785,o),
(385,785,cs),
(367,785,o),
(353,775,o),
(345,755,cs),
(316,686,o),
(112,207,o),
(34,32,cs),
(31,25,o),
(28,18,o),
(28,12,cs),
(28,-11,o),
(50,-28,o),
(72,-28,cs),
(84,-28,o),
(97,-23,o),
(104,-8,cs)
);
},
{
closed = 1;
nodes = (
(284,249,o),
(317,251,o),
(351,251,cs),
(416,251,o),
(478,247,o),
(547,239,cs),
(573,236,o),
(586,259,o),
(586,280,cs),
(586,300,o),
(573,310,o),
(547,314,cs),
(508,320,o),
(418,329,o),
(334,329,cs),
(263,329,o),
(209,320,o),
(209,288,cs),
(209,267,o),
(227,246,o),
(250,247,cs)
);
}
);
width = 775;
},
{
anchors = (
{
name = bottom;
pos = (385,-10);
},
{
name = ogonek;
pos = (682,10);
},
{
name = top;
pos = (370,775);
}
);
layerId = m002;
shapes = (
{
closed = 1;
nodes = (
(194,209,o),
(287,428,o),
(373,648,c),
(453,411,o),
(565,172,o),
(662,0,cs),
(669,-12,o),
(683,-20,o),
(697,-20,cs),
(704,-20,o),
(711,-18,o),
(717,-14,cs),
(730,-6,o),
(737,7,o),
(737,21,cs),
(737,28,o),
(735,35,o),
(732,41,cs),
(606,256,o),
(501,509,o),
(427,724,cs),
(417,754,o),
(406,785,o),
(378,785,cs),
(360,785,o),
(346,775,o),
(338,755,cs),
(309,686,o),
(105,207,o),
(27,32,cs),
(24,25,o),
(21,18,o),
(21,12,cs),
(21,-11,o),
(43,-28,o),
(65,-28,cs),
(77,-28,o),
(90,-23,o),
(97,-8,cs)
);
},
{
closed = 1;
nodes = (
(277,249,o),
(310,251,o),
(344,251,cs),
(409,251,o),
(471,247,o),
(540,239,cs),
(566,236,o),
(579,259,o),
(579,280,cs),
(579,300,o),
(566,310,o),
(540,314,cs),
(501,320,o),
(411,329,o),
(327,329,cs),
(256,329,o),
(202,320,o),
(202,288,cs),
(202,267,o),
(220,246,o),
(243,247,cs)
);
}
);
width = 768;
},
{
anchors = (
{
name = bottom;
pos = (391,6);
},
{
name = ogonek;
pos = (739,4);
},
{
name = top;
pos = (396,768);
}
);
layerId = m003;
shapes = (
{
closed = 1;
nodes = (
(260,162,o),
(323,401,o),
(387,556,c),
(453,385,o),
(528,136,o),
(588,29,cs),
(611,-12,o),
(652,-20,o),
(704,-20,cs),
(744,-20,o),
(765,-9,o),
(771,-5,cs),
(784,3,o),
(795,24,o),
(795,38,cs),
(795,45,o),
(793,52,o),
(790,58,cs),
(664,273,o),
(578,509,o),
(514,694,cs),
(494,754,o),
(457,785,o),
(385,785,cs),
(331,785,o),
(305,775,o),
(283,723,cs),
(268,686,o),
(81,232,o),
(3,57,cs),
(0,50,o),
(-3,43,o),
(-3,30,cs),
(-3,14,o),
(6,-28,o),
(72,-28,cs),
(134,-28,o),
(177,-23,o),
(205,39,cs)
);
},
{
closed = 1;
nodes = (
(342,178,o),
(375,181,o),
(409,181,cs),
(445,181,o),
(478,177,o),
(547,169,cs),
(573,166,o),
(607,190,o),
(608,249,cs),
(608,304,o),
(588,328,o),
(547,334,cs),
(508,340,o),
(437,349,o),
(353,349,cs),
(282,349,o),
(238,330,o),
(238,262,cs),
(238,200,o),
(288,178,o),
(320,178,cs)
);
}
);
userData = {
com.hugojourdan.ColorFlow = {
"0" = 0;
"1" = 0;
"10" = 0;
"11" = 0;
"2" = 0;
"3" = 0;
"4" = 0;
"5" = 0;
"6" = 0;
"7" = 0;
"8" = 0;
"9" = 0;
};
};
width = 808;
}
);
metricLeft = A;
metricRight = A;
},
{
glyphname = A.alt4;
lastChange = "2023-02-08 10:44:25 +0000";
layers = (
{
anchors = (
{
name = bottom;
pos = (389,0);
},
{
name = ogonek;
pos = (701,10);
},
{
name = top;
pos = (415,764);
}
);
layerId = m01;
shapes = (
{
closed = 1;
nodes = (
(204,216,o),
(294,429,o),
(379,652,c),
(461,427,o),
(582,170,o),
(682,1,cs),
(689,-12,o),
(703,-20,o),
(718,-20,cs),
(737,-20,o),
(757,-1,o),
(757,22,cs),
(757,28,o),
(756,35,o),
(752,41,cs),
(665,193,o),
(487,542,o),
(420,766,c),
(415,785,o),
(398,795,o),
(381,795,cs),
(364,795,o),
(348,785,o),
(341,766,cs),
(245,509,o),
(100,187,o),
(35,51,cs),
(31,44,o),
(29,37,o),
(29,31,cs),
(29,8,o),
(51,-10,o),
(73,-10,cs),
(85,-10,o),
(97,-4,o),
(105,10,c)
);
},
{
closed = 1;
nodes = (
(353,245,o),
(556,252,o),
(580,254,cs),
(605,256,o),
(628,264,o),
(628,294,cs),
(628,315,o),
(611,334,o),
(588,333,cs),
(494,327,o),
(401,323,o),
(227,323,cs),
(201,323,o),
(188,303,o),
(188,283,cs),
(188,262,o),
(201,245,o),
(227,245,cs)
);
}
);
width = 788;
},
{
anchors = (
{
name = bottom;
pos = (375,-3);
},
{
name = ogonek;
pos = (694,10);
},
{
name = top;
pos = (384,777);
}
);
layerId = m002;
shapes = (
{
closed = 1;
nodes = (
(197,216,o),
(287,429,o),
(372,652,c),
(454,427,o),
(575,170,o),
(675,1,cs),
(682,-12,o),
(696,-20,o),
(711,-20,cs),
(730,-20,o),
(750,-1,o),
(750,22,cs),
(750,28,o),
(749,35,o),
(745,41,cs),
(658,193,o),
(480,542,o),
(413,766,c),
(408,785,o),
(391,795,o),
(374,795,cs),
(357,795,o),
(341,785,o),
(334,766,cs),
(238,509,o),
(93,187,o),
(28,51,cs),
(24,44,o),
(22,37,o),
(22,31,cs),
(22,8,o),
(44,-10,o),
(66,-10,cs),
(78,-10,o),
(90,-4,o),
(98,10,c)
);
},
{
closed = 1;
nodes = (
(346,245,o),
(549,252,o),
(573,254,cs),
(598,256,o),
(621,264,o),
(621,294,cs),
(621,315,o),
(604,334,o),
(581,333,cs),
(487,327,o),
(394,323,o),
(220,323,cs),
(194,323,o),
(181,303,o),
(181,283,cs),
(181,262,o),
(194,245,o),
(220,245,cs)
);
}
);
width = 781;
},
{
anchors = (
{
name = bottom;
pos = (385,5);
},
{
name = ogonek;
pos = (732,6);
},
{
name = top;
pos = (383,783);
}
);
layerId = m003;
shapes = (
{
closed = 1;
nodes = (
(259,170,o),
(315,432,o),
(378,589,c),
(449,419,o),
(530,138,o),
(586,43,cs),
(618,-12,o),
(649,-20,o),
(711,-20,cs),
(768,-20,o),
(796,18,o),
(796,41,cs),
(796,47,o),
(795,58,o),
(785,75,cs),
(704,216,o),
(565,542,o),
(517,702,cs),
(492,785,o),
(436,795,o),
(380,795,cs),
(340,795,o),
(280,785,o),
(252,711,cs),
(177,509,o),
(68,207,o),
(3,71,cs),
(-1,64,o),
(-3,57,o),
(-3,47,cs),
(-3,18,o),
(30,-10,o),
(77,-10,cs),
(137,-10,o),
(175,-5,o),
(200,46,cs)
);
},
{
closed = 1;
nodes = (
(352,177,o),
(555,184,o),
(579,186,cs),
(604,188,o),
(641,208,o),
(641,265,cs),
(641,323,o),
(610,354,o),
(587,353,cs),
(493,347,o),
(400,343,o),
(226,343,cs),
(200,343,o),
(161,315,o),
(161,255,cs),
(161,208,o),
(200,177,o),
(226,177,cs)
);
}
);
userData = {
com.hugojourdan.ColorFlow = {
"0" = 0;
"1" = 0;
"10" = 0;
"11" = 0;
"2" = 0;
"3" = 0;
"4" = 0;
"5" = 0;
"6" = 0;
"7" = 0;
"8" = 0;
"9" = 0;
};
};
width = 809;
}
);
metricLeft = A;
metricRight = A;
},
{
glyphname = A.alt5;
lastChange = "2023-02-08 10:44:43 +0000";
layers = (
{
anchors = (
{
name = bottom;
pos = (400,0);
},
{
name = ogonek;
pos = (722,10);
},
{
name = top;
pos = (426,764);
}
);
layerId = m01;
shapes = (
{
closed = 1;
nodes = (
(204,216,o),
(306,431,o),
(406,655,c),
(476,478,o),
(612,206,o),
(701,11,cs),
(709,-7,o),
(724,-15,o),
(740,-15,cs),
(762,-15,o),
(780,1,o),
(780,23,cs),
(780,29,o),
(778,35,o),
(775,42,cs),
(689,237,o),
(519,560,o),
(454,744,cs),
(445,769,o),
(428,787,o),
(410,787,cs),
(393,787,o),
(380,780,o),
(374,766,cs),
(330,672,o),
(285,578,o),
(34,43,cs),
(31,36,o),
(28,30,o),
(28,23,cs),
(28,1,o),
(50,-17,o),
(72,-17,cs),
(84,-17,o),
(97,-12,o),
(104,3,cs)
);
},
{
closed = 1;
nodes = (
(345,254,o),
(469,260,o),
(613,260,cs),
(645,260,o),
(677,267,o),
(677,299,cs),
(677,321,o),
(659,340,o),
(636,340,cs),
(526,339,o),
(246,325,o),
(222,323,cs),
(191,320,o),
(172,313,o),
(172,281,cs),
(172,259,o),
(188,242,o),
(212,243,cs)
);
}
);
width = 811;
},
{
anchors = (
{
name = bottom;
pos = (399,26);
},
{
name = ogonek;
pos = (715,10);
},
{
name = top;
pos = (396,780);
}
);
layerId = m002;
shapes = (
{
closed = 1;
nodes = (
(197,216,o),
(299,431,o),
(399,655,c),
(469,478,o),
(605,206,o),
(694,11,cs),
(702,-7,o),
(717,-15,o),
(733,-15,cs),
(755,-15,o),
(773,1,o),
(773,23,cs),
(773,29,o),
(771,35,o),
(768,42,cs),
(682,237,o),
(512,560,o),
(447,744,cs),
(438,769,o),
(421,787,o),
(403,787,cs),
(386,787,o),
(373,780,o),
(367,766,cs),
(323,672,o),
(278,578,o),
(27,43,cs),
(24,36,o),
(21,30,o),
(21,23,cs),
(21,1,o),
(43,-17,o),
(65,-17,cs),
(77,-17,o),
(90,-12,o),
(97,3,cs)
);
},
{
closed = 1;
nodes = (
(338,254,o),
(462,260,o),
(606,260,cs),
(638,260,o),
(670,267,o),
(670,299,cs),
(670,321,o),
(652,340,o),
(629,340,cs),
(519,339,o),
(239,325,o),
(215,323,cs),
(184,320,o),
(165,313,o),
(165,281,cs),
(165,259,o),
(181,242,o),
(205,243,cs)
);
}
);
width = 804;
},
{
anchors = (
{
name = bottom;
pos = (395,0);
},
{
name = ogonek;
pos = (761,6);
},
{
name = top;
pos = (411,762);
}
);
layerId = m003;
shapes = (
{
closed = 1;
nodes = (
(265,174,o),
(332,427,o),
(409,595,c),
(480,437,o),
(561,154,o),
(600,68,cs),
(624,14,o),
(648,-15,o),
(725,-15,cs),
(799,-15,o),
(825,11,o),
(825,39,cs),
(825,48,o),
(823,58,o),
(820,65,cs),
(734,260,o),
(596,560,o),
(547,698,cs),
(522,769,o),
(474,787,o),
(405,787,cs),
(356,787,o),
(315,780,o),
(290,726,cs),
(265,672,o),
(254,609,o),
(3,74,cs),
(0,67,o),
(-3,61,o),
(-3,45,cs),
(-3,32,o),
(8,-17,o),
(77,-17,cs),
(146,-17,o),
(182,-3,o),
(209,54,cs)
);
},
{
closed = 1;
nodes = (
(340,186,o),
(554,192,o),
(698,192,cs),
(730,192,o),
(779,212,o),
(779,281,cs),
(779,340,o),
(744,360,o),
(711,360,cs),
(611,359,o),
(241,345,o),
(217,343,cs),
(186,340,o),
(151,319,o),
(151,247,cs),
(151,199,o),
(183,174,o),
(207,175,cs)
);
}
);
userData = {
com.hugojourdan.ColorFlow = {
"0" = 0;
"1" = 0;
"10" = 0;
"11" = 0;
"2" = 0;
"3" = 0;
"4" = 0;
"5" = 0;
"6" = 0;
"7" = 0;
"8" = 0;
"9" = 0;
};
};
width = 838;
}
);
metricLeft = A;
metricRight = A;
},
{
glyphname = A.alt6;
lastChange = "2023-02-08 10:45:04 +0000";
layers = (
{
anchors = (
{
name = bottom;
pos = (372,0);
},
{
name = ogonek;
pos = (670,10);
},
{
name = top;
pos = (398,764);
}
);
layerId = m01;
shapes = (
{
closed = 1;
nodes = (
(220,208,o),
(320,408,o),
(417,637,c),
(481,417,o),
(562,206,o),
(648,8,cs),
(655,-7,o),
(669,-11,o),
(682,-11,cs),
(700,-11,o),
(723,4,o),
(723,21,cs),
(723,34,o),
(721,43,o),
(716,55,cs),
(609,295,o),
(515,567,o),
(462,748,cs),
(457,767,o),
(439,777,o),
(421,777,cs),
(408,777,o),
(394,771,o),
(388,758,cs),
(275,498,o),
(175,297,o),
(35,45,cs),
(31,38,o),
(29,31,o),
(29,25,cs),
(29,2,o),
(51,-16,o),
(73,-16,cs),
(85,-16,o),
(97,-10,o),
(105,4,cs)
);
},
{
closed = 1;
nodes = (
(297,255,o),
(356,257,o),
(416,257,cs),
(462,257,o),
(582,254,o),
(628,249,cs),
(655,246,o),
(680,257,o),
(680,286,cs),
(680,309,o),
(662,324,o),
(639,326,cs),
(562,332,o),
(484,335,o),
(406,335,cs),
(379,335,o),
(291,333,o),
(247,330,cs),
(222,328,o),
(197,313,o),
(197,289,cs),
(197,268,o),
(215,250,o),
(238,252,cs)
);
}
);
width = 754;
},
{
anchors = (
{
name = bottom;
pos = (377,0);
},
{
name = ogonek;
pos = (663,10);
},
{
name = top;
pos = (415,768);
}
);
layerId = m002;
shapes = (
{
closed = 1;
nodes = (
(213,208,o),
(313,408,o),
(410,637,c),
(474,417,o),
(555,206,o),
(641,8,cs),
(648,-7,o),
(662,-11,o),
(675,-11,cs),
(693,-11,o),
(716,4,o),
(716,21,cs),
(716,34,o),
(714,43,o),
(709,55,cs),
(602,295,o),
(508,567,o),
(455,748,cs),
(450,767,o),
(432,777,o),
(414,777,cs),
(401,777,o),
(387,771,o),
(381,758,cs),
(268,498,o),
(168,297,o),
(28,45,cs),
(24,38,o),
(22,31,o),
(22,25,cs),
(22,2,o),
(44,-16,o),
(66,-16,cs),
(78,-16,o),
(90,-10,o),
(98,4,cs)
);
},
{
closed = 1;
nodes = (
(290,255,o),
(349,257,o),
(409,257,cs),
(455,257,o),
(575,254,o),
(621,249,cs),
(648,246,o),
(673,257,o),
(673,286,cs),
(673,309,o),
(655,324,o),
(632,326,cs),
(555,332,o),
(477,335,o),
(399,335,cs),
(372,335,o),
(284,333,o),
(240,330,cs),
(215,328,o),
(190,313,o),
(190,289,cs),
(190,268,o),
(208,250,o),
(231,252,cs)
);
}
);
width = 747;
},
{
anchors = (
{
name = bottom;
pos = (391,5);
},
{
name = ogonek;
pos = (725,10);
},
{
name = top;
pos = (435,768);
}
);
layerId = m003;
shapes = (
{
closed = 1;
nodes = (
(278,162,o),
(348,423,o),
(418,576,c),
(469,426,o),
(523,165,o),
(570,58,cs),
(594,2,o),
(626,-11,o),
(685,-11,cs),
(758,-11,o),
(786,24,o),
(786,44,cs),
(786,54,o),
(784,63,o),
(779,75,cs),
(672,315,o),
(593,567,o),
(554,701,cs),
(535,767,o),
(487,777,o),
(438,777,cs),
(374,777,o),
(329,771,o),
(299,702,cs),
(210,498,o),
(143,319,o),
(3,67,cs),
(-1,60,o),
(-3,53,o),
(-3,47,cs),
(-3,24,o),
(13,-16,o),
(92,-16,cs),
(147,-16,o),
(181,-10,o),
(211,42,cs)
);
},
{
closed = 1;
nodes = (
(300,189,o),
(359,191,o),
(419,191,cs),
(465,191,o),
(685,188,o),
(704,186,cs),
(758,180,o),
(783,215,o),
(783,265,cs),
(783,313,o),
(753,345,o),
(708,349,cs),
(665,352,o),
(487,355,o),
(409,355,cs),
(382,355,o),
(294,353,o),
(250,350,cs),
(225,348,o),
(177,327,o),
(177,263,cs),
(177,203,o),
(218,184,o),
(241,186,cs)
);
}
);
userData = {
com.hugojourdan.ColorFlow = {
"0" = 0;
"1" = 0;
"10" = 0;
"11" = 0;
"2" = 0;
"3" = 0;
"4" = 0;
"5" = 0;
"6" = 0;
"7" = 0;
"8" = 0;
"9" = 0;
};
};
width = 799;
}
);
metricLeft = A;
metricRight = A;
},
{
glyphname = B;
lastChange = "2023-02-02 18:18:46 +0000";
layers = (
{
anchors = (
{
name = bottom;
pos = (318,0);
},
{
name = center;
pos = (331,382);
},
{
name = top;
pos = (344,764);
}
);
background = {
shapes = (
{
closed = 1;
nodes = (
(101,493,o),
(107,246,o),
(78,25,cs),
(75,-1,o),
(98,-14,o),
(119,-14,cs),
(139,-14,o),
(156,-1,o),
(159,25,cs),
(189,258,o),
(182,493,o),
(209,726,c),
(209,752,o),
(189,765,o),
(168,765,cs),
(148,765,o),
(128,752,o),
(128,726,c)
);
},
{
closed = 1;
nodes = (
(190,690,o),
(261,700,o),
(303,700,cs),
(378,700,o),
(483,677,o),
(483,601,cs),
(483,488,o),
(306,447,o),
(207,447,cs),
(183,447,o),
(163,449,o),
(141,451,cs),
(120,452,o),
(114,434,o),
(115,413,cs),
(115,377,o),
(145,367,o),
(198,367,cs),
(224,367,o),
(252,370,o),
(291,376,c),
(375,375,o),
(517,337,o),
(517,242,cs),
(517,132,o),
(345,77,o),
(218,77,cs),
(190,77,o),
(160,79,o),
(129,84,c),
(118,5,l),
(140,3,o),
(179,-1,o),
(220,-1,cs),
(397,-1,o),
(598,84,o),
(598,240,cs),
(598,318,o),
(537,393,o),
(426,423,c),
(521,464,o),
(563,539,o),
(563,606,cs),
(563,745,o),
(409,778,o),
(295,778,cs),
(227,778,o),
(191,772,o),
(164,764,c),
(164,686,l)
);
}
);
};
layerId = m01;
shapes = (
{
closed = 1;
nodes = (
(100,495,o),
(108,249,o),
(95,26,cs),
(93,0,o),
(117,-11,o),
(138,-10,cs),
(158,-8,o),
(174,6,o),
(175,32,cs),
(189,266,o),
(181,500,o),
(191,735,c),
(190,761,o),
(169,772,o),
(148,771,cs),
(128,769,o),
(109,755,o),
(111,729,c)
);
},
{
closed = 1;
nodes = (
(190,690,o),
(261,700,o),
(303,700,cs),
(378,700,o),
(483,677,o),
(483,601,cs),
(483,488,o),
(306,447,o),
(207,447,cs),
(183,447,o),
(163,449,o),
(141,451,cs),
(120,452,o),
(114,434,o),
(115,413,cs),
(115,377,o),
(145,367,o),
(198,367,cs),
(224,367,o),
(252,370,o),
(291,376,c),
(375,375,o),
(517,337,o),
(517,242,cs),
(517,132,o),
(345,77,o),
(218,77,cs),
(190,77,o),
(160,79,o),
(129,84,c),
(118,5,l),
(140,3,o),
(179,-1,o),
(220,-1,cs),
(397,-1,o),
(598,84,o),
(598,240,cs),
(598,318,o),
(537,393,o),
(426,423,c),
(521,464,o),
(563,539,o),
(563,606,cs),
(563,745,o),
(409,778,o),
(295,778,cs),
(227,778,o),
(191,772,o),
(164,764,c),
(164,686,l)
);
}
);
width = 653;
},
{
anchors = (
{
name = bottom;
pos = (318,0);
},
{
name = center;
pos = (331,382);
},
{
name = top;
pos = (315,761);
}
);
background = {
shapes = (
{
closed = 1;
nodes = (
(101,493,o),
(107,246,o),
(78,25,cs),
(75,-1,o),
(98,-14,o),
(119,-14,cs),
(139,-14,o),
(156,-1,o),
(159,25,cs),
(189,258,o),
(182,493,o),
(209,726,c),
(209,752,o),
(189,765,o),
(168,765,cs),
(148,765,o),
(128,752,o),
(128,726,c)
);
},
{
closed = 1;
nodes = (
(190,690,o),
(261,700,o),
(303,700,cs),
(378,700,o),
(483,677,o),
(483,601,cs),
(483,488,o),
(306,447,o),
(207,447,cs),
(183,447,o),
(163,449,o),
(141,451,cs),
(120,452,o),
(114,434,o),
(115,413,cs),
(115,377,o),
(145,367,o),
(198,367,cs),
(224,367,o),
(252,370,o),
(291,376,c),
(375,375,o),
(517,337,o),
(517,242,cs),
(517,132,o),
(345,77,o),
(218,77,cs),
(190,77,o),
(160,79,o),
(129,84,c),
(118,5,l),
(140,3,o),
(179,-1,o),
(220,-1,cs),
(397,-1,o),
(598,84,o),
(598,240,cs),
(598,318,o),
(537,393,o),
(426,423,c),
(521,464,o),
(563,539,o),
(563,606,cs),
(563,745,o),
(409,778,o),
(295,778,cs),
(227,778,o),
(191,772,o),
(164,764,c),
(164,686,l)
);
}
);
};
layerId = m002;
shapes = (
{
closed = 1;
nodes = (
(100,495,o),
(108,249,o),
(95,26,cs),
(93,0,o),
(117,-11,o),
(138,-10,cs),
(158,-8,o),
(174,6,o),
(175,32,cs),
(189,266,o),
(181,500,o),
(191,735,c),
(190,761,o),
(169,772,o),
(148,771,cs),
(128,769,o),
(109,755,o),
(111,729,c)
);
},
{
closed = 1;
nodes = (
(190,690,o),
(261,700,o),
(303,700,cs),
(378,700,o),
(483,677,o),
(483,601,cs),
(483,488,o),
(306,447,o),
(207,447,cs),
(183,447,o),
(163,449,o),
(141,451,cs),
(120,452,o),
(114,434,o),
(115,413,cs),
(115,377,o),
(145,367,o),
(198,367,cs),
(224,367,o),
(252,370,o),
(291,376,c),
(375,375,o),
(517,337,o),
(517,242,cs),
(517,132,o),
(345,77,o),
(218,77,cs),
(190,77,o),
(160,79,o),
(129,84,c),
(118,5,l),
(140,3,o),
(179,-1,o),
(220,-1,cs),
(397,-1,o),
(598,84,o),
(598,240,cs),
(598,318,o),
(537,393,o),
(426,423,c),
(521,464,o),
(563,539,o),
(563,606,cs),
(563,745,o),
(409,778,o),
(295,778,cs),
(227,778,o),
(191,772,o),
(164,764,c),
(164,686,l)
);
}
);
width = 653;
},
{
anchors = (
{
name = bottom;
pos = (352,0);
},
{
name = center;
pos = (365,382);
},
{
name = top;
pos = (378,764);
}
);
background = {
shapes = (
{
closed = 1;
nodes = (
(135,493,o),
(141,246,o),
(112,25,cs),
(109,-1,o),
(132,-14,o),
(153,-14,cs),
(173,-14,o),
(190,-1,o),
(193,25,cs),
(223,258,o),
(216,493,o),
(243,726,c),
(243,752,o),
(223,765,o),
(202,765,cs),
(182,765,o),
(162,752,o),
(162,726,c)
);
},
{
closed = 1;
nodes = (
(224,690,o),
(295,700,o),
(337,700,cs),
(412,700,o),
(517,677,o),
(517,601,cs),
(517,488,o),
(340,447,o),
(241,447,cs),
(217,447,o),
(197,449,o),
(175,451,cs),
(154,452,o),
(148,434,o),
(149,413,cs),
(149,377,o),
(179,367,o),
(232,367,cs),
(258,367,o),
(286,370,o),
(325,376,c),
(409,375,o),
(551,337,o),
(551,242,cs),
(551,132,o),
(379,77,o),
(252,77,cs),
(224,77,o),
(194,79,o),
(163,84,c),
(152,5,l),
(174,3,o),
(213,-1,o),
(254,-1,cs),
(431,-1,o),
(632,84,o),
(632,240,cs),
(632,318,o),
(571,393,o),
(460,423,c),
(555,464,o),
(597,539,o),
(597,606,cs),
(597,745,o),
(443,778,o),
(329,778,cs),
(261,778,o),
(225,772,o),
(198,764,c),
(198,686,l)
);
}
);
};
layerId = m003;
shapes = (
{
closed = 1;
nodes = (
(66,495,o),
(74,249,o),
(61,39,cs),
(59,0,o),
(91,-13,o),
(162,-13,cs),
(202,-13,o),
(248,6,o),
(249,32,cs),
(263,266,o),
(255,506,o),
(265,735,c),
(264,761,o),
(213,778,o),
(172,777,cs),
(102,775,o),
(78,755,o),
(76,716,cs)
);
},
{
closed = 1;
nodes = (
(224,634,o),
(295,644,o),
(337,644,cs),
(402,644,o),
(435,625,o),
(435,589,cs),
(435,518,o),
(340,483,o),
(241,483,cs),
(217,483,o),
(197,485,o),
(175,487,cs),
(154,488,o),
(149,434,o),
(149,413,cs),
(149,342,o),
(179,332,o),
(232,332,cs),
(258,332,o),
(286,335,o),
(325,341,c),
(399,340,o),
(458,307,o),
(458,254,cs),
(458,182,o),
(377,147,o),
(263,147,cs),
(235,147,o),
(194,149,o),
(163,154,c),
(152,10,l),
(174,5,o),
(232,-1,o),
(286,-1,cs),
(451,-1,o),
(652,89,o),
(652,245,cs),
(652,323,o),
(601,393,o),
(470,423,c),
(581,466,o),
(617,539,o),
(617,606,cs),
(617,745,o),
(463,778,o),
(354,778,cs),
(274,778,o),
(225,765,o),
(198,757,c),
(198,630,l)
);
}
);
width = 693;
}
);
unicode = 66;
},
{
glyphname = B.alt1;
lastChange = "2023-02-08 13:45:20 +0000";
layers = (
{
anchors = (
{
name = bottom;
pos = (311,0);
},
{
name = center;
pos = (324,382);
},
{
name = top;
pos = (337,764);
}
);
layerId = m01;
shapes = (
{
closed = 1;
nodes = (
(94,0,o),
(108,-5,o),
(137,-7,cs),
(170,-9,o),
(238,-11,o),
(292,-11,cs),
(448,-11,o),
(584,65,o),
(584,211,cs),
(584,290,o),
(548,364,o),
(443,398,c),
(546,428,o),
(589,517,o),
(589,592,cs),
(589,687,o),
(521,776,o),
(374,777,cs),
(310,780,o),
(243,775,o),
(180,769,cs),
(152,766,o),
(123,757,o),
(123,724,cs),
(117,524,o),
(92,326,o),
(92,125,cs),
(92,92,o),
(92,59,o),
(94,26,cs)
);
},
{
closed = 1;
nodes = (
(230,67,o),
(202,68,o),
(173,69,c),
(173,203,o),
(177,280,o),
(182,357,c),
(319,369,o),
(502,344,o),
(502,216,cs),
(502,93,o),
(378,67,o),
(279,67,cs)
);
},
{
closed = 1;
nodes = (
(193,523,o),
(199,607,o),
(203,690,c),
(250,695,o),
(294,699,o),
(351,699,cs),
(464,699,o),
(506,660,o),
(506,593,cs),
(506,445,o),
(322,438,o),
(187,441,c)
);
}
);
width = 640;
},
{
anchors = (
{
name = bottom;
pos = (311,-10);
},
{
name = center;
pos = (324,382);
},
{
name = top;
pos = (340,756);
}
);
layerId = m002;
shapes = (
{
closed = 1;
nodes = (
(94,0,o),
(108,-5,o),
(137,-7,cs),
(170,-9,o),
(238,-11,o),
(292,-11,cs),
(448,-11,o),
(584,65,o),
(584,211,cs),
(584,290,o),
(548,364,o),
(443,398,c),
(546,428,o),
(589,517,o),
(589,592,cs),
(589,687,o),
(521,776,o),
(374,777,cs),
(310,780,o),
(243,775,o),
(180,769,cs),
(152,766,o),
(123,757,o),
(123,724,cs),
(117,524,o),
(92,326,o),
(92,125,cs),
(92,92,o),
(92,59,o),
(94,26,cs)
);
},
{
closed = 1;
nodes = (
(230,67,o),
(202,68,o),
(173,69,c),
(173,203,o),
(177,280,o),
(182,357,c),
(319,369,o),
(502,344,o),
(502,216,cs),
(502,93,o),
(378,67,o),
(279,67,cs)
);
},
{
closed = 1;
nodes = (
(193,523,o),
(199,607,o),
(203,690,c),
(250,695,o),
(294,699,o),
(351,699,cs),
(464,699,o),
(506,660,o),
(506,593,cs),
(506,445,o),
(322,438,o),
(187,441,c)
);
}
);
width = 640;
},
{
anchors = (
{
name = bottom;
pos = (311,0);
},
{
name = center;
pos = (324,382);
},
{
name = top;
pos = (337,764);
}
);
layerId = m003;
shapes = (
{
closed = 1;
nodes = (
(59,0,o),
(108,-5,o),
(137,-7,cs),
(170,-9,o),
(238,-11,o),
(292,-11,cs),
(498,-11,o),
(639,65,o),
(639,211,cs),
(639,290,o),
(598,364,o),
(483,398,c),
(596,428,o),
(644,517,o),
(644,592,cs),
(644,687,o),
(571,776,o),
(374,777,cs),
(310,777,o),
(243,775,o),
(180,769,cs),
(140,765,o),
(88,757,o),
(86,693,cs),
(82,524,o),
(57,326,o),
(57,125,cs),
(57,92,o),
(57,68,o),
(57,53,cs)
);
},
{
closed = 1;
nodes = (
(278,137,o),
(261,138,o),
(243,138,c),
(243,221,o),
(245,269,o),
(249,316,c),
(334,324,o),
(446,308,o),
(446,230,cs),
(446,153,o),
(370,137,o),
(308,137,cs)
);
},
{
closed = 1;
nodes = (
(261,525,o),
(264,581,o),
(267,635,c),
(296,639,o),
(323,642,o),
(360,642,cs),
(429,642,o),
(456,615,o),
(456,570,cs),
(456,472,o),
(341,468,o),
(257,470,c)
);
}
);
userData = {
com.hugojourdan.ColorFlow = {
"0" = 0;
"1" = 0;
"10" = 0;
"11" = 0;
"2" = 0;
"3" = 0;
"4" = 0;
"5" = 0;
"6" = 0;
"7" = 0;
"8" = 0;
"9" = 0;
};
};
width = 681;
}
);
metricLeft = B;
metricRight = B;
},
{
glyphname = B.alt2;
lastChange = "2023-02-02 18:01:24 +0000";
layers = (
{
anchors = (
{
name = bottom;
pos = (349,0);
},
{
name = center;
pos = (362,382);
},
{
name = top;
pos = (375,764);
}
);
layerId = m01;
shapes = (
{
closed = 1;
nodes = (
(160,82,l),
(149,83,o),
(137,84,o),
(126,85,cs),
(100,86,o),
(87,67,o),
(87,47,cs),
(87,27,o),
(98,9,o),
(126,6,cs),
(165,2,o),
(289,-8,o),
(328,-8,cs),
(538,-8,o),
(660,101,o),
(660,215,cs),
(660,278,o),
(619,347,o),
(535,391,c),
(604,424,o),
(644,475,o),
(644,547,cs),
(644,680,o),
(519,773,o),
(339,773,cs),
(299,773,o),
(273,770,o),
(256,761,c),
(248,769,o),
(237,773,o),
(226,773,cs),
(206,773,o),
(186,760,o),
(185,734,cs)
);
},
{
closed = 1;
nodes = (
(264,692,l),
(268,691,o),
(272,691,o),
(276,691,cs),
(294,692,o),
(307,693,o),
(325,693,cs),
(480,693,o),
(563,642,o),
(563,545,cs),
(563,497,o),
(523,451,o),
(439,431,c),
(414,438,o),
(386,440,o),
(367,440,cs),
(332,440,o),
(271,430,o),
(271,395,cs),
(271,358,o),
(304,352,o),
(376,352,cs),
(393,352,o),
(410,353,o),
(427,358,c),
(515,337,o),
(578,276,o),
(578,213,cs),
(578,133,o),
(466,70,o),
(334,70,cs),
(303,70,o),
(272,72,o),
(241,75,c)
);
}
);
width = 716;
},
{
anchors = (
{
name = bottom;
pos = (326,11);
},
{
name = center;
pos = (362,382);
},
{
name = top;
pos = (386,764);
}
);
layerId = m002;
shapes = (
{
closed = 1;
nodes = (
(160,82,l),
(149,83,o),
(137,84,o),
(126,85,cs),
(100,86,o),
(87,67,o),
(87,47,cs),
(87,27,o),
(98,9,o),
(126,6,cs),
(165,2,o),
(289,-8,o),
(328,-8,cs),
(538,-8,o),
(660,101,o),
(660,215,cs),
(660,278,o),
(619,347,o),
(535,391,c),
(604,424,o),
(644,475,o),
(644,547,cs),
(644,680,o),
(519,773,o),
(339,773,cs),
(299,773,o),
(273,770,o),
(256,761,c),
(248,769,o),
(237,773,o),
(226,773,cs),
(206,773,o),
(186,760,o),
(185,734,cs)
);
},
{
closed = 1;
nodes = (
(264,692,l),
(268,691,o),
(272,691,o),
(276,691,cs),
(294,692,o),
(307,693,o),
(325,693,cs),
(480,693,o),
(563,642,o),
(563,545,cs),
(563,497,o),
(523,451,o),
(439,431,c),
(414,438,o),
(386,440,o),
(367,440,cs),
(332,440,o),
(271,430,o),
(271,395,cs),
(271,358,o),
(304,352,o),
(376,352,cs),
(393,352,o),
(410,353,o),
(427,358,c),
(515,337,o),
(578,276,o),
(578,213,cs),
(578,133,o),
(466,70,o),
(334,70,cs),
(303,70,o),
(272,72,o),
(241,75,c)
);
}
);
width = 716;
},
{
anchors = (
{
name = bottom;
pos = (360,0);
},
{
name = center;
pos = (373,382);
},
{
name = top;
pos = (386,764);
}
);
layerId = m003;
shapes = (
{
closed = 1;
nodes = (
(137,154,l),
(126,155,o),
(114,156,o),
(103,157,cs),
(77,158,o),
(54,127,o),
(54,83,cs),
(54,31,o),
(75,12,o),
(103,8,cs),
(142,2,o),
(261,-8,o),
(339,-8,cs),
(600,-8,o),
(725,101,o),
(725,215,cs),
(725,280,o),
(678,355,o),
(586,391,c),
(656,432,o),
(709,485,o),
(709,557,cs),
(709,680,o),
(584,773,o),
(408,773,cs),
(378,773,o),
(353,765,o),
(337,751,c),
(311,767,o),
(276,773,o),
(246,773,cs),
(206,773,o),
(163,760,o),
(161,712,cs)
);
},
{
closed = 1;
nodes = (
(345,632,l),
(349,630,o),
(356,629,o),
(360,629,cs),
(378,630,o),
(388,633,o),
(406,633,cs),
(460,633,o),
(524,601,o),
(524,548,cs),
(524,510,o),
(502,460,o),
(470,448,c),
(443,463,o),
(422,470,o),
(403,470,cs),
(372,470,o),
(352,439,o),
(352,395,cs),
(352,347,o),
(369,312,o),
(403,312,cs),
(420,312,o),
(437,316,o),
(458,328,c),
(510,313,o),
(529,276,o),
(529,235,cs),
(529,187,o),
(479,140,o),
(388,140,cs),
(369,140,o),
(343,142,o),
(322,145,c)
);
}
);
userData = {
com.hugojourdan.ColorFlow = {
"0" = 0;
"1" = 0;
"10" = 0;
"11" = 0;
"2" = 0;
"3" = 0;
"4" = 0;
"5" = 0;
"6" = 0;
"7" = 0;
"8" = 0;
"9" = 0;
};
};
width = 767;
}
);
metricLeft = B;
metricRight = B;
},
{
glyphname = B.alt3;
lastChange = "2023-02-02 18:01:24 +0000";
layers = (
{
anchors = (
{
name = bottom;
pos = (330,0);
},
{
name = center;
pos = (343,382);
},
{
name = top;
pos = (356,764);
}
);
layerId = m01;
shapes = (
{
closed = 1;
nodes = (
(246,712,o),
(302,719,o),
(346,719,cs),
(459,719,o),
(522,671,o),
(522,613,cs),
(522,548,o),
(452,482,o),
(360,456,c),
(337,462,o),
(306,464,o),
(281,464,cs),
(242,464,o),
(203,462,o),
(158,454,cs),
(122,448,o),
(100,435,o),
(100,410,cs),
(100,386,o),
(119,375,o),
(140,371,cs),
(184,364,o),
(211,362,o),
(244,362,cs),
(288,362,o),
(329,367,o),
(366,377,c),
(475,363,o),
(541,308,o),
(541,231,cs),
(541,139,o),
(436,54,o),
(296,54,cs),
(234,54,o),
(184,60,o),
(134,66,cs),
(119,67,o),
(94,55,o),
(94,28,cs),
(94,7,o),
(110,-12,o),
(134,-15,cs),
(188,-22,o),
(243,-25,o),
(297,-24,cs),
(508,-17,o),
(623,108,o),
(623,231,cs),
(623,308,o),
(565,397,o),
(466,427,c),
(560,472,o),
(603,549,o),
(603,616,cs),
(603,704,o),
(528,794,o),
(358,797,cs),
(297,798,o),
(236,788,o),
(176,774,cs),
(156,768,o),
(147,753,o),
(147,737,cs),
(147,708,o),
(170,691,o),
(198,699,cs)
);
},
{
closed = 1;
nodes = (
(122,560,o),
(111,388,o),
(111,210,cs),
(111,155,o),
(111,101,o),
(113,47,cs),
(113,21,o),
(134,8,o),
(154,8,cs),
(174,8,o),
(195,21,o),
(194,47,cs),
(192,102,o),
(192,156,o),
(192,211,cs),
(192,430,o),
(204,608,o),
(217,728,cs),
(221,760,o),
(207,783,o),
(178,783,cs),
(157,783,o),
(139,767,o),
(137,743,cs)
);
}
);
width = 678;
},
{
anchors = (
{
name = bottom;
pos = (302,-12);
},
{
name = center;
pos = (343,382);
},
{
name = top;
pos = (356,783);
}
);
layerId = m002;
shapes = (
{
closed = 1;
nodes = (
(246,712,o),
(302,719,o),
(346,719,cs),
(459,719,o),
(522,671,o),
(522,613,cs),
(522,548,o),
(452,482,o),
(360,456,c),
(337,462,o),
(306,464,o),
(281,464,cs),
(242,464,o),
(203,462,o),
(158,454,cs),
(122,448,o),
(100,435,o),
(100,410,cs),
(100,386,o),
(119,375,o),
(140,371,cs),
(184,364,o),
(211,362,o),
(244,362,cs),
(288,362,o),
(329,367,o),
(366,377,c),
(475,363,o),
(541,308,o),
(541,231,cs),
(541,139,o),
(436,54,o),
(296,54,cs),
(234,54,o),
(184,60,o),
(134,66,cs),
(119,67,o),
(94,55,o),
(94,28,cs),
(94,7,o),
(110,-12,o),
(134,-15,cs),
(188,-22,o),
(243,-25,o),
(297,-24,cs),
(508,-17,o),
(623,108,o),
(623,231,cs),
(623,308,o),
(565,397,o),
(466,427,c),
(560,472,o),
(603,549,o),
(603,616,cs),
(603,704,o),
(528,794,o),
(358,797,cs),
(297,798,o),
(236,788,o),
(176,774,cs),
(156,768,o),
(147,753,o),
(147,737,cs),
(147,708,o),
(170,691,o),
(198,699,cs)
);
},
{
closed = 1;
nodes = (
(122,560,o),
(111,388,o),
(111,210,cs),
(111,155,o),
(111,101,o),
(113,47,cs),
(113,21,o),
(134,8,o),
(154,8,cs),
(174,8,o),
(195,21,o),
(194,47,cs),
(192,102,o),
(192,156,o),
(192,211,cs),
(192,430,o),
(204,608,o),
(217,728,cs),
(221,760,o),
(207,783,o),
(178,783,cs),
(157,783,o),
(139,767,o),
(137,743,cs)
);
}
);
width = 678;
},
{
anchors = (
{
name = bottom;
pos = (349,0);
},
{
name = center;
pos = (362,382);
},
{
name = top;
pos = (375,764);
}
);
layerId = m003;
shapes = (
{
closed = 1;
nodes = (
(265,652,o),
(321,659,o),
(365,659,cs),
(448,659,o),
(495,647,o),
(495,597,cs),
(495,548,o),
(471,507,o),
(379,481,c),
(356,487,o),
(321,496,o),
(296,496,cs),
(257,496,o),
(192,492,o),
(147,484,cs),
(111,478,o),
(65,455,o),
(65,400,cs),
(65,346,o),
(108,335,o),
(129,331,cs),
(173,324,o),
(230,320,o),
(263,320,cs),
(302,320,o),
(348,336,o),
(385,346,c),
(472,335,o),
(502,308,o),
(502,245,cs),
(502,180,o),
(455,134,o),
(315,134,cs),
(253,134,o),
(183,140,o),
(133,146,cs),
(104,149,o),
(73,106,o),
(76,60,cs),
(79,7,o),
(118,-10,o),
(153,-15,cs),
(207,-22,o),
(262,-25,o),
(316,-24,cs),
(581,-17,o),
(696,108,o),
(696,231,cs),
(696,308,o),
(638,397,o),
(525,427,c),
(633,472,o),
(676,549,o),
(676,616,cs),
(676,704,o),
(601,794,o),
(377,797,cs),
(316,798,o),
(255,788,o),
(195,774,cs),
(175,768,o),
(166,753,o),
(166,737,cs),
(166,708,o),
(189,631,o),
(217,639,cs)
);
},
{
closed = 1;
nodes = (
(107,560,o),
(96,388,o),
(96,210,cs),
(96,155,o),
(96,101,o),
(98,47,cs),
(98,21,o),
(153,8,o),
(173,8,cs),
(193,8,o),
(284,21,o),
(283,47,cs),
(281,102,o),
(281,156,o),
(281,211,cs),
(281,430,o),
(293,608,o),
(304,709,cs),
(310,760,o),
(226,783,o),
(197,783,cs),
(148,783,o),
(124,767,o),
(121,736,cs)
);
}
);
userData = {
com.hugojourdan.ColorFlow = {
"0" = 0;
"1" = 0;
"10" = 0;
"11" = 0;
"2" = 0;
"3" = 0;
"4" = 0;
"5" = 0;
"6" = 0;
"7" = 0;
"8" = 0;
"9" = 0;
};
};
width = 737;
}
);
metricLeft = B;
metricRight = B;
},
{
glyphname = B.alt4;
lastChange = "2023-02-02 18:01:24 +0000";
layers = (
{
anchors = (
{
name = bottom;
pos = (323,0);
},
{
name = center;
pos = (336,382);
},
{
name = top;
pos = (349,764);
}
);
layerId = m01;
shapes = (
{
closed = 1;
nodes = (
(228,693,o),
(303,707,o),
(363,707,cs),
(471,707,o),
(540,669,o),
(540,610,cs),
(540,514,o),
(443,443,o),
(185,414,cs),
(153,410,o),
(141,389,o),
(141,371,cs),
(141,339,o),
(168,328,o),
(197,333,cs),
(261,346,o),
(321,357,o),
(365,357,cs),
(474,357,o),
(528,306,o),
(528,238,cs),
(528,110,o),
(401,50,o),
(236,50,cs),
(202,50,o),
(167,52,o),
(133,55,cs),
(112,56,o),
(96,40,o),
(96,18,cs),
(96,-2,o),
(107,-14,o),
(136,-21,cs),
(160,-26,o),
(192,-28,o),
(230,-28,cs),
(400,-28,o),
(609,33,o),
(609,233,cs),
(609,330,o),
(553,384,o),
(474,411,c),
(571,452,o),
(621,534,o),
(621,610,cs),
(621,725,o),
(496,790,o),
(366,785,cs),
(297,785,o),
(230,771,o),
(162,758,cs),
(138,753,o),
(111,739,o),
(111,717,cs),
(111,691,o),
(136,671,o),
(162,677,cs)
);
},
{
closed = 1;
nodes = (
(133,490,o),
(127,270,o),
(127,41,cs),
(127,20,o),
(146,0,o),
(168,1,cs),
(190,2,o),
(208,19,o),
(208,41,cs),
(208,270,o),
(214,490,o),
(224,717,cs),
(225,745,o),
(205,758,o),
(184,758,cs),
(164,758,o),
(144,745,o),
(143,717,cs)
);
}
);
width = 664;
},
{
anchors = (
{
name = bottom;
pos = (285,-12);
},
{
name = center;
pos = (336,382);
},
{
name = top;
pos = (372,777);
}
);
layerId = m002;
shapes = (
{
closed = 1;
nodes = (
(228,693,o),
(303,707,o),
(363,707,cs),
(471,707,o),
(540,669,o),
(540,610,cs),
(540,514,o),
(443,443,o),
(185,414,cs),
(153,410,o),
(141,389,o),
(141,371,cs),
(141,339,o),
(168,328,o),
(197,333,cs),
(261,346,o),
(321,357,o),
(365,357,cs),
(474,357,o),
(528,306,o),
(528,238,cs),
(528,110,o),
(401,50,o),
(236,50,cs),
(202,50,o),
(167,52,o),
(133,55,cs),
(112,56,o),
(96,40,o),
(96,18,cs),
(96,-2,o),
(107,-14,o),
(136,-21,cs),
(160,-26,o),
(192,-28,o),
(230,-28,cs),
(400,-28,o),
(609,33,o),
(609,233,cs),
(609,330,o),
(553,384,o),
(474,411,c),
(571,452,o),
(621,534,o),
(621,610,cs),
(621,725,o),
(496,790,o),
(366,785,cs),
(297,785,o),
(230,771,o),
(162,758,cs),
(138,753,o),
(111,739,o),
(111,717,cs),
(111,691,o),
(136,671,o),
(162,677,cs)
);
},
{
closed = 1;
nodes = (
(133,490,o),
(127,270,o),
(127,41,cs),
(127,20,o),
(146,0,o),
(168,1,cs),
(190,2,o),
(208,19,o),
(208,41,cs),
(208,270,o),
(214,490,o),
(224,717,cs),
(225,745,o),
(205,758,o),
(184,758,cs),
(164,758,o),
(144,745,o),
(143,717,cs)
);
}
);
width = 664;
},
{
anchors = (
{
name = bottom;
pos = (330,0);
},
{
name = center;
pos = (343,382);
},
{
name = top;
pos = (356,764);
}
);
layerId = m003;
shapes = (
{
closed = 1;
nodes = (
(236,624,o),
(310,647,o),
(370,647,cs),
(438,647,o),
(497,639,o),
(497,580,cs),
(497,514,o),
(410,471,o),
(192,444,cs),
(160,440,o),
(148,389,o),
(148,371,cs),
(148,339,o),
(175,288,o),
(204,293,cs),
(268,306,o),
(328,317,o),
(372,317,cs),
(441,317,o),
(475,306,o),
(475,238,cs),
(475,144,o),
(368,120,o),
(243,120,cs),
(209,120,o),
(174,124,o),
(140,125,cs),
(85,126,o),
(59,89,o),
(59,58,cs),
(59,19,o),
(79,-12,o),
(128,-20,cs),
(167,-26,o),
(210,-28,o),
(241,-28,cs),
(461,-28,o),
(670,50,o),
(670,233,cs),
(670,330,o),
(614,384,o),
(521,411,c),
(632,452,o),
(682,534,o),
(682,610,cs),
(682,725,o),
(541,785,o),
(373,785,cs),
(318,785,o),
(237,774,o),
(182,763,cs),
(123,751,o),
(74,732,o),
(74,680,cs),
(74,630,o),
(109,611,o),
(169,617,cs)
);
},
{
closed = 1;
nodes = (
(106,490,o),
(100,270,o),
(100,41,cs),
(100,20,o),
(153,0,o),
(175,1,cs),
(197,2,o),
(285,19,o),
(285,41,cs),
(285,270,o),
(291,490,o),
(300,700,cs),
(302,745,o),
(247,758,o),
(204,758,cs),
(156,758,o),
(117,737,o),
(115,700,cs)
);
}
);
userData = {
com.hugojourdan.ColorFlow = {
"0" = 0;
"1" = 0;
"10" = 0;
"11" = 0;
"2" = 0;
"3" = 0;
"4" = 0;
"5" = 0;
"6" = 0;
"7" = 0;
"8" = 0;
"9" = 0;
};
};
width = 711;
}
);
metricLeft = B;
metricRight = B;
},
{
glyphname = B.alt5;
lastChange = "2023-02-02 18:01:24 +0000";
layers = (
{
anchors = (
{
name = bottom;
pos = (346,0);
},
{
name = center;
pos = (359,382);
},
{
name = top;
pos = (372,764);
}
);
layerId = m01;
shapes = (
{
closed = 1;
nodes = (
(184,692,o),
(216,694,o),
(249,694,cs),
(410,694,o),
(534,643,o),
(534,576,cs),
(534,509,o),
(484,466,o),
(393,453,c),
(310,454,o),
(275,450,o),
(232,433,cs),
(213,426,o),
(200,409,o),
(200,392,cs),
(200,367,o),
(222,353,o),
(251,359,cs),
(302,370,o),
(350,376,o),
(395,376,cs),
(500,376,o),
(572,320,o),
(572,240,cs),
(572,126,o),
(443,75,o),
(146,72,cs),
(111,72,o),
(90,57,o),
(90,32,cs),
(90,9,o),
(112,-7,o),
(144,-6,cs),
(508,3,o),
(654,74,o),
(654,241,cs),
(654,324,o),
(605,392,o),
(521,426,c),
(580,458,o),
(615,514,o),
(615,576,cs),
(615,696,o),
(468,772,o),
(235,772,cs),
(152,772,o),
(108,755,o),
(111,724,cs),
(111,703,o),
(130,687,o),
(152,688,cs)
);
},
{
closed = 1;
nodes = (
(151,482,o),
(147,261,o),
(129,41,cs),
(128,15,o),
(149,2,o),
(169,2,cs),
(190,2,o),
(208,15,o),
(210,41,cs),
(223,262,o),
(232,482,o),
(245,703,cs),
(247,729,o),
(225,742,o),
(205,742,cs),
(184,742,o),
(166,729,o),
(164,703,cs)
);
}
);
width = 709;
},
{
anchors = (
{
name = bottom;
pos = (346,15);
},
{
name = center;
pos = (359,382);
},
{
name = top;
pos = (384,746);
}
);
layerId = m002;
shapes = (
{
closed = 1;
nodes = (
(184,692,o),
(216,694,o),
(249,694,cs),
(410,694,o),
(534,643,o),
(534,576,cs),
(534,509,o),
(484,466,o),
(393,453,c),
(310,454,o),
(275,450,o),
(232,433,cs),
(213,426,o),
(200,409,o),
(200,392,cs),
(200,367,o),
(222,353,o),
(251,359,cs),
(302,370,o),
(350,376,o),
(395,376,cs),
(500,376,o),
(572,320,o),
(572,240,cs),
(572,126,o),
(443,75,o),
(146,72,cs),
(111,72,o),
(90,57,o),
(90,32,cs),
(90,9,o),
(112,-7,o),
(144,-6,cs),
(508,3,o),
(654,74,o),
(654,241,cs),
(654,324,o),
(605,392,o),
(521,426,c),
(580,458,o),
(615,514,o),
(615,576,cs),
(615,696,o),
(468,772,o),
(235,772,cs),
(152,772,o),
(108,755,o),
(111,724,cs),
(111,703,o),
(130,687,o),
(152,688,cs)
);
},
{
closed = 1;
nodes = (
(151,482,o),
(147,261,o),
(129,41,cs),
(128,15,o),
(149,2,o),
(169,2,cs),
(190,2,o),
(208,15,o),
(210,41,cs),
(223,262,o),
(232,482,o),
(245,703,cs),
(247,729,o),
(225,742,o),
(205,742,cs),
(184,742,o),
(166,729,o),
(164,703,cs)
);
}
);
width = 709;
},
{
anchors = (
{
name = bottom;
pos = (360,0);
},
{
name = center;
pos = (373,382);
},
{
name = top;
pos = (386,764);
}
);
layerId = m003;
shapes = (
{
closed = 1;
nodes = (
(164,629,o),
(230,634,o),
(263,634,cs),
(424,634,o),
(503,609,o),
(503,555,cs),
(503,509,o),
(468,492,o),
(407,483,c),
(341,491,o),
(284,479,o),
(246,458,cs),
(228,448,o),
(204,437,o),
(204,392,cs),
(204,339,o),
(281,306,o),
(340,326,cs),
(364,334,o),
(388,339,o),
(409,339,cs),
(484,339,o),
(526,305,o),
(526,248,cs),
(526,166,o),
(423,142,o),
(126,142,cs),
(81,142,o),
(60,121,o),
(60,73,cs),
(60,21,o),
(103,-5,o),
(204,-5,cs),
(555,-5,o),
(722,74,o),
(722,241,cs),
(722,324,o),
(673,392,o),
(575,426,c),
(648,458,o),
(683,514,o),
(683,576,cs),
(683,696,o),
(536,772,o),
(249,772,cs),
(132,772,o),
(68,755,o),
(75,685,cs),
(77,663,o),
(90,627,o),
(132,628,cs)
);
},
{
closed = 1;
nodes = (
(131,482,o),
(127,261,o),
(112,61,cs),
(109,26,o),
(144,2,o),
(183,2,cs),
(249,2,o),
(292,15,o),
(295,64,cs),
(307,262,o),
(316,482,o),
(328,685,cs),
(331,729,o),
(278,742,o),
(232,742,cs),
(178,742,o),
(146,729,o),
(144,703,cs)
);
}
);
userData = {
com.hugojourdan.ColorFlow = {
"0" = 0;
"1" = 0;
"10" = 0;
"11" = 0;
"2" = 0;
"3" = 0;
"4" = 0;
"5" = 0;
"6" = 0;
"7" = 0;
"8" = 0;
"9" = 0;
};
};
width = 763;
}
);
metricLeft = B;
metricRight = B;
},
{
glyphname = C;
lastChange = "2023-02-08 10:45:25 +0000";
layers = (
{
anchors = (
{
name = bottom;
pos = (379,0);
},
{
name = top;
pos = (405,764);
}
);
layerId = m01;
name = Regular;
shapes = (
{
closed = 1;
nodes = (
(603,743,o),
(508,780,o),
(410,780,cs),
(206,780,o),
(69,619,o),
(69,367,cs),
(69,120,o),
(185,-22,o),
(389,-22,cs),
(496,-22,o),
(600,22,o),
(670,96,cs),
(692,119,o),
(702,136,o),
(702,152,cs),
(702,174,o),
(687,190,o),
(667,190,cs),
(653,190,o),
(642,185,o),
(632,173,cs),
(573,102,o),
(477,56,o),
(388,56,cs),
(249,56,o),
(151,182,o),
(151,362,cs),
(151,573,o),
(250,702,o),
(402,702,cs),
(491,702,o),
(539,684,o),
(618,629,cs),
(629,622,o),
(638,612,o),
(652,612,cs),
(672,611,o),
(691,631,o),
(691,654,cs),
(691,663,o),
(687,673,o),
(679,679,cs)
);
}
);
width = 775;
},
{
anchors = (
{
name = bottom;
pos = (396,0);
},
{
name = top;
pos = (416,755);
}
);
layerId = m002;
name = Regular;
shapes = (
{
closed = 1;
nodes = (
(603,743,o),
(508,780,o),
(410,780,cs),
(206,780,o),
(69,619,o),
(69,367,cs),
(69,120,o),
(185,-22,o),
(389,-22,cs),
(496,-22,o),
(600,22,o),
(670,96,cs),
(692,119,o),
(702,136,o),
(702,152,cs),
(702,174,o),
(687,190,o),
(667,190,cs),
(653,190,o),
(642,185,o),
(632,173,cs),
(573,102,o),
(477,56,o),
(388,56,cs),
(249,56,o),
(151,182,o),
(151,362,cs),
(151,573,o),
(250,702,o),
(402,702,cs),
(491,702,o),
(539,684,o),
(618,629,cs),
(629,622,o),
(638,612,o),
(652,612,cs),
(672,611,o),
(691,631,o),
(691,654,cs),
(691,663,o),
(687,673,o),
(679,679,cs)
);
}
);
width = 775;
},
{
anchors = (
{
name = bottom;
pos = (381,0);
},
{
name = top;
pos = (408,764);
}
);
layerId = m003;
name = Regular;
shapes = (
{
closed = 1;
nodes = (
(603,760,o),
(508,780,o),
(430,780,cs),
(206,780,o),
(39,619,o),
(39,367,cs),
(39,120,o),
(185,-22,o),
(397,-22,cs),
(496,-22,o),
(603,9,o),
(673,77,cs),
(696,99,o),
(712,123,o),
(712,148,cs),
(712,196,o),
(652,240,o),
(621,240,cs),
(607,240,o),
(597,232,o),
(585,221,cs),
(528,171,o),
(482,146,o),
(408,146,cs),
(283,146,o),
(231,244,o),
(231,376,cs),
(231,544,o),
(317,623,o),
(430,623,cs),
(482,623,o),
(525,608,o),
(587,570,cs),
(598,563,o),
(614,553,o),
(632,553,cs),
(656,553,o),
(707,600,o),
(707,652,cs),
(707,679,o),
(684,697,o),
(676,703,cs)
);
}
);
width = 746;
}
);
unicode = 67;
},
{
glyphname = C.alt1;
lastChange = "2023-02-08 10:45:36 +0000";
layers = (
{
anchors = (
{
name = bottom;
pos = (374,0);
},
{
name = top;
pos = (400,764);
}
);
layerId = m01;
shapes = (
{
closed = 1;
nodes = (
(519,-14,o),
(587,17,o),
(641,63,cs),
(683,99,o),
(691,117,o),
(691,136,cs),
(691,158,o),
(675,174,o),
(655,174,cs),
(645,174,o),
(629,170,o),
(614,152,cs),
(565,93,o),
(496,64,o),
(427,64,cs),
(230,64,o),
(151,240,o),
(151,368,cs),
(151,535,o),
(282,694,o),
(437,694,cs),
(498,694,o),
(554,669,o),
(606,622,cs),
(614,614,o),
(624,610,o),
(633,610,cs),
(655,610,o),
(675,630,o),
(675,652,cs),
(675,661,o),
(672,670,o),
(663,679,cs),
(593,744,o),
(517,772,o),
(443,772,cs),
(248,772,o),
(69,580,o),
(69,369,cs),
(69,150,o),
(219,-14,o),
(431,-14,cs)
);
}
);
width = 765;
},
{
anchors = (
{
name = bottom;
pos = (451,4);
},
{
name = top;
pos = (425,752);
}
);
layerId = m002;
shapes = (
{
closed = 1;
nodes = (
(519,-14,o),
(587,17,o),
(641,63,cs),
(683,99,o),
(691,117,o),
(691,136,cs),
(691,158,o),
(675,174,o),
(655,174,cs),
(645,174,o),
(629,170,o),
(614,152,cs),
(565,93,o),
(496,64,o),
(427,64,cs),
(230,64,o),
(151,240,o),
(151,368,cs),
(151,535,o),
(282,694,o),
(437,694,cs),
(498,694,o),
(554,669,o),
(606,622,cs),
(614,614,o),
(624,610,o),
(633,610,cs),
(655,610,o),
(675,630,o),
(675,652,cs),
(675,661,o),
(672,670,o),
(663,679,cs),
(593,744,o),
(517,772,o),
(443,772,cs),
(248,772,o),
(69,580,o),
(69,369,cs),
(69,150,o),
(219,-14,o),
(431,-14,cs)
);
}
);
width = 765;
},
{
anchors = (
{
name = bottom;
pos = (424,0);
},
{
name = top;
pos = (431,768);
}
);
layerId = m003;
shapes = (
{
closed = 1;
nodes = (
(523,-14,o),
(607,17,o),
(661,63,cs),
(703,99,o),
(711,117,o),
(711,141,cs),
(711,175,o),
(680,234,o),
(634,234,cs),
(617,234,o),
(605,232,o),
(585,212,cs),
(544,171,o),
(484,154,o),
(427,154,cs),
(310,154,o),
(231,240,o),
(231,368,cs),
(231,535,o),
(362,614,o),
(443,614,cs),
(501,614,o),
(539,600,o),
(596,559,cs),
(609,549,o),
(623,546,o),
(631,546,cs),
(662,546,o),
(705,602,o),
(705,643,cs),
(705,660,o),
(702,673,o),
(687,686,cs),
(613,748,o),
(530,772,o),
(443,772,cs),
(218,772,o),
(39,580,o),
(39,369,cs),
(39,150,o),
(189,-14,o),
(431,-14,cs)
);
}
);
userData = {
com.hugojourdan.ColorFlow = {
"0" = 0;
"1" = 0;
"10" = 0;
"11" = 0;
"2" = 0;
"3" = 0;
"4" = 0;
"5" = 0;
"6" = 0;
"7" = 0;
"8" = 0;
"9" = 0;
};
};
width = 745;
}
);
metricLeft = C;
metricRight = C;
},
{
glyphname = C.alt2;
lastChange = "2023-02-08 10:45:47 +0000";
layers = (
{
anchors = (
{
name = bottom;
pos = (378,0);
},
{
name = top;
pos = (404,764);
}
);
layerId = m01;
shapes = (
{
closed = 1;
nodes = (
(615,741,o),
(531,769,o),
(446,769,cs),
(276,769,o),
(68,664,o),
(68,345,cs),
(68,101,o),
(221,-20,o),
(415,-20,cs),
(507,-20,o),
(600,12,o),
(666,81,cs),
(688,104,o),
(700,121,o),
(700,139,cs),
(700,161,o),
(685,177,o),
(664,177,cs),
(654,177,o),
(642,176,o),
(633,165,cs),
(591,111,o),
(515,58,o),
(411,58,cs),
(262,58,o),
(150,151,o),
(150,345,cs),
(150,579,o),
(273,691,o),
(449,691,cs),
(546,691,o),
(604,639,o),
(622,623,cs),
(630,615,o),
(640,611,o),
(649,611,cs),
(671,611,o),
(691,631,o),
(691,653,cs),
(691,662,o),
(688,671,o),
(679,680,cs)
);
}
);
width = 774;
},
{
anchors = (
{
name = bottom;
pos = (394,0);
},
{
name = top;
pos = (415,750);
}
);
layerId = m002;
shapes = (
{
closed = 1;
nodes = (
(615,741,o),
(531,769,o),
(446,769,cs),
(276,769,o),
(68,664,o),
(68,345,cs),
(68,101,o),
(221,-20,o),
(415,-20,cs),
(507,-20,o),
(600,12,o),
(666,81,cs),
(688,104,o),
(700,121,o),
(700,139,cs),
(700,161,o),
(685,177,o),
(664,177,cs),
(654,177,o),
(642,176,o),
(633,165,cs),
(591,111,o),
(515,58,o),
(411,58,cs),
(262,58,o),
(150,151,o),
(150,345,cs),
(150,579,o),
(273,691,o),
(449,691,cs),
(546,691,o),
(604,639,o),
(622,623,cs),
(630,615,o),
(640,611,o),
(649,611,cs),
(671,611,o),
(691,631,o),
(691,653,cs),
(691,662,o),
(688,671,o),
(679,680,cs)
);
}
);
width = 774;
},
{
anchors = (
{
name = bottom;
pos = (398,-4);
},
{
name = top;
pos = (424,754);
}
);
layerId = m003;
shapes = (
{
closed = 1;
nodes = (
(632,737,o),
(531,769,o),
(446,769,cs),
(246,769,o),
(38,664,o),
(38,345,cs),
(38,118,o),
(191,-20,o),
(415,-20,cs),
(516,-20,o),
(598,5,o),
(677,64,cs),
(702,83,o),
(720,110,o),
(720,135,cs),
(720,183,o),
(660,227,o),
(632,227,cs),
(615,227,o),
(605,219,o),
(586,201,cs),
(547,166,o),
(491,148,o),
(421,148,cs),
(332,148,o),
(220,201,o),
(220,345,cs),
(220,529,o),
(343,611,o),
(449,611,cs),
(536,611,o),
(574,587,o),
(603,566,cs),
(610,560,o),
(619,553,o),
(632,553,cs),
(664,553,o),
(711,600,o),
(711,651,cs),
(711,672,o),
(691,689,o),
(680,698,cs)
);
}
);
userData = {
com.hugojourdan.ColorFlow = {
"0" = 0;
"1" = 0;
"10" = 0;
"11" = 0;
"2" = 0;
"3" = 0;
"4" = 0;
"5" = 0;
"6" = 0;
"7" = 0;
"8" = 0;
"9" = 0;
};
};
width = 755;
}
);
metricLeft = C;
metricRight = C;
},
{
glyphname = C.alt3;
lastChange = "2023-02-08 10:45:54 +0000";
layers = (
{
anchors = (
{
name = bottom;
pos = (376,0);
},
{
name = top;
pos = (402,764);
}
);
layerId = m01;
shapes = (
{
closed = 1;
nodes = (
(624,735,o),
(536,771,o),
(447,771,cs),
(230,771,o),
(69,594,o),
(69,365,cs),
(69,167,o),
(193,-20,o),
(387,-20,cs),
(504,-20,o),
(625,39,o),
(690,130,cs),
(695,137,o),
(696,145,o),
(696,152,cs),
(696,174,o),
(676,190,o),
(654,190,cs),
(640,190,o),
(631,183,o),
(618,166,cs),
(570,103,o),
(475,58,o),
(388,58,cs),
(240,58,o),
(150,215,o),
(150,379,cs),
(150,605,o),
(327,693,o),
(449,693,cs),
(524,693,o),
(588,655,o),
(626,609,cs),
(634,600,o),
(644,597,o),
(653,597,cs),
(675,597,o),
(695,617,o),
(695,640,cs),
(695,649,o),
(691,658,o),
(683,667,cs)
);
}
);
width = 769;
},
{
anchors = (
{
name = bottom;
pos = (414,-9);
},
{
name = top;
pos = (447,780);
}
);
layerId = m002;
shapes = (
{
closed = 1;
nodes = (
(624,735,o),
(536,771,o),
(447,771,cs),
(230,771,o),
(69,594,o),
(69,365,cs),
(69,167,o),
(193,-20,o),
(387,-20,cs),
(504,-20,o),
(625,39,o),
(690,130,cs),
(695,137,o),
(696,145,o),
(696,152,cs),
(696,174,o),
(676,190,o),
(654,190,cs),
(640,190,o),
(631,183,o),
(618,166,cs),
(570,103,o),
(475,58,o),
(388,58,cs),
(240,58,o),
(150,215,o),
(150,379,cs),
(150,605,o),
(327,693,o),
(449,693,cs),
(524,693,o),
(588,655,o),
(626,609,cs),
(634,600,o),
(644,597,o),
(653,597,cs),
(675,597,o),
(695,617,o),
(695,640,cs),
(695,649,o),
(691,658,o),
(683,667,cs)
);
}
);
width = 769;
},
{
anchors = (
{
name = bottom;
pos = (376,0);
},
{
name = top;
pos = (412,762);
}
);
layerId = m003;
shapes = (
{
closed = 1;
nodes = (
(656,725,o),
(540,771,o),
(422,771,cs),
(200,771,o),
(39,594,o),
(39,365,cs),
(39,167,o),
(163,-20,o),
(387,-20,cs),
(515,-20,o),
(641,39,o),
(705,124,cs),
(716,139,o),
(719,156,o),
(719,168,cs),
(719,212,o),
(669,253,o),
(627,253,cs),
(605,253,o),
(589,242,o),
(573,225,cs),
(523,172,o),
(472,148,o),
(409,148,cs),
(274,148,o),
(230,255,o),
(230,379,cs),
(230,555,o),
(363,613,o),
(442,613,cs),
(493,613,o),
(545,598,o),
(587,556,cs),
(595,549,o),
(611,535,o),
(631,535,cs),
(666,535,o),
(716,580,o),
(716,619,cs),
(716,631,o),
(712,645,o),
(705,656,cs)
);
}
);
userData = {
com.hugojourdan.ColorFlow = {
"0" = 0;
"1" = 0;
"10" = 0;
"11" = 0;
"2" = 0;
"3" = 0;
"4" = 0;
"5" = 0;
"6" = 0;
"7" = 0;
"8" = 0;
"9" = 0;
};
};
width = 753;
}
);
metricLeft = C;
metricRight = C;
},
{
glyphname = C.alt4;
lastChange = "2023-02-08 10:46:03 +0000";
layers = (
{
anchors = (
{
name = bottom;
pos = (368,0);
},
{
name = top;
pos = (394,764);
}
);
layerId = m01;
shapes = (
{
closed = 1;
nodes = (
(588,743,o),
(508,773,o),
(433,773,cs),
(235,773,o),
(68,569,o),
(68,350,cs),
(68,164,o),
(185,-15,o),
(385,-15,cs),
(471,-15,o),
(562,20,o),
(651,97,cs),
(669,112,o),
(681,129,o),
(681,148,cs),
(681,169,o),
(666,184,o),
(645,184,cs),
(635,184,o),
(623,181,o),
(613,171,cs),
(556,114,o),
(473,63,o),
(384,63,cs),
(236,63,o),
(151,198,o),
(151,356,cs),
(151,593,o),
(323,695,o),
(434,695,cs),
(497,695,o),
(569,659,o),
(608,618,cs),
(616,609,o),
(626,606,o),
(635,606,cs),
(657,606,o),
(677,624,o),
(677,646,cs),
(677,655,o),
(673,665,o),
(665,673,cs)
);
}
);
width = 754;
},
{
anchors = (
{
name = bottom;
pos = (396,0);
},
{
name = top;
pos = (429,755);
}
);
layerId = m002;
shapes = (
{
closed = 1;
nodes = (
(588,743,o),
(508,773,o),
(433,773,cs),
(235,773,o),
(68,569,o),
(68,350,cs),
(68,164,o),
(185,-15,o),
(385,-15,cs),
(471,-15,o),
(562,20,o),
(651,97,cs),
(669,112,o),
(681,129,o),
(681,148,cs),
(681,169,o),
(666,184,o),
(645,184,cs),
(635,184,o),
(623,181,o),
(613,171,cs),
(556,114,o),
(473,63,o),
(384,63,cs),
(236,63,o),
(151,198,o),
(151,356,cs),
(151,593,o),
(323,695,o),
(434,695,cs),
(497,695,o),
(569,659,o),
(608,618,cs),
(616,609,o),
(626,606,o),
(635,606,cs),
(657,606,o),
(677,624,o),
(677,646,cs),
(677,655,o),
(673,665,o),
(665,673,cs)
);
}
);
width = 754;
},
{
anchors = (
{
name = bottom;
pos = (378,3);
},
{
name = top;
pos = (434,771);
}
);
layerId = m003;
shapes = (
{
closed = 1;
nodes = (
(606,745,o),
(521,773,o),
(433,773,cs),
(205,773,o),
(38,569,o),
(38,350,cs),
(38,164,o),
(155,-15,o),
(385,-15,cs),
(491,-15,o),
(582,20,o),
(671,97,cs),
(689,112,o),
(701,129,o),
(701,158,cs),
(701,191,o),
(655,253,o),
(614,253,cs),
(604,253,o),
(592,250,o),
(582,240,cs),
(525,183,o),
(470,153,o),
(398,153,cs),
(316,153,o),
(231,198,o),
(231,356,cs),
(231,536,o),
(357,615,o),
(447,615,cs),
(516,615,o),
(555,589,o),
(574,574,cs),
(600,554,o),
(613,545,o),
(629,545,cs),
(663,545,o),
(703,601,o),
(703,641,cs),
(703,653,o),
(700,672,o),
(668,697,cs)
);
}
);
userData = {
com.hugojourdan.ColorFlow = {
"0" = 0;
"1" = 0;
"10" = 0;
"11" = 0;
"2" = 0;
"3" = 0;
"4" = 0;
"5" = 0;
"6" = 0;
"7" = 0;
"8" = 0;
"9" = 0;
};
};
width = 735;
}
);
metricLeft = C;
metricRight = C;
},
{
glyphname = D;
lastChange = "2023-02-08 10:46:18 +0000";
layers = (
{
anchors = (
{
name = bottom;
pos = (321,0);
},
{
name = center;
pos = (201,392);
},
{
name = top;
pos = (365,764);
}
);
layerId = m01;
shapes = (
{
closed = 1;
nodes = (
(86,-6,o),
(106,-19,o),
(126,-19,cs),
(133,-19,o),
(143,-17,o),
(151,-12,c),
(196,-21,o),
(239,-25,o),
(279,-25,cs),
(568,-25,o),
(721,189,o),
(721,394,cs),
(721,583,o),
(592,764,o),
(321,764,cs),
(271,764,o),
(216,757,o),
(156,744,cs),
(138,740,o),
(126,722,o),
(126,705,cs),
(124,616,o),
(119,528,o),
(113,440,cs),
(104,300,o),
(93,160,o),
(86,20,cs)
);
},
{
closed = 1;
nodes = (
(181,267,o),
(198,473,o),
(204,675,c),
(235,681,o),
(292,686,o),
(334,686,cs),
(473,686,o),
(642,600,o),
(642,397,cs),
(642,181,o),
(472,53,o),
(279,53,cs),
(253,53,o),
(192,58,o),
(169,65,c)
);
}
);
width = 786;
},
{
anchors = (
{
name = bottom;
pos = (321,0);
},
{
name = center;
pos = (201,392);
},
{
name = top;
pos = (365,764);
}
);
layerId = m002;
shapes = (
{
closed = 1;
nodes = (
(86,-6,o),
(106,-19,o),
(126,-19,cs),
(133,-19,o),
(143,-17,o),
(151,-12,c),
(196,-21,o),
(239,-25,o),
(279,-25,cs),
(568,-25,o),
(721,189,o),
(721,394,cs),
(721,583,o),
(592,764,o),
(321,764,cs),
(271,764,o),
(216,757,o),
(156,744,cs),
(138,740,o),
(126,722,o),
(126,705,cs),
(124,616,o),
(119,528,o),
(113,440,cs),
(104,300,o),
(93,160,o),
(86,20,cs)
);
},
{
closed = 1;
nodes = (
(181,267,o),
(198,473,o),
(204,675,c),
(235,681,o),
(292,686,o),
(334,686,cs),
(473,686,o),
(642,600,o),
(642,397,cs),
(642,181,o),
(472,53,o),
(279,53,cs),
(253,53,o),
(192,58,o),
(169,65,c)
);
}
);
width = 786;
},
{
anchors = (
{
name = bottom;
pos = (364,0);
},
{
name = center;
pos = (205,382);
},
{
name = top;
pos = (383,764);
}
);
layerId = m003;
shapes = (
{
closed = 1;
nodes = (
(50,-6,o),
(86,-19,o),
(129,-19,cs),
(163,-19,o),
(186,-13,o),
(210,-3,c),
(244,-16,o),
(285,-25,o),
(333,-25,cs),
(594,-25,o),
(756,189,o),
(755,394,cs),
(754,595,o),
(618,766,o),
(347,766,cs),
(297,766,o),
(180,759,o),
(137,750,cs),
(102,742,o),
(90,722,o),
(89,694,cs),
(88,616,o),
(83,528,o),
(77,440,cs),
(68,300,o),
(57,160,o),
(52,35,cs)
);
},
{
closed = 1;
nodes = (
(251,351,o),
(260,396,o),
(266,598,c),
(297,604,o),
(327,609,o),
(364,609,cs),
(444,609,o),
(556,556,o),
(556,396,cs),
(556,213,o),
(421,137,o),
(327,137,cs),
(289,137,o),
(262,142,o),
(239,149,c)
);
}
);
width = 796;
}
);
unicode = 68;
},
{
glyphname = D.alt1;
lastChange = "2023-02-08 10:46:35 +0000";
layers = (
{
anchors = (
{
name = bottom;
pos = (406,0);
},
{
name = center;
pos = (419,382);
},
{
name = top;
pos = (432,764);
}
);
layerId = m01;
shapes = (
{
closed = 1;
nodes = (
(111,688,o),
(125,669,o),
(151,670,c),
(143,548,o),
(161,303,o),
(161,184,cs),
(161,153,o),
(160,122,o),
(158,87,c),
(148,89,o),
(138,91,o),
(128,92,cs),
(99,94,o),
(88,76,o),
(88,56,cs),
(88,38,o),
(97,19,o),
(123,14,cs),
(163,6,o),
(215,-1,o),
(266,-1,cs),
(500,-1,o),
(750,117,o),
(765,371,cs),
(772,647,o),
(628,764,o),
(352,764,cs),
(306,764,o),
(260,761,o),
(170,751,cs),
(134,748,o),
(111,740,o),
(111,709,cs)
);
},
{
closed = 1;
nodes = (
(242,427,o),
(222,443,o),
(234,681,c),
(270,684,o),
(305,686,o),
(340,686,cs),
(563,686,o),
(685,612,o),
(685,396,cs),
(685,169,o),
(456,68,o),
(239,78,c),
(241,117,o),
(242,152,o),
(242,188,cs)
);
}
);
width = 830;
},
{
anchors = (
{
name = bottom;
pos = (406,0);
},
{
name = center;
pos = (241,402);
},
{
name = top;
pos = (368,753);
}
);
layerId = m002;
shapes = (
{
closed = 1;
nodes = (
(111,688,o),
(125,669,o),
(151,670,c),
(143,548,o),
(161,303,o),
(161,184,cs),
(161,153,o),
(160,122,o),
(158,87,c),
(148,89,o),
(138,91,o),
(128,92,cs),
(99,94,o),
(88,76,o),
(88,56,cs),
(88,38,o),
(97,19,o),
(123,14,cs),
(163,6,o),
(215,-1,o),
(266,-1,cs),
(500,-1,o),
(750,117,o),
(765,371,cs),
(772,647,o),
(628,764,o),
(352,764,cs),
(306,764,o),
(260,761,o),
(170,751,cs),
(134,748,o),
(111,740,o),
(111,709,cs)
);
},
{
closed = 1;
nodes = (
(242,427,o),
(222,443,o),
(234,681,c),
(270,684,o),
(305,686,o),
(340,686,cs),
(563,686,o),
(685,612,o),
(685,396,cs),
(685,169,o),
(456,68,o),
(239,78,c),
(241,117,o),
(242,152,o),
(242,188,cs)
);
}
);
width = 830;
},
{
anchors = (
{
name = bottom;
pos = (415,4);
},
{
name = center;
pos = (245,382);
},
{
name = top;
pos = (406,766);
}
);
background = {
shapes = (
{
closed = 1;
nodes = (
(109,-6,o),
(145,-19,o),
(188,-19,cs),
(222,-19,o),
(245,-13,o),
(269,-3,c),
(303,-16,o),
(344,-25,o),
(392,-25,cs),
(653,-25,o),
(815,189,o),
(814,394,cs),
(813,595,o),
(677,766,o),
(406,766,cs),
(356,766,o),
(239,759,o),
(196,750,cs),
(161,742,o),
(149,722,o),
(148,694,cs),
(147,616,o),
(142,528,o),
(136,440,cs),
(127,300,o),
(116,160,o),
(111,35,cs)
);
},
{
closed = 1;
nodes = (
(310,351,o),
(319,396,o),
(325,598,c),
(356,604,o),
(386,609,o),
(423,609,cs),
(503,609,o),
(615,556,o),
(615,396,cs),
(615,213,o),
(480,137,o),
(386,137,cs),
(348,137,o),
(321,142,o),
(298,149,c)
);
}
);
};
layerId = m003;
shapes = (
{
closed = 1;
nodes = (
(80,618,o),
(98,587,o),
(130,590,c),
(122,506,o),
(140,336,o),
(140,254,cs),
(140,223,o),
(139,192,o),
(137,157,c),
(127,159,o),
(117,162,o),
(107,162,cs),
(71,162,o),
(54,131,o),
(54,88,cs),
(54,57,o),
(68,21,o),
(122,10,cs),
(142,6,o),
(226,-1,o),
(295,-1,cs),
(533,-1,o),
(789,117,o),
(804,371,cs),
(811,647,o),
(663,764,o),
(381,764,cs),
(335,764,o),
(289,761,o),
(199,751,cs),
(126,745,o),
(80,721,o),
(80,668,cs)
);
},
{
closed = 1;
nodes = (
(321,435,o),
(301,445,o),
(313,601,c),
(339,604,o),
(364,606,o),
(389,606,cs),
(531,606,o),
(609,552,o),
(609,396,cs),
(609,226,o),
(460,151,o),
(318,158,c),
(320,201,o),
(321,239,o),
(321,278,cs)
);
}
);
userData = {
com.hugojourdan.ColorFlow = {
"0" = 0;
"1" = 0;
"10" = 0;
"11" = 0;
"2" = 0;
"3" = 0;
"4" = 0;
"5" = 0;
"6" = 0;
"7" = 0;
"8" = 0;
"9" = 0;
};
};
width = 845;
}
);
metricLeft = D;
metricRight = D;
},
{
glyphname = D.alt2;
lastChange = "2023-02-08 10:46:57 +0000";
layers = (
{
anchors = (
{
name = bottom;
pos = (385,0);
},
{
name = center;
pos = (398,382);
},
{
name = top;
pos = (411,764);
}
);
layerId = m01;
shapes = (
{
closed = 1;
nodes = (
(111,95,o),
(92,78,o),
(92,55,cs),
(92,37,o),
(108,24,o),
(135,16,cs),
(167,6,o),
(216,3,o),
(305,3,cs),
(550,3,o),
(722,146,o),
(722,391,cs),
(722,624,o),
(547,774,o),
(284,774,cs),
(237,774,o),
(191,769,o),
(147,759,cs),
(120,753,o),
(110,735,o),
(111,710,cs),
(117,471,o),
(128,331,o),
(122,128,cs),
(121,103,o),
(139,87,o),
(160,87,cs),
(179,87,o),
(201,96,o),
(203,128,cs),
(208,238,o),
(196,574,o),
(193,686,c),
(232,691,o),
(261,693,o),
(290,693,cs),
(499,693,o),
(640,586,o),
(640,387,cs),
(640,209,o),
(529,81,o),
(303,81,cs),
(247,81,o),
(195,87,o),
(132,93,cs)
);
}
);
width = 787;
},
{
anchors = (
{
name = bottom;
pos = (350,24);
},
{
name = center;
pos = (221,399);
},
{
name = top;
pos = (304,764);
}
);
layerId = m002;
shapes = (
{
closed = 1;
nodes = (
(111,95,o),
(92,78,o),
(92,55,cs),
(92,37,o),
(108,24,o),
(135,16,cs),
(167,6,o),
(216,3,o),
(305,3,cs),
(550,3,o),
(722,146,o),
(722,391,cs),
(722,624,o),
(547,774,o),
(284,774,cs),
(237,774,o),
(191,769,o),
(147,759,cs),
(120,753,o),
(110,735,o),
(111,710,cs),
(117,471,o),
(128,331,o),
(122,128,cs),
(121,103,o),
(139,87,o),
(160,87,cs),
(179,87,o),
(201,96,o),
(203,128,cs),
(208,238,o),
(196,574,o),
(193,686,c),
(232,691,o),
(261,693,o),
(290,693,cs),
(499,693,o),
(640,586,o),
(640,387,cs),
(640,209,o),
(529,81,o),
(303,81,cs),
(247,81,o),
(195,87,o),
(132,93,cs)
);
}
);
width = 787;
},
{
anchors = (
{
name = bottom;
pos = (387,-4);
},
{
name = center;
pos = (218,394);
},
{
name = top;
pos = (358,768);
}
);
layerId = m003;
shapes = (
{
closed = 1;
nodes = (
(82,176,o),
(54,143,o),
(54,95,cs),
(54,59,o),
(76,28,o),
(117,16,cs),
(149,6,o),
(217,3,o),
(327,3,cs),
(584,3,o),
(764,146,o),
(764,391,cs),
(764,624,o),
(581,774,o),
(306,774,cs),
(259,774,o),
(213,769,o),
(169,759,cs),
(107,745,o),
(82,735,o),
(83,690,cs),
(90,449,o),
(100,423,o),
(95,244,cs),
(93,179,o),
(133,163,o),
(182,163,cs),
(223,163,o),
(273,172,o),
(275,224,cs),
(279,307,o),
(268,499,o),
(265,606,c),
(304,613,o),
(333,613,o),
(372,613,cs),
(494,613,o),
(569,534,o),
(569,387,cs),
(569,256,o),
(488,161,o),
(325,161,cs),
(256,161,o),
(192,166,o),
(134,171,cs)
);
}
);
userData = {
com.hugojourdan.ColorFlow = {
"0" = 0;
"1" = 0;
"10" = 0;
"11" = 0;
"2" = 0;
"3" = 0;
"4" = 0;
"5" = 0;
"6" = 0;
"7" = 0;
"8" = 0;
"9" = 0;
};
};
width = 805;
}
);
metricLeft = D;
metricRight = D;
},
{
glyphname = D.alt3;
lastChange = "2023-02-08 10:47:12 +0000";
layers = (
{
anchors = (
{
name = bottom;
pos = (373,0);
},
{
name = center;
pos = (386,382);
},
{
name = top;
pos = (399,764);
}
);
layerId = m01;
shapes = (
{
closed = 1;
nodes = (
(109,483,o),
(103,248,o),
(91,13,cs),
(90,-13,o),
(111,-26,o),
(131,-26,cs),
(152,-26,o),
(172,-13,o),
(172,13,cs),
(184,248,o),
(190,483,o),
(192,718,cs),
(193,744,o),
(172,757,o),
(152,757,cs),
(132,757,o),
(111,744,o),
(111,718,cs)
);
},
{
closed = 1;
nodes = (
(196,675,o),
(228,677,o),
(260,677,cs),
(530,677,o),
(616,525,o),
(616,366,cs),
(616,195,o),
(501,68,o),
(253,68,cs),
(211,68,o),
(180,71,o),
(139,74,cs),
(124,75,o),
(99,65,o),
(99,38,cs),
(99,17,o),
(115,-1,o),
(139,-4,cs),
(182,-9,o),
(216,-10,o),
(277,-10,cs),
(515,-10,o),
(697,124,o),
(697,367,cs),
(697,578,o),
(557,755,o),
(257,755,cs),
(225,755,o),
(194,754,o),
(164,749,cs),
(138,745,o),
(125,729,o),
(125,708,cs),
(125,688,o),
(138,668,o),
(164,671,cs)
);
}
);
width = 763;
},
{
anchors = (
{
name = bottom;
pos = (343,-20);
},
{
name = center;
pos = (207,397);
},
{
name = top;
pos = (337,754);
}
);
layerId = m002;
shapes = (
{
closed = 1;
nodes = (
(109,483,o),
(103,248,o),
(91,13,cs),
(90,-13,o),
(111,-26,o),
(131,-26,cs),
(152,-26,o),
(172,-13,o),
(172,13,cs),
(184,248,o),
(190,483,o),
(192,718,cs),
(193,744,o),
(172,757,o),
(152,757,cs),
(132,757,o),
(111,744,o),
(111,718,cs)
);
},
{
closed = 1;
nodes = (
(196,675,o),
(228,677,o),
(260,677,cs),
(530,677,o),
(616,525,o),
(616,366,cs),
(616,195,o),
(501,68,o),
(253,68,cs),
(211,68,o),
(180,71,o),
(139,74,cs),
(124,75,o),
(99,65,o),
(99,38,cs),
(99,17,o),
(115,-1,o),
(139,-4,cs),
(182,-9,o),
(216,-10,o),
(277,-10,cs),
(515,-10,o),
(697,124,o),
(697,367,cs),
(697,578,o),
(557,755,o),
(257,755,cs),
(225,755,o),
(194,754,o),
(164,749,cs),
(138,745,o),
(125,729,o),
(125,708,cs),
(125,688,o),
(138,668,o),
(164,671,cs)
);
}
);
width = 763;
},
{
anchors = (
{
name = bottom;
pos = (355,9);
},
{
name = center;
pos = (201,379);
},
{
name = top;
pos = (378,764);
}
);
layerId = m003;
shapes = (
{
closed = 1;
nodes = (
(73,483,o),
(67,248,o),
(57,43,cs),
(54,-21,o),
(100,-36,o),
(145,-36,cs),
(192,-36,o),
(236,-21,o),
(238,33,cs),
(248,248,o),
(254,483,o),
(256,698,cs),
(257,752,o),
(211,767,o),
(166,767,cs),
(122,767,o),
(75,752,o),
(75,698,cs)
);
},
{
closed = 1;
nodes = (
(210,595,o),
(242,597,o),
(274,597,cs),
(472,597,o),
(535,484,o),
(535,366,cs),
(535,241,o),
(450,148,o),
(267,148,cs),
(225,148,o),
(194,151,o),
(173,153,cs),
(138,155,o),
(113,135,o),
(113,78,cs),
(113,38,o),
(129,-1,o),
(173,-6,cs),
(196,-9,o),
(230,-10,o),
(291,-10,cs),
(540,-10,o),
(731,124,o),
(731,367,cs),
(731,578,o),
(585,755,o),
(271,755,cs),
(239,755,o),
(208,754,o),
(198,752,cs),
(152,745,o),
(139,709,o),
(139,668,cs),
(139,626,o),
(152,588,o),
(198,594,cs)
);
}
);
userData = {
com.hugojourdan.ColorFlow = {
"0" = 0;
"1" = 0;
"10" = 0;
"11" = 0;
"2" = 0;
"3" = 0;
"4" = 0;
"5" = 0;
"6" = 0;
"7" = 0;
"8" = 0;
"9" = 0;
};
};
width = 773;
}
);
metricLeft = D;
metricRight = D;
},
{
glyphname = D.alt4;
lastChange = "2023-02-08 10:47:29 +0000";
layers = (
{
anchors = (
{
name = bottom;
pos = (421,0);
},
{
name = center;
pos = (434,382);
},
{
name = top;
pos = (447,764);
}
);
layerId = m01;
shapes = (
{
closed = 1;
nodes = (
(181,681,l),
(167,599,o),
(164,514,o),
(164,432,cs),
(164,334,o),
(170,121,o),
(158,26,cs),
(153,-12,o),
(178,-24,o),
(213,-21,cs),
(250,-18,o),
(300,-17,o),
(364,-17,cs),
(677,-17,o),
(795,232,o),
(795,386,cs),
(795,665,o),
(554,768,o),
(306,768,cs),
(238,768,o),
(195,763,o),
(162,756,cs),
(132,750,o),
(111,743,o),
(111,715,cs),
(111,685,o),
(133,673,o),
(162,678,cs)
);
},
{
closed = 1;
nodes = (
(251,175,o),
(245,310,o),
(245,425,cs),
(245,516,o),
(248,606,o),
(265,688,c),
(280,689,o),
(294,690,o),
(304,690,cs),
(592,690,o),
(715,550,o),
(715,380,cs),
(715,263,o),
(600,61,o),
(376,61,cs),
(342,61,o),
(256,60,o),
(242,58,c)
);
}
);
width = 860;
},
{
anchors = (
{
name = bottom;
pos = (391,-3);
},
{
name = center;
pos = (241,378);
},
{
name = top;
pos = (427,746);
}
);
layerId = m002;
shapes = (
{
closed = 1;
nodes = (
(181,681,l),
(167,599,o),
(164,514,o),
(164,432,cs),
(164,334,o),
(170,121,o),
(158,26,cs),
(153,-12,o),
(178,-24,o),
(213,-21,cs),
(250,-18,o),
(300,-17,o),
(364,-17,cs),
(677,-17,o),
(795,232,o),
(795,386,cs),
(795,665,o),
(554,768,o),
(306,768,cs),
(238,768,o),
(195,763,o),
(162,756,cs),
(132,750,o),
(111,743,o),
(111,715,cs),
(111,685,o),
(133,673,o),
(162,678,cs)
);
},
{
closed = 1;
nodes = (
(251,175,o),
(245,310,o),
(245,425,cs),
(245,516,o),
(248,606,o),
(265,688,c),
(280,689,o),
(294,690,o),
(304,690,cs),
(592,690,o),
(715,550,o),
(715,380,cs),
(715,263,o),
(600,61,o),
(376,61,cs),
(342,61,o),
(256,60,o),
(242,58,c)
);
}
);
width = 860;
},
{
anchors = (
{
name = bottom;
pos = (431,2);
},
{
name = center;
pos = (275,382);
},
{
name = top;
pos = (439,750);
}
);
layerId = m003;
shapes = (
{
closed = 1;
nodes = (
(161,599,l),
(147,543,o),
(144,488,o),
(144,432,cs),
(144,334,o),
(150,121,o),
(143,66,cs),
(133,-12,o),
(176,-27,o),
(243,-21,cs),
(280,-18,o),
(330,-17,o),
(394,-17,cs),
(714,-17,o),
(835,232,o),
(835,386,cs),
(835,665,o),
(619,768,o),
(366,768,cs),
(274,768,o),
(175,763,o),
(142,756,cs),
(103,748,o),
(74,734,o),
(74,679,cs),
(74,615,o),
(104,596,o),
(142,598,cs)
);
},
{
closed = 1;
nodes = (
(331,229,o),
(325,335,o),
(325,425,cs),
(325,487,o),
(328,553,o),
(345,609,c),
(367,612,o),
(391,612,o),
(434,608,cs),
(578,595,o),
(640,506,o),
(640,380,cs),
(640,272,o),
(561,141,o),
(406,141,cs),
(385,141,o),
(331,140,o),
(322,138,c)
);
}
);
userData = {
com.hugojourdan.ColorFlow = {
"0" = 0;
"1" = 0;
"10" = 0;
"11" = 0;
"2" = 0;
"3" = 0;
"4" = 0;
"5" = 0;
"6" = 0;
"7" = 0;
"8" = 0;
"9" = 0;
};
};
width = 876;
}
);
metricLeft = D;
metricRight = D;
},
{
glyphname = D.alt5;
lastChange = "2023-02-08 10:47:48 +0000";
layers = (
{
anchors = (
{
name = bottom;
pos = (379,0);
},
{
name = center;
pos = (392,382);
},
{
name = top;
pos = (405,764);
}
);
layerId = m01;
shapes = (
{
closed = 1;
nodes = (
(118,534,o),
(106,240,o),
(87,33,cs),
(85,12,o),
(102,-6,o),
(124,-6,cs),
(125,-6,ls),
(408,-6,o),
(710,32,o),
(710,398,cs),
(710,634,o),
(501,762,o),
(288,762,cs),
(262,762,o),
(214,759,o),
(178,752,c),
(170,757,o),
(162,759,o),
(153,759,cs),
(133,759,o),
(113,746,o),
(113,720,cs)
);
},
{
closed = 1;
nodes = (
(187,258,o),
(197,502,o),
(195,676,c),
(227,682,o),
(255,684,o),
(284,684,cs),
(488,684,o),
(627,563,o),
(627,394,cs),
(627,161,o),
(493,79,o),
(172,72,c)
);
}
);
width = 775;
},
{
anchors = (
{
name = bottom;
pos = (369,-3);
},
{
name = center;
pos = (211,378);
},
{
name = top;
pos = (312,765);
}
);
layerId = m002;
shapes = (
{
closed = 1;
nodes = (
(118,534,o),
(106,240,o),
(87,33,cs),
(85,12,o),
(102,-6,o),
(124,-6,cs),
(125,-6,ls),
(408,-6,o),
(710,32,o),
(710,398,cs),
(710,634,o),
(501,762,o),
(288,762,cs),
(262,762,o),
(214,759,o),
(178,752,c),
(170,757,o),
(162,759,o),
(153,759,cs),
(133,759,o),
(113,746,o),
(113,720,cs)
);
},
{
closed = 1;
nodes = (
(187,258,o),
(197,502,o),
(195,676,c),
(227,682,o),
(255,684,o),
(284,684,cs),
(488,684,o),
(627,563,o),
(627,394,cs),
(627,161,o),
(493,79,o),
(172,72,c)
);
}
);
width = 775;
},
{
anchors = (
{
name = bottom;
pos = (356,-4);
},
{
name = center;
pos = (200,392);
},
{
name = top;
pos = (374,760);
}
);
layerId = m003;
shapes = (
{
closed = 1;
nodes = (
(81,524,o),
(69,240,o),
(53,63,cs),
(48,12,o),
(85,-6,o),
(137,-6,cs),
(138,-6,ls),
(426,-6,o),
(733,32,o),
(733,398,cs),
(733,634,o),
(549,762,o),
(341,762,cs),
(297,762,o),
(261,759,o),
(241,752,c),
(211,769,o),
(190,772,o),
(156,772,cs),
(111,772,o),
(76,744,o),
(77,680,cs)
);
},
{
closed = 1;
nodes = (
(253,292,o),
(262,475,o),
(260,606,c),
(292,612,o),
(318,614,o),
(347,614,cs),
(460,614,o),
(537,522,o),
(537,394,cs),
(537,219,o),
(450,157,o),
(242,152,c)
);
}
);
userData = {
com.hugojourdan.ColorFlow = {
"0" = 0;
"1" = 0;
"10" = 0;
"11" = 0;
"2" = 0;
"3" = 0;
"4" = 0;
"5" = 0;
"6" = 0;
"7" = 0;
"8" = 0;
"9" = 0;
};
};
width = 774;
}
);
metricLeft = D;
metricRight = D;
},
{
glyphname = E;
lastChange = "2023-02-07 13:18:29 +0000";
layers = (
{
anchors = (
{
name = bottom;
pos = (304,0);
},
{
name = ogonek;
pos = (554,10);
},
{
name = top;
pos = (330,764);
},
{
name = topleft;
pos = (37,764);
}
);
layerId = m01;
shapes = (
{
closed = 1;
nodes = (
(241,-5,o),
(334,2,o),
(428,5,cs),
(455,6,o),
(482,6,o),
(509,6,cs),
(535,6,o),
(548,25,o),
(548,46,cs),
(548,66,o),
(535,84,o),
(509,84,cs),
(417,83,o),
(263,73,o),
(171,67,c),
(178,160,o),
(184,260,o),
(190,354,c),
(293,368,o),
(420,370,o),
(471,367,cs),
(492,367,o),
(513,384,o),
(512,406,cs),
(511,428,o),
(494,445,o),
(471,445,cs),
(409,448,o),
(282,444,o),
(195,433,c),
(200,512,o),
(204,610,o),
(208,689,c),
(303,696,o),
(398,699,o),
(527,699,cs),
(559,699,o),
(571,717,o),
(571,738,cs),
(571,760,o),
(559,777,o),
(527,777,cs),
(387,777,o),
(281,773,o),
(176,765,cs),
(143,763,o),
(131,745,o),
(129,714,cs),
(118,489,o),
(104,250,o),
(87,25,cs),
(86,-13,o),
(126,-16,o),
(148,-15,cs)
);
}
);
width = 626;
},
{
anchors = (
{
name = bottom;
pos = (322,10);
},
{
name = ogonek;
pos = (507,10);
},
{
name = top;
pos = (350,764);
},
{
name = topleft;
pos = (37,764);
}
);
layerId = m002;
shapes = (
{
closed = 1;
nodes = (
(241,-5,o),
(334,2,o),
(428,5,cs),
(455,6,o),
(482,6,o),
(509,6,cs),
(535,6,o),
(548,25,o),
(548,46,cs),
(548,66,o),
(535,84,o),
(509,84,cs),
(417,83,o),
(263,73,o),
(171,67,c),
(178,160,o),
(184,260,o),
(190,354,c),
(293,368,o),
(420,370,o),
(471,367,cs),
(492,367,o),
(513,384,o),
(512,406,cs),
(511,428,o),
(494,445,o),
(471,445,cs),
(409,448,o),
(282,444,o),
(195,433,c),
(200,512,o),
(204,610,o),
(208,689,c),
(303,696,o),
(398,699,o),
(527,699,cs),
(559,699,o),
(571,717,o),
(571,738,cs),
(571,760,o),
(559,777,o),
(527,777,cs),
(387,777,o),
(281,773,o),
(176,765,cs),
(143,763,o),
(131,745,o),
(129,714,cs),
(118,489,o),
(104,250,o),
(87,25,cs),
(86,-13,o),
(126,-16,o),
(148,-15,cs)
);
}
);
width = 626;
},
{
anchors = (
{
name = bottom;
pos = (317,0);
},
{
name = ogonek;
pos = (502,10);
},
{
name = top;
pos = (343,764);
},
{
name = topleft;
pos = (50,764);
}
);
layerId = m003;
shapes = (
{
closed = 1;
nodes = (
(207,-5,o),
(347,2,o),
(441,5,cs),
(468,6,o),
(495,6,o),
(522,6,cs),
(548,6,o),
(567,25,o),
(570,93,cs),
(572,146,o),
(552,164,o),
(519,164,cs),
(434,163,o),
(340,153,o),
(248,147,c),
(253,200,o),
(256,244,o),
(261,304,c),
(364,318,o),
(433,320,o),
(484,317,cs),
(505,317,o),
(534,334,o),
(534,406,cs),
(534,458,o),
(508,475,o),
(485,475,cs),
(423,478,o),
(356,474,o),
(269,463,c),
(274,526,o),
(274,544,o),
(279,609,c),
(374,616,o),
(411,619,o),
(534,619,cs),
(572,619,o),
(592,637,o),
(592,714,cs),
(592,760,o),
(572,777,o),
(529,777,cs),
(400,777,o),
(247,773,o),
(155,766,cs),
(109,763,o),
(97,745,o),
(95,703,cs),
(84,489,o),
(68,250,o),
(52,40,cs),
(48,-13,o),
(92,-16,o),
(114,-15,cs)
);
}
);
width = 622;
}
);
unicode = 69;
},
{
glyphname = E.alt1;
lastChange = "2023-02-08 10:48:31 +0000";
layers = (
{
anchors = (
{
name = bottom;
pos = (309,0);
},
{
name = ogonek;
pos = (563,10);
},
{
name = top;
pos = (335,764);
},
{
name = topleft;
pos = (37,764);
}
);
layerId = m01;
shapes = (
{
closed = 1;
nodes = (
(272,-9,o),
(383,-6,o),
(495,-3,cs),
(516,-3,o),
(536,15,o),
(535,37,cs),
(534,59,o),
(517,75,o),
(495,75,cs),
(387,72,o),
(279,70,o),
(172,69,c),
(173,159,o),
(175,253,o),
(180,343,c),
(265,352,o),
(379,356,o),
(441,353,cs),
(467,353,o),
(480,370,o),
(480,391,cs),
(480,408,o),
(467,431,o),
(441,431,cs),
(379,434,o),
(269,430,o),
(184,421,c),
(188,503,o),
(195,607,o),
(202,689,c),
(319,697,o),
(418,697,o),
(534,694,cs),
(566,693,o),
(581,707,o),
(581,731,cs),
(581,755,o),
(566,770,o),
(534,771,cs),
(418,774,o),
(319,774,o),
(199,766,c),
(192,775,o),
(180,779,o),
(169,779,cs),
(148,779,o),
(128,766,o),
(128,739,c),
(104,507,o),
(91,274,o),
(91,40,cs),
(91,15,o),
(104,-9,o),
(135,-9,cs)
);
}
);
width = 635;
},
{
anchors = (
{
name = bottom;
pos = (301,3);
},
{
name = ogonek;
pos = (563,10);
},
{
name = top;
pos = (355,762);
},
{
name = topleft;
pos = (37,764);
}
);
layerId = m002;
shapes = (
{
closed = 1;
nodes = (
(272,-9,o),
(383,-6,o),
(495,-3,cs),
(516,-3,o),
(536,15,o),
(535,37,cs),
(534,59,o),
(517,75,o),
(495,75,cs),
(387,72,o),
(279,70,o),
(172,69,c),
(173,159,o),
(175,253,o),
(180,343,c),
(265,352,o),
(379,356,o),
(441,353,cs),
(467,353,o),
(480,370,o),
(480,391,cs),
(480,408,o),
(467,431,o),
(441,431,cs),
(379,434,o),
(269,430,o),
(184,421,c),
(188,503,o),
(195,607,o),
(202,689,c),
(319,697,o),
(418,697,o),
(534,694,cs),
(566,693,o),
(581,707,o),
(581,731,cs),
(581,755,o),
(566,770,o),
(534,771,cs),
(418,774,o),
(319,774,o),
(199,766,c),
(192,775,o),
(180,779,o),
(169,779,cs),
(148,779,o),
(128,766,o),
(128,739,c),
(104,507,o),
(91,274,o),
(91,40,cs),
(91,15,o),
(104,-9,o),
(135,-9,cs)
);
}
);
width = 635;
},
{
anchors = (
{
name = bottom;
pos = (292,-3);
},
{
name = ogonek;
pos = (482,10);
},
{
name = top;
pos = (354,770);
},
{
name = topleft;
pos = (52,764);
}
);
layerId = m003;
shapes = (
{
closed = 1;
nodes = (
(287,-9,o),
(398,-6,o),
(490,-4,cs),
(531,-3,o),
(552,38,o),
(550,86,cs),
(548,126,o),
(532,155,o),
(490,154,cs),
(419,152,o),
(327,150,o),
(237,149,c),
(238,200,o),
(242,252,o),
(247,303,c),
(320,312,o),
(416,315,o),
(446,314,cs),
(492,313,o),
(505,349,o),
(505,394,cs),
(505,427,o),
(492,471,o),
(446,472,cs),
(416,473,o),
(326,471,o),
(254,462,c),
(258,507,o),
(260,564,o),
(267,609,c),
(366,617,o),
(450,617,o),
(529,615,cs),
(583,613,o),
(598,644,o),
(598,701,cs),
(598,743,o),
(583,770,o),
(529,771,cs),
(442,774,o),
(353,774,o),
(244,766,c),
(227,777,o),
(199,782,o),
(173,782,cs),
(132,782,o),
(93,768,o),
(93,719,c),
(69,507,o),
(56,274,o),
(56,60,cs),
(56,15,o),
(84,-9,o),
(150,-9,cs)
);
}
);
userData = {
com.hugojourdan.ColorFlow = {
"0" = 0;
"1" = 0;
"10" = 0;
"11" = 0;
"2" = 0;
"3" = 0;
"4" = 0;
"5" = 0;
"6" = 0;
"7" = 0;
"8" = 0;
"9" = 0;
};
};
width = 628;
}
);
metricLeft = E;
metricRight = E;
},
{
glyphname = E.alt2;
lastChange = "2023-02-08 10:48:48 +0000";
layers = (
{
anchors = (
{
name = bottom;
pos = (312,0);
},
{
name = ogonek;
pos = (568,10);
},
{
name = top;
pos = (338,764);
},
{
name = topleft;
pos = (37,764);
}
);
layerId = m01;
shapes = (
{
closed = 1;
nodes = (
(121,511,o),
(102,274,o),
(87,36,cs),
(84,-10,o),
(117,-18,o),
(153,-14,cs),
(245,-3,o),
(338,4,o),
(510,-3,cs),
(536,-4,o),
(549,17,o),
(549,37,cs),
(549,58,o),
(536,76,o),
(510,76,cs),
(416,81,o),
(268,76,o),
(170,67,c),
(177,166,o),
(184,268,o),
(192,368,c),
(278,375,o),
(385,373,o),
(477,363,cs),
(503,360,o),
(518,382,o),
(518,403,cs),
(518,422,o),
(504,436,o),
(476,441,cs),
(410,453,o),
(265,449,o),
(198,445,c),
(220,700,l),
(277,706,o),
(334,709,o),
(390,709,cs),
(429,709,o),
(504,704,o),
(541,700,cs),
(573,697,o),
(587,716,o),
(587,740,cs),
(587,759,o),
(578,774,o),
(540,779,cs),
(510,783,o),
(444,787,o),
(362,787,cs),
(313,787,o),
(251,784,o),
(216,775,c),
(209,782,o),
(199,788,o),
(185,788,cs),
(164,788,o),
(147,775,o),
(144,749,cs)
);
}
);
width = 641;
},
{
anchors = (
{
name = bottom;
pos = (333,10);
},
{
name = ogonek;
pos = (568,10);
},
{
name = top;
pos = (373,777);
},
{
name = topleft;
pos = (37,764);
}
);
layerId = m002;
shapes = (
{
closed = 1;
nodes = (
(121,511,o),
(102,274,o),
(87,36,cs),
(84,-10,o),
(117,-18,o),
(153,-14,cs),
(245,-3,o),
(338,4,o),
(510,-3,cs),
(536,-4,o),
(549,17,o),
(549,37,cs),
(549,58,o),
(536,76,o),
(510,76,cs),
(416,81,o),
(268,76,o),
(170,67,c),
(177,166,o),
(184,268,o),
(192,368,c),
(278,375,o),
(385,373,o),
(477,363,cs),
(503,360,o),
(518,382,o),
(518,403,cs),
(518,422,o),
(504,436,o),
(476,441,cs),
(410,453,o),
(265,449,o),
(198,445,c),
(220,700,l),
(277,706,o),
(334,709,o),
(390,709,cs),
(429,709,o),
(504,704,o),
(541,700,cs),
(573,697,o),
(587,716,o),
(587,740,cs),
(587,759,o),
(578,774,o),
(540,779,cs),
(510,783,o),
(444,787,o),
(362,787,cs),
(313,787,o),
(251,784,o),
(216,775,c),
(209,782,o),
(199,788,o),
(185,788,cs),
(164,788,o),
(147,775,o),
(144,749,cs)
);
}
);
width = 641;
},
{
anchors = (
{
name = bottom;
pos = (317,4);
},
{
name = ogonek;
pos = (500,14);
},
{
name = top;
pos = (368,779);
},
{
name = topleft;
pos = (52,764);
}
);
layerId = m003;
shapes = (
{
closed = 1;
nodes = (
(86,511,o),
(67,274,o),
(53,56,cs),
(49,-10,o),
(105,-21,o),
(168,-14,cs),
(260,-3,o),
(353,4,o),
(505,-2,cs),
(558,-4,o),
(574,37,o),
(574,77,cs),
(574,120,o),
(559,156,o),
(510,158,cs),
(450,160,o),
(324,156,o),
(240,147,c),
(245,207,o),
(250,268,o),
(255,328,c),
(326,335,o),
(414,331,o),
(490,323,cs),
(530,318,o),
(553,361,o),
(553,403,cs),
(553,442,o),
(534,474,o),
(493,481,cs),
(439,491,o),
(320,489,o),
(265,485,c),
(278,620,l),
(318,626,o),
(358,629,o),
(398,629,cs),
(434,629,o),
(504,624,o),
(539,620,cs),
(590,615,o),
(612,651,o),
(612,700,cs),
(612,738,o),
(600,772,o),
(545,779,cs),
(517,783,o),
(454,787,o),
(377,787,cs),
(338,787,o),
(289,784,o),
(261,775,c),
(250,782,o),
(215,791,o),
(180,791,cs),
(133,791,o),
(112,775,o),
(107,729,cs)
);
}
);
userData = {
com.hugojourdan.ColorFlow = {
"0" = 0;
"1" = 0;
"10" = 0;
"11" = 0;
"2" = 0;
"3" = 0;
"4" = 0;
"5" = 0;
"6" = 0;
"7" = 0;
"8" = 0;
"9" = 0;
};
};
width = 642;
}
);
metricLeft = E;
metricRight = E;
},
{
glyphname = E.alt3;
lastChange = "2023-02-08 10:49:11 +0000";
layers = (
{
anchors = (
{
name = bottom;
pos = (296,0);
},
{
name = ogonek;
pos = (540,10);
},
{
name = top;
pos = (322,764);
},
{
name = topleft;
pos = (37,764);
}
);
layerId = m01;
shapes = (
{
closed = 1;
nodes = (
(110,492,o),
(99,254,o),
(86,18,cs),
(85,-8,o),
(106,-21,o),
(126,-21,cs),
(147,-21,o),
(166,-8,o),
(167,18,cs),
(180,254,o),
(191,492,o),
(198,729,cs),
(199,755,o),
(178,768,o),
(158,768,cs),
(138,768,o),
(117,755,o),
(117,729,cs)
);
},
{
closed = 1;
nodes = (
(323,698,o),
(416,696,o),
(509,693,cs),
(541,692,o),
(556,710,o),
(556,734,cs),
(556,759,o),
(541,770,o),
(509,771,cs),
(416,775,o),
(322,777,o),
(173,777,cs),
(142,777,o),
(126,762,o),
(126,738,cs),
(126,713,o),
(142,698,o),
(173,698,cs)
);
},
{
closed = 1;
nodes = (
(263,361,o),
(387,362,o),
(441,360,cs),
(467,360,o),
(480,380,o),
(480,400,cs),
(480,421,o),
(467,438,o),
(441,438,cs),
(387,440,o),
(263,439,o),
(165,429,cs),
(143,428,o),
(124,413,o),
(124,391,cs),
(125,371,o),
(142,349,o),
(165,351,cs)
);
},
{
closed = 1;
nodes = (
(253,-6,o),
(366,-3,o),
(478,-3,cs),
(504,-3,o),
(517,17,o),
(517,38,cs),
(517,58,o),
(504,75,o),
(478,75,cs),
(366,75,o),
(253,72,o),
(141,66,cs),
(120,65,o),
(100,51,o),
(101,28,cs),
(102,7,o),
(119,-13,o),
(141,-12,cs)
);
}
);
width = 610;
},
{
anchors = (
{
name = bottom;
pos = (326,5);
},
{
name = ogonek;
pos = (540,10);
},
{
name = top;
pos = (322,759);
},
{
name = topleft;
pos = (37,764);
}
);
layerId = m002;
shapes = (
{
closed = 1;
nodes = (
(110,492,o),
(99,254,o),
(86,18,cs),
(85,-8,o),
(106,-21,o),
(126,-21,cs),
(147,-21,o),
(166,-8,o),
(167,18,cs),
(180,254,o),
(191,492,o),
(198,729,cs),
(199,755,o),
(178,768,o),
(158,768,cs),
(138,768,o),
(117,755,o),
(117,729,cs)
);
},
{
closed = 1;
nodes = (
(323,698,o),
(416,696,o),
(509,693,cs),
(541,692,o),
(556,710,o),
(556,734,cs),
(556,759,o),
(541,770,o),
(509,771,cs),
(416,775,o),
(322,777,o),
(173,777,cs),
(142,777,o),
(126,762,o),
(126,738,cs),
(126,713,o),
(142,698,o),
(173,698,cs)
);
},
{
closed = 1;
nodes = (
(263,361,o),
(387,362,o),
(441,360,cs),
(467,360,o),
(480,380,o),
(480,400,cs),
(480,421,o),
(467,438,o),
(441,438,cs),
(387,440,o),
(263,439,o),
(165,429,cs),
(143,428,o),
(124,413,o),
(124,391,cs),
(125,371,o),
(142,349,o),
(165,351,cs)
);
},
{
closed = 1;
nodes = (
(253,-6,o),
(366,-3,o),
(478,-3,cs),
(504,-3,o),
(517,17,o),
(517,38,cs),
(517,58,o),
(504,75,o),
(478,75,cs),
(366,75,o),
(253,72,o),
(141,66,cs),
(120,65,o),
(100,51,o),
(101,28,cs),
(102,7,o),
(119,-13,o),
(141,-12,cs)
);
}
);
width = 610;
},
{
anchors = (
{
name = bottom;
pos = (290,0);
},
{
name = ogonek;
pos = (460,4);
},
{
name = top;
pos = (335,768);
},
{
name = topleft;
pos = (51,764);
}
);
layerId = m003;
shapes = (
{
closed = 1;
nodes = (
(74,492,o),
(63,254,o),
(53,58,cs),
(49,-8,o),
(89,-26,o),
(134,-26,cs),
(181,-26,o),
(230,-8,o),
(232,38,cs),
(244,254,o),
(255,492,o),
(262,709,cs),
(263,755,o),
(217,768,o),
(172,768,cs),
(128,768,o),
(81,755,o),
(80,709,cs)
);
},
{
closed = 1;
nodes = (
(304,618,o),
(430,616,o),
(513,613,cs),
(555,612,o),
(570,646,o),
(570,694,cs),
(570,746,o),
(555,770,o),
(503,772,cs),
(430,775,o),
(303,777,o),
(174,777,cs),
(123,777,o),
(107,747,o),
(107,698,cs),
(107,648,o),
(123,618,o),
(174,618,cs)
);
},
{
closed = 1;
nodes = (
(277,321,o),
(401,322,o),
(435,321,cs),
(481,320,o),
(494,360,o),
(494,400,cs),
(494,443,o),
(477,478,o),
(431,479,cs),
(397,480,o),
(277,479,o),
(199,472,cs),
(157,468,o),
(138,436,o),
(138,391,cs),
(140,351,o),
(156,309,o),
(199,313,cs)
);
},
{
closed = 1;
nodes = (
(267,-6,o),
(380,-3,o),
(472,-3,cs),
(518,-3,o),
(531,37,o),
(531,78,cs),
(531,120,o),
(518,155,o),
(472,155,cs),
(380,155,o),
(267,152,o),
(175,147,cs),
(134,145,o),
(113,115,o),
(115,68,cs),
(117,27,o),
(133,-13,o),
(175,-11,cs)
);
}
);
userData = {
com.hugojourdan.ColorFlow = {
"0" = 0;
"1" = 0;
"10" = 0;
"11" = 0;
"2" = 0;
"3" = 0;
"4" = 0;
"5" = 0;
"6" = 0;
"7" = 0;
"8" = 0;
"9" = 0;
};
};
width = 600;
}
);
metricLeft = E;
metricRight = E;
},
{
glyphname = E.alt4;
lastChange = "2023-02-08 10:49:31 +0000";
layers = (
{
anchors = (
{
name = bottom;
pos = (299,0);
},
{
name = ogonek;
pos = (545,10);
},
{
name = top;
pos = (325,764);
},
{
name = topleft;
pos = (37,764);
}
);
layerId = m01;
shapes = (
{
closed = 1;
nodes = (
(103,514,o),
(93,317,o),
(93,42,cs),
(93,21,o),
(112,0,o),
(134,1,cs),
(235,6,o),
(376,8,o),
(492,3,cs),
(520,2,o),
(537,17,o),
(537,44,cs),
(537,67,o),
(520,80,o),
(497,81,cs),
(389,83,o),
(289,85,o),
(174,78,c),
(174,191,o),
(176,278,o),
(179,357,c),
(234,362,o),
(288,364,o),
(343,364,cs),
(374,364,o),
(404,363,o),
(435,362,cs),
(456,361,o),
(476,379,o),
(475,401,cs),
(474,423,o),
(460,438,o),
(435,440,cs),
(404,442,o),
(374,442,o),
(343,442,cs),
(290,442,o),
(236,440,o),
(183,436,c),
(187,515,o),
(194,588,o),
(201,687,c),
(518,687,ls),
(549,687,o),
(561,702,o),
(561,727,cs),
(561,751,o),
(548,765,o),
(517,765,cs),
(178,765,ls),
(149,765,o),
(127,746,o),
(124,715,cs)
);
}
);
width = 615;
},
{
anchors = (
{
name = bottom;
pos = (319,20);
},
{
name = ogonek;
pos = (545,10);
},
{
name = top;
pos = (335,772);
},
{
name = topleft;
pos = (37,764);
}
);
layerId = m002;
shapes = (
{
closed = 1;
nodes = (
(103,514,o),
(93,317,o),
(93,42,cs),
(93,21,o),
(112,0,o),
(134,1,cs),
(235,6,o),
(376,8,o),
(492,3,cs),
(520,2,o),
(537,17,o),
(537,44,cs),
(537,67,o),
(520,80,o),
(497,81,cs),
(389,83,o),
(289,85,o),
(174,78,c),
(174,191,o),
(176,278,o),
(179,357,c),
(234,362,o),
(288,364,o),
(343,364,cs),
(374,364,o),
(404,363,o),
(435,362,cs),
(456,361,o),
(476,379,o),
(475,401,cs),
(474,423,o),
(460,438,o),
(435,440,cs),
(404,442,o),
(374,442,o),
(343,442,cs),
(290,442,o),
(236,440,o),
(183,436,c),
(187,515,o),
(194,588,o),
(201,687,c),
(518,687,ls),
(549,687,o),
(561,702,o),
(561,727,cs),
(561,751,o),
(548,765,o),
(517,765,cs),
(178,765,ls),
(149,765,o),
(127,746,o),
(124,715,cs)
);
}
);
width = 615;
},
{
anchors = (
{
name = bottom;
pos = (309,10);
},
{
name = ogonek;
pos = (486,13);
},
{
name = top;
pos = (340,759);
},
{
name = topleft;
pos = (52,764);
}
);
layerId = m003;
shapes = (
{
closed = 1;
nodes = (
(68,514,o),
(58,317,o),
(58,82,cs),
(58,31,o),
(109,-1,o),
(149,1,cs),
(250,6,o),
(391,8,o),
(487,4,cs),
(542,2,o),
(562,31,o),
(562,84,cs),
(562,132,o),
(542,160,o),
(492,161,cs),
(421,163,o),
(336,165,o),
(239,158,c),
(239,222,o),
(241,272,o),
(243,317,c),
(281,322,o),
(315,324,o),
(353,324,cs),
(384,324,o),
(417,323,o),
(448,322,cs),
(486,320,o),
(510,351,o),
(508,401,cs),
(506,446,o),
(483,477,o),
(450,480,cs),
(419,482,o),
(387,482,o),
(356,482,cs),
(320,482,o),
(286,480,o),
(250,476,c),
(252,517,o),
(257,555,o),
(261,607,c),
(528,607,ls),
(568,607,o),
(584,637,o),
(584,687,cs),
(584,736,o),
(569,765,o),
(532,765,cs),
(193,765,ls),
(137,765,o),
(92,746,o),
(87,695,cs)
);
}
);
userData = {
com.hugojourdan.ColorFlow = {
"0" = 0;
"1" = 0;
"10" = 0;
"11" = 0;
"2" = 0;
"3" = 0;
"4" = 0;
"5" = 0;
"6" = 0;
"7" = 0;
"8" = 0;
"9" = 0;
};
};
width = 615;
}
);
metricLeft = E;
metricRight = E;
},
{
glyphname = E.alt5;
lastChange = "2023-02-08 10:49:43 +0000";
layers = (
{
anchors = (
{
name = bottom;
pos = (295,0);
},
{
name = ogonek;
pos = (537,10);
},
{
name = top;
pos = (321,764);
},
{
name = topleft;
pos = (37,764);
}
);
layerId = m01;
shapes = (
{
closed = 1;
nodes = (
(96,1,o),
(114,-13,o),
(142,-11,cs),
(267,-1,o),
(361,-2,o),
(469,-5,cs),
(496,-5,o),
(509,15,o),
(509,35,cs),
(509,56,o),
(496,73,o),
(469,73,cs),
(373,76,o),
(276,76,o),
(179,70,c),
(185,359,l),
(281,366,o),
(349,366,o),
(441,363,cs),
(467,363,o),
(480,380,o),
(480,401,cs),
(480,421,o),
(467,441,o),
(441,441,cs),
(347,444,o),
(284,444,o),
(187,437,c),
(192,692,l),
(296,693,o),
(402,694,o),
(506,694,cs),
(538,694,o),
(553,709,o),
(553,734,cs),
(553,758,o),
(538,772,o),
(506,772,cs),
(395,772,o),
(284,770,o),
(150,770,cs),
(119,770,o),
(111,753,o),
(111,728,cs),
(111,600,o),
(101,191,o),
(97,27,cs)
);
}
);
width = 607;
},
{
anchors = (
{
name = bottom;
pos = (291,10);
},
{
name = ogonek;
pos = (537,10);
},
{
name = top;
pos = (337,754);
},
{
name = topleft;
pos = (37,764);
}
);
layerId = m002;
shapes = (
{
closed = 1;
nodes = (
(96,1,o),
(114,-13,o),
(142,-11,cs),
(267,-1,o),
(361,-2,o),
(469,-5,cs),
(496,-5,o),
(509,15,o),
(509,35,cs),
(509,56,o),
(496,73,o),
(469,73,cs),
(373,76,o),
(276,76,o),
(179,70,c),
(185,359,l),
(281,366,o),
(349,366,o),
(441,363,cs),
(467,363,o),
(480,380,o),
(480,401,cs),
(480,421,o),
(467,441,o),
(441,441,cs),
(347,444,o),
(284,444,o),
(187,437,c),
(192,692,l),
(296,693,o),
(402,694,o),
(506,694,cs),
(538,694,o),
(553,709,o),
(553,734,cs),
(553,758,o),
(538,772,o),
(506,772,cs),
(395,772,o),
(284,770,o),
(150,770,cs),
(119,770,o),
(111,753,o),
(111,728,cs),
(111,600,o),
(101,191,o),
(97,27,cs)
);
}
);
width = 607;
},
{
anchors = (
{
name = bottom;
pos = (309,0);
},
{
name = ogonek;
pos = (472,6);
},
{
name = top;
pos = (325,768);
},
{
name = topleft;
pos = (51,764);
}
);
layerId = m003;
shapes = (
{
closed = 1;
nodes = (
(60,1,o),
(117,-15,o),
(156,-11,cs),
(281,2,o),
(375,-2,o),
(473,-4,cs),
(517,-5,o),
(533,35,o),
(533,75,cs),
(533,118,o),
(517,153,o),
(473,154,cs),
(404,155,o),
(323,156,o),
(243,150,c),
(249,319,l),
(326,326,o),
(381,325,o),
(455,323,cs),
(494,323,o),
(514,358,o),
(514,401,cs),
(514,441,o),
(494,481,o),
(455,481,cs),
(379,483,o),
(329,484,o),
(251,477,c),
(256,612,l),
(343,613,o),
(433,614,o),
(510,614,cs),
(559,614,o),
(577,644,o),
(577,694,cs),
(577,743,o),
(559,772,o),
(510,772,cs),
(409,772,o),
(298,770,o),
(164,770,cs),
(93,770,o),
(75,753,o),
(75,698,cs),
(75,600,o),
(65,191,o),
(62,77,cs)
);
}
);
userData = {
com.hugojourdan.ColorFlow = {
"0" = 0;
"1" = 0;
"10" = 0;
"11" = 0;
"2" = 0;
"3" = 0;
"4" = 0;
"5" = 0;
"6" = 0;
"7" = 0;
"8" = 0;
"9" = 0;
};
};
width = 607;
}
);
metricLeft = E;
metricRight = E;
},
{
glyphname = E.alt6;
lastChange = "2023-02-08 10:50:04 +0000";
layers = (
{
anchors = (
{
name = bottom;
pos = (293,0);
},
{
name = ogonek;
pos = (535,10);
},
{
name = top;
pos = (319,764);
},
{
name = topleft;
pos = (37,764);
}
);
layerId = m01;
shapes = (
{
closed = 1;
nodes = (
(444,773,o),
(371,777,o),
(302,777,cs),
(255,777,o),
(208,776,o),
(161,772,cs),
(138,770,o),
(121,755,o),
(120,731,cs),
(111,523,o),
(96,232,o),
(86,24,cs),
(85,-2,o),
(109,-19,o),
(141,-15,cs),
(254,1,o),
(354,-2,o),
(471,-15,cs),
(503,-18,o),
(515,-2,o),
(515,24,cs),
(515,44,o),
(499,58,o),
(467,64,cs),
(375,80,o),
(258,76,o),
(169,66,c),
(174,160,o),
(178,249,o),
(183,343,c),
(299,343,o),
(388,346,o),
(477,352,cs),
(499,354,o),
(518,370,o),
(518,392,cs),
(517,412,o),
(500,432,o),
(477,430,cs),
(388,424,o),
(299,421,o),
(187,421,c),
(199,697,l),
(268,701,o),
(400,700,o),
(503,688,cs),
(537,684,o),
(550,704,o),
(550,725,cs),
(550,745,o),
(539,762,o),
(513,765,cs)
);
}
);
width = 604;
},
{
anchors = (
{
name = bottom;
pos = (313,6);
},
{
name = ogonek;
pos = (535,10);
},
{
name = top;
pos = (339,782);
},
{
name = topleft;
pos = (37,764);
}
);
layerId = m002;
shapes = (
{
closed = 1;
nodes = (
(444,773,o),
(371,777,o),
(302,777,cs),
(255,777,o),
(208,776,o),
(161,772,cs),
(138,770,o),
(121,755,o),
(120,731,cs),
(111,523,o),
(96,232,o),
(86,24,cs),
(85,-2,o),
(109,-19,o),
(141,-15,cs),
(254,1,o),
(354,-2,o),
(471,-15,cs),
(503,-18,o),
(515,-2,o),
(515,24,cs),
(515,44,o),
(499,58,o),
(467,64,cs),
(375,80,o),
(258,76,o),
(169,66,c),
(174,160,o),
(178,249,o),
(183,343,c),
(299,343,o),
(388,346,o),
(477,352,cs),
(499,354,o),
(518,370,o),
(518,392,cs),
(517,412,o),
(500,432,o),
(477,430,cs),
(388,424,o),
(299,421,o),
(187,421,c),
(199,697,l),
(268,701,o),
(400,700,o),
(503,688,cs),
(537,684,o),
(550,704,o),
(550,725,cs),
(550,745,o),
(539,762,o),
(513,765,cs)
);
}
);
width = 604;
},
{
anchors = (
{
name = bottom;
pos = (298,2);
},
{
name = ogonek;
pos = (482,0);
},
{
name = top;
pos = (321,774);
},
{
name = topleft;
pos = (52,764);
}
);
layerId = m003;
shapes = (
{
closed = 1;
nodes = (
(459,773,o),
(386,777,o),
(317,777,cs),
(270,777,o),
(223,776,o),
(176,772,cs),
(125,768,o),
(86,755,o),
(84,701,cs),
(76,523,o),
(61,232,o),
(53,54,cs),
(50,-2,o),
(92,-23,o),
(153,-15,cs),
(266,1,o),
(369,-2,o),
(476,-14,cs),
(525,-19,o),
(540,14,o),
(540,64,cs),
(540,104,o),
(523,137,o),
(477,145,cs),
(410,157,o),
(313,156,o),
(239,146,c),
(242,199,o),
(245,250,o),
(248,303,c),
(344,303,o),
(414,309,o),
(488,314,cs),
(521,317,o),
(551,350,o),
(549,394,cs),
(547,452,o),
(522,475,o),
(478,472,cs),
(414,467,o),
(345,461,o),
(252,461,c),
(259,617,l),
(317,621,o),
(427,618,o),
(503,609,cs),
(558,603,o),
(575,640,o),
(575,685,cs),
(575,725,o),
(561,761,o),
(518,766,cs)
);
}
);
userData = {
com.hugojourdan.ColorFlow = {
"0" = 0;
"1" = 0;
"10" = 0;
"11" = 0;
"2" = 0;
"3" = 0;
"4" = 0;
"5" = 0;
"6" = 0;
"7" = 0;
"8" = 0;
"9" = 0;
};
};
width = 606;
}
);
metricLeft = E;
metricRight = E;
},
{
glyphname = F;
lastChange = "2023-02-02 18:18:56 +0000";
layers = (
{
anchors = (
{
name = top;
pos = (302,764);
}
);
layerId = m01;
shapes = (
{
closed = 1;
nodes = (
(94,18,o),
(107,-9,o),
(135,-9,cs),
(156,-9,o),
(173,8,o),
(177,32,cs),
(187,95,o),
(187,198,o),
(187,328,c),
(258,321,o),
(354,322,o),
(421,326,cs),
(442,328,o),
(463,344,o),
(462,367,cs),
(461,386,o),
(444,406,o),
(421,404,cs),
(364,399,o),
(249,400,o),
(187,406,c),
(187,495,o),
(189,591,o),
(199,679,c),
(320,673,o),
(347,673,o),
(467,676,cs),
(501,677,o),
(536,676,o),
(536,714,cs),
(536,737,o),
(518,755,o),
(496,754,cs),
(406,750,o),
(253,752,o),
(150,758,cs),
(124,758,o),
(111,738,o),
(111,718,cs),
(111,708,o),
(114,699,o),
(119,691,c),
(107,590,o),
(106,486,o),
(106,383,cs),
(106,270,o),
(105,130,o),
(97,48,cs)
);
}
);
width = 570;
},
{
anchors = (
{
name = top;
pos = (342,761);
}
);
layerId = m002;
shapes = (
{
closed = 1;
nodes = (
(94,18,o),
(107,-9,o),
(135,-9,cs),
(156,-9,o),
(173,8,o),
(177,32,cs),
(187,95,o),
(187,198,o),
(187,328,c),
(258,321,o),
(354,322,o),
(421,326,cs),
(442,328,o),
(463,344,o),
(462,367,cs),
(461,386,o),
(444,406,o),
(421,404,cs),
(364,399,o),
(249,400,o),
(187,406,c),
(187,495,o),
(189,591,o),
(199,679,c),
(320,673,o),
(347,673,o),
(467,676,cs),
(501,677,o),
(536,676,o),
(536,714,cs),
(536,737,o),
(518,755,o),
(496,754,cs),
(406,750,o),
(253,752,o),
(150,758,cs),
(124,758,o),
(111,738,o),
(111,718,cs),
(111,708,o),
(114,699,o),
(119,691,c),
(107,590,o),
(106,486,o),
(106,383,cs),
(106,270,o),
(105,130,o),
(97,48,cs)
);
}
);
width = 570;
},
{
anchors = (
{
name = top;
pos = (329,764);
}
);
layerId = m003;
shapes = (
{
closed = 1;
nodes = (
(61,18,o),
(74,-9,o),
(162,-9,cs),
(233,-9,o),
(250,12,o),
(256,52,cs),
(264,99,o),
(264,168,o),
(264,298,c),
(335,291,o),
(381,292,o),
(448,296,cs),
(469,298,o),
(496,314,o),
(495,383,cs),
(495,426,o),
(472,446,o),
(441,444,cs),
(384,440,o),
(326,440,o),
(264,446,c),
(264,492,o),
(269,536,o),
(276,599,c),
(397,593,o),
(441,592,o),
(494,596,cs),
(527,598,o),
(568,611,o),
(568,687,cs),
(568,742,o),
(545,755,o),
(523,754,cs),
(433,750,o),
(220,754,o),
(117,758,cs),
(90,759,o),
(65,733,o),
(65,690,cs),
(65,651,o),
(74,630,o),
(86,611,c),
(74,510,o),
(73,486,o),
(73,383,cs),
(73,270,o),
(72,130,o),
(64,48,cs)
);
}
);
width = 588;
}
);
unicode = 70;
},
{
glyphname = F.alt1;
lastChange = "2023-02-02 18:01:24 +0000";
layers = (
{
anchors = (
{
name = top;
pos = (309,764);
}
);
layerId = m01;
shapes = (
{
closed = 1;
nodes = (
(106,491,o),
(101,260,o),
(87,30,cs),
(86,4,o),
(107,-9,o),
(127,-9,cs),
(147,-9,o),
(168,4,o),
(168,30,cs),
(174,131,o),
(179,232,o),
(183,333,c),
(274,335,o),
(366,338,o),
(459,342,cs),
(480,343,o),
(500,360,o),
(499,383,cs),
(498,404,o),
(481,421,o),
(459,420,cs),
(367,416,o),
(277,413,o),
(186,411,c),
(189,501,o),
(193,596,o),
(197,685,c),
(510,688,ls),
(531,688,o),
(551,703,o),
(550,725,cs),
(549,747,o),
(532,766,o),
(510,766,cs),
(175,763,ls),
(146,763,o),
(118,751,o),
(118,722,cs)
);
}
);
width = 584;
},
{
anchors = (
{
name = top;
pos = (336,747);
}
);
layerId = m002;
shapes = (
{
closed = 1;
nodes = (
(106,491,o),
(101,260,o),
(87,30,cs),
(86,4,o),
(107,-9,o),
(127,-9,cs),
(147,-9,o),
(168,4,o),
(168,30,cs),
(174,131,o),
(179,232,o),
(183,333,c),
(274,335,o),
(366,338,o),
(459,342,cs),
(480,343,o),
(500,360,o),
(499,383,cs),
(498,404,o),
(481,421,o),
(459,420,cs),
(367,416,o),
(277,413,o),
(186,411,c),
(189,501,o),
(193,596,o),
(197,685,c),
(510,688,ls),
(531,688,o),
(551,703,o),
(550,725,cs),
(549,747,o),
(532,766,o),
(510,766,cs),
(175,763,ls),
(146,763,o),
(118,751,o),
(118,722,cs)
);
}
);
width = 584;
},
{
anchors = (
{
name = top;
pos = (312,764);
}
);
layerId = m003;
shapes = (
{
closed = 1;
nodes = (
(59,491,o),
(54,260,o),
(42,50,cs),
(39,4,o),
(85,-9,o),
(130,-9,cs),
(174,-9,o),
(221,4,o),
(223,50,cs),
(226,120,o),
(232,206,o),
(236,293,c),
(311,295,o),
(386,299,o),
(452,302,cs),
(495,304,o),
(524,338,o),
(522,383,cs),
(520,427,o),
(508,461,o),
(456,459,cs),
(406,457,o),
(321,453,o),
(239,451,c),
(242,502,o),
(243,555,o),
(247,605,c),
(493,608,ls),
(541,609,o),
(565,639,o),
(563,685,cs),
(561,728,o),
(541,766,o),
(503,766,cs),
(178,763,ls),
(124,763,o),
(71,751,o),
(69,702,cs)
);
}
);
userData = {
com.hugojourdan.ColorFlow = {
"0" = 0;
"1" = 0;
"10" = 0;
"11" = 0;
"2" = 0;
"3" = 0;
"4" = 0;
"5" = 0;
"6" = 0;
"7" = 0;
"8" = 0;
"9" = 0;
};
};
width = 584;
}
);
metricLeft = F;
metricRight = F;
},
{
glyphname = F.alt2;
lastChange = "2023-02-02 18:01:24 +0000";
layers = (
{
anchors = (
{
name = top;
pos = (296,764);
}
);
layerId = m01;
shapes = (
{
closed = 1;
nodes = (
(147,-12,o),
(166,2,o),
(168,28,cs),
(178,134,o),
(186,224,o),
(193,322,c),
(262,326,o),
(332,328,o),
(438,328,cs),
(459,328,o),
(479,347,o),
(478,369,cs),
(477,391,o),
(461,408,o),
(438,408,cs),
(334,408,o),
(266,404,o),
(198,400,c),
(203,489,o),
(207,584,o),
(208,673,c),
(300,680,o),
(391,685,o),
(483,687,cs),
(504,687,o),
(525,703,o),
(524,725,cs),
(523,747,o),
(506,765,o),
(483,765,cs),
(381,763,o),
(280,758,o),
(179,748,cs),
(140,744,o),
(128,736,o),
(127,698,cs),
(125,482,o),
(111,255,o),
(87,28,cs),
(86,15,o),
(96,-12,o),
(126,-12,cs)
);
}
);
width = 558;
},
{
anchors = (
{
name = top;
pos = (321,768);
}
);
layerId = m002;
shapes = (
{
closed = 1;
nodes = (
(147,-12,o),
(166,2,o),
(168,28,cs),
(178,134,o),
(186,224,o),
(193,322,c),
(262,326,o),
(332,328,o),
(438,328,cs),
(459,328,o),
(479,347,o),
(478,369,cs),
(477,391,o),
(461,408,o),
(438,408,cs),
(334,408,o),
(266,404,o),
(198,400,c),
(203,489,o),
(207,584,o),
(208,673,c),
(300,680,o),
(391,685,o),
(483,687,cs),
(504,687,o),
(525,703,o),
(524,725,cs),
(523,747,o),
(506,765,o),
(483,765,cs),
(381,763,o),
(280,758,o),
(179,748,cs),
(140,744,o),
(128,736,o),
(127,698,cs),
(125,482,o),
(111,255,o),
(87,28,cs),
(86,15,o),
(96,-12,o),
(126,-12,cs)
);
}
);
width = 558;
},
{
anchors = (
{
name = top;
pos = (299,764);
}
);
layerId = m003;
shapes = (
{
closed = 1;
nodes = (
(175,-12,o),
(219,2,o),
(223,48,cs),
(230,120,o),
(237,197,o),
(243,282,c),
(298,286,o),
(354,288,o),
(438,288,cs),
(471,288,o),
(503,326,o),
(501,369,cs),
(499,414,o),
(476,448,o),
(443,448,cs),
(361,448,o),
(307,444,o),
(253,440,c),
(257,490,o),
(260,543,o),
(261,593,c),
(336,600,o),
(411,605,o),
(476,606,cs),
(512,607,o),
(539,640,o),
(537,685,cs),
(535,729,o),
(515,765,o),
(476,764,cs),
(384,763,o),
(283,758,o),
(182,748,cs),
(106,740,o),
(81,736,o),
(80,678,cs),
(78,482,o),
(64,255,o),
(42,48,cs),
(39,15,o),
(61,-12,o),
(129,-12,cs)
);
}
);
userData = {
com.hugojourdan.ColorFlow = {
"0" = 0;
"1" = 0;
"10" = 0;
"11" = 0;
"2" = 0;
"3" = 0;
"4" = 0;
"5" = 0;
"6" = 0;
"7" = 0;
"8" = 0;
"9" = 0;
};
};
width = 558;
}
);
metricLeft = F;
metricRight = F;
},
{
glyphname = F.alt3;
lastChange = "2023-02-02 18:01:24 +0000";
layers = (
{
anchors = (
{
name = top;
pos = (310,764);
}
);
layerId = m01;
shapes = (
{
closed = 1;
nodes = (
(107,595,o),
(104,471,o),
(102,351,cs),
(100,246,o),
(98,140,o),
(87,36,cs),
(86,27,o),
(92,14,o),
(99,8,cs),
(107,0,o),
(117,-4,o),
(127,-4,cs),
(147,-4,o),
(165,12,o),
(168,36,cs),
(179,142,o),
(181,248,o),
(183,354,cs),
(185,473,o),
(188,593,o),
(201,711,cs),
(204,737,o),
(181,750,o),
(161,750,cs),
(141,750,o),
(123,737,o),
(120,711,cs)
);
},
{
closed = 1;
nodes = (
(271,675,o),
(374,682,o),
(511,680,cs),
(538,680,o),
(551,697,o),
(551,718,cs),
(551,738,o),
(538,758,o),
(511,758,cs),
(487,758,o),
(372,757,o),
(339,755,cs),
(270,751,o),
(206,751,o),
(160,744,cs),
(134,740,o),
(129,718,o),
(129,708,cs),
(129,687,o),
(145,664,o),
(169,666,cs)
);
},
{
closed = 1;
nodes = (
(271,331,o),
(353,332,o),
(471,325,cs),
(497,325,o),
(510,345,o),
(510,365,cs),
(510,386,o),
(497,401,o),
(471,403,cs),
(413,408,o),
(234,415,o),
(165,401,cs),
(130,394,o),
(108,384,o),
(112,363,c),
(113,343,o),
(130,321,o),
(153,323,cs)
);
}
);
width = 585;
},
{
anchors = (
{
name = top;
pos = (339,755);
}
);
layerId = m002;
shapes = (
{
closed = 1;
nodes = (
(107,595,o),
(104,471,o),
(102,351,cs),
(100,246,o),
(98,140,o),
(87,36,cs),
(86,27,o),
(92,14,o),
(99,8,cs),
(107,0,o),
(117,-4,o),
(127,-4,cs),
(147,-4,o),
(165,12,o),
(168,36,cs),
(179,142,o),
(181,248,o),
(183,354,cs),
(185,473,o),
(188,593,o),
(201,711,cs),
(204,737,o),
(181,750,o),
(161,750,cs),
(141,750,o),
(123,737,o),
(120,711,cs)
);
},
{
closed = 1;
nodes = (
(271,675,o),
(374,682,o),
(511,680,cs),
(538,680,o),
(551,697,o),
(551,718,cs),
(551,738,o),
(538,758,o),
(511,758,cs),
(487,758,o),
(372,757,o),
(339,755,cs),
(270,751,o),
(206,751,o),
(160,744,cs),
(134,740,o),
(129,718,o),
(129,708,cs),
(129,687,o),
(145,664,o),
(169,666,cs)
);
},
{
closed = 1;
nodes = (
(271,331,o),
(353,332,o),
(471,325,cs),
(497,325,o),
(510,345,o),
(510,365,cs),
(510,386,o),
(497,401,o),
(471,403,cs),
(413,408,o),
(234,415,o),
(165,401,cs),
(130,394,o),
(108,384,o),
(112,363,c),
(113,343,o),
(130,321,o),
(153,323,cs)
);
}
);
width = 585;
},
{
anchors = (
{
name = top;
pos = (314,764);
}
);
layerId = m003;
shapes = (
{
closed = 1;
nodes = (
(61,595,o),
(58,471,o),
(56,351,cs),
(54,246,o),
(52,150,o),
(43,66,cs),
(41,43,o),
(54,20,o),
(77,8,cs),
(96,-2,o),
(112,-4,o),
(131,-4,cs),
(175,-4,o),
(219,12,o),
(224,56,cs),
(233,142,o),
(235,248,o),
(237,354,cs),
(239,473,o),
(242,593,o),
(253,691,cs),
(259,745,o),
(201,760,o),
(156,760,cs),
(112,760,o),
(78,745,o),
(72,691,cs)
);
},
{
closed = 1;
nodes = (
(269,594,o),
(366,602,o),
(495,600,cs),
(542,600,o),
(565,635,o),
(565,678,cs),
(565,718,o),
(542,758,o),
(495,758,cs),
(474,758,o),
(372,757,o),
(343,755,cs),
(274,751,o),
(210,751,o),
(184,747,cs),
(138,740,o),
(133,689,o),
(133,668,cs),
(133,627,o),
(149,584,o),
(193,588,cs)
);
},
{
closed = 1;
nodes = (
(275,291,o),
(357,292,o),
(465,287,cs),
(508,285,o),
(524,325,o),
(524,365,cs),
(524,408,o),
(508,440,o),
(465,444,cs),
(417,448,o),
(238,455,o),
(169,441,cs),
(126,432,o),
(105,406,o),
(106,363,cs),
(107,323,o),
(128,281,o),
(157,283,cs)
);
}
);
userData = {
com.hugojourdan.ColorFlow = {
"0" = 0;
"1" = 0;
"10" = 0;
"11" = 0;
"2" = 0;
"3" = 0;
"4" = 0;
"5" = 0;
"6" = 0;
"7" = 0;
"8" = 0;
"9" = 0;
};
};
width = 586;
}
);
metricLeft = F;
metricRight = F;
},
{
glyphname = F.alt4;
lastChange = "2023-02-02 18:01:24 +0000";
layers = (
{
anchors = (
{
name = top;
pos = (304,764);
}
);
layerId = m01;
shapes = (
{
closed = 1;
nodes = (
(109,473,o),
(101,248,o),
(87,24,cs),
(85,-2,o),
(107,-15,o),
(128,-15,cs),
(148,-15,o),
(168,-2,o),
(168,24,cs),
(174,121,o),
(179,220,o),
(183,317,c),
(186,316,o),
(388,321,o),
(485,323,cs),
(507,323,o),
(527,339,o),
(526,361,cs),
(525,383,o),
(508,402,o),
(485,401,cs),
(388,399,o),
(290,394,o),
(186,394,c),
(189,481,o),
(191,570,o),
(192,657,c),
(291,660,o),
(392,664,o),
(492,667,cs),
(513,668,o),
(534,685,o),
(533,708,cs),
(532,729,o),
(515,749,o),
(492,748,cs),
(387,745,o),
(256,739,o),
(146,736,cs),
(128,734,o),
(111,721,o),
(111,697,cs)
);
}
);
width = 573;
},
{
anchors = (
{
name = top;
pos = (327,755);
}
);
layerId = m002;
shapes = (
{
closed = 1;
nodes = (
(109,473,o),
(101,248,o),
(87,24,cs),
(85,-2,o),
(107,-15,o),
(128,-15,cs),
(148,-15,o),
(168,-2,o),
(168,24,cs),
(174,121,o),
(179,220,o),
(183,317,c),
(186,316,o),
(388,321,o),
(485,323,cs),
(507,323,o),
(527,339,o),
(526,361,cs),
(525,383,o),
(508,402,o),
(485,401,cs),
(388,399,o),
(290,394,o),
(186,394,c),
(189,481,o),
(191,570,o),
(192,657,c),
(291,660,o),
(392,664,o),
(492,667,cs),
(513,668,o),
(534,685,o),
(533,708,cs),
(532,729,o),
(515,749,o),
(492,748,cs),
(387,745,o),
(256,739,o),
(146,736,cs),
(128,734,o),
(111,721,o),
(111,697,cs)
);
}
);
width = 573;
},
{
anchors = (
{
name = top;
pos = (308,764);
}
);
layerId = m003;
shapes = (
{
closed = 1;
nodes = (
(63,473,o),
(55,248,o),
(42,44,cs),
(39,-2,o),
(85,-15,o),
(132,-15,cs),
(177,-15,o),
(222,-2,o),
(224,44,cs),
(227,110,o),
(232,194,o),
(236,277,c),
(239,276,o),
(407,281,o),
(468,282,cs),
(516,283,o),
(542,327,o),
(540,372,cs),
(538,416,o),
(518,442,o),
(470,441,cs),
(409,439,o),
(328,434,o),
(241,434,c),
(244,481,o),
(245,530,o),
(246,577,c),
(329,580,o),
(413,584,o),
(486,587,cs),
(522,588,o),
(549,623,o),
(547,668,cs),
(545,709,o),
(525,749,o),
(486,748,cs),
(391,745,o),
(260,739,o),
(150,736,cs),
(107,731,o),
(65,721,o),
(65,667,cs)
);
}
);
userData = {
com.hugojourdan.ColorFlow = {
"0" = 0;
"1" = 0;
"10" = 0;
"11" = 0;
"2" = 0;
"3" = 0;
"4" = 0;
"5" = 0;
"6" = 0;
"7" = 0;
"8" = 0;
"9" = 0;
};
};
width = 572;
}
);
metricLeft = F;
metricRight = F;
},
{
glyphname = F.alt5;
lastChange = "2023-02-02 18:01:24 +0000";
layers = (
{
anchors = (
{
name = top;
pos = (295,764);
}
);
layerId = m01;
shapes = (
{
closed = 1;
nodes = (
(113,474,o),
(100,241,o),
(86,8,cs),
(85,-18,o),
(106,-31,o),
(126,-31,cs),
(146,-31,o),
(165,-18,o),
(167,8,cs),
(185,316,l),
(287,320,o),
(369,320,o),
(469,317,cs),
(490,316,o),
(510,335,o),
(509,356,cs),
(508,379,o),
(491,394,o),
(469,395,cs),
(370,397,o),
(289,398,o),
(190,394,c),
(208,707,ls),
(209,733,o),
(188,746,o),
(168,746,cs),
(148,746,o),
(129,733,o),
(127,707,cs)
);
},
{
closed = 1;
nodes = (
(302,665,o),
(382,667,o),
(462,672,cs),
(483,673,o),
(504,689,o),
(503,711,cs),
(502,732,o),
(485,751,o),
(462,750,cs),
(382,745,o),
(302,743,o),
(222,741,cs),
(196,740,o),
(183,721,o),
(183,701,cs),
(183,681,o),
(196,663,o),
(222,663,cs)
);
}
);
width = 556;
},
{
anchors = (
{
name = top;
pos = (329,740);
}
);
layerId = m002;
shapes = (
{
closed = 1;
nodes = (
(113,474,o),
(100,241,o),
(86,8,cs),
(85,-18,o),
(106,-31,o),
(126,-31,cs),
(146,-31,o),
(165,-18,o),
(167,8,cs),
(185,316,l),
(287,320,o),
(369,320,o),
(469,317,cs),
(490,316,o),
(510,335,o),
(509,356,cs),
(508,379,o),
(491,394,o),
(469,395,cs),
(370,397,o),
(289,398,o),
(190,394,c),
(208,707,ls),
(209,733,o),
(188,746,o),
(168,746,cs),
(148,746,o),
(129,733,o),
(127,707,cs)
);
},
{
closed = 1;
nodes = (
(302,665,o),
(382,667,o),
(462,672,cs),
(483,673,o),
(504,689,o),
(503,711,cs),
(502,732,o),
(485,751,o),
(462,750,cs),
(382,745,o),
(302,743,o),
(222,741,cs),
(196,740,o),
(183,721,o),
(183,701,cs),
(183,681,o),
(196,663,o),
(222,663,cs)
);
}
);
width = 556;
},
{
anchors = (
{
name = top;
pos = (299,764);
}
);
layerId = m003;
shapes = (
{
closed = 1;
nodes = (
(67,474,o),
(54,241,o),
(42,28,cs),
(39,-18,o),
(85,-31,o),
(130,-31,cs),
(174,-31,o),
(219,-18,o),
(222,28,cs),
(237,276,l),
(321,280,o),
(389,279,o),
(461,277,cs),
(507,276,o),
(530,313,o),
(528,356,cs),
(526,403,o),
(510,434,o),
(465,435,cs),
(394,437,o),
(327,438,o),
(246,434,c),
(261,687,ls),
(264,740,o),
(217,756,o),
(172,756,cs),
(128,756,o),
(84,740,o),
(81,687,cs)
);
},
{
closed = 1;
nodes = (
(373,585,o),
(397,587,o),
(476,591,cs),
(513,593,o),
(540,626,o),
(538,671,cs),
(536,713,o),
(515,751,o),
(466,748,cs),
(399,745,o),
(365,743,o),
(286,741,cs),
(237,739,o),
(217,701,o),
(217,661,cs),
(217,620,o),
(245,583,o),
(294,584,cs)
);
}
);
userData = {
com.hugojourdan.ColorFlow = {
"0" = 0;
"1" = 0;
"10" = 0;
"11" = 0;
"2" = 0;
"3" = 0;
"4" = 0;
"5" = 0;
"6" = 0;
"7" = 0;
"8" = 0;
"9" = 0;
};
};
width = 560;
}
);
metricLeft = F;
metricRight = F;
},
{
glyphname = F.alt6;
lastChange = "2023-02-02 18:01:24 +0000";
layers = (
{
anchors = (
{
name = top;
pos = (314,764);
}
);
layerId = m01;
shapes = (
{
closed = 1;
nodes = (
(142,481,o),
(132,252,o),
(115,25,cs),
(114,-1,o),
(135,-14,o),
(155,-14,cs),
(175,-14,o),
(194,-1,o),
(196,25,cs),
(203,121,o),
(209,220,o),
(214,316,c),
(298,328,o),
(367,329,o),
(452,321,cs),
(469,319,o),
(492,335,o),
(492,358,cs),
(492,378,o),
(476,396,o),
(452,399,cs),
(414,403,o),
(284,407,o),
(217,396,c),
(221,500,o),
(224,605,o),
(224,709,cs),
(225,735,o),
(204,748,o),
(184,748,cs),
(164,748,o),
(143,735,o),
(143,709,cs)
);
},
{
closed = 1;
nodes = (
(215,677,o),
(281,674,o),
(347,674,cs),
(405,674,o),
(463,676,o),
(521,680,cs),
(547,682,o),
(560,699,o),
(560,720,cs),
(560,740,o),
(547,758,o),
(521,758,cs),
(461,754,o),
(401,752,o),
(341,752,cs),
(277,752,o),
(213,754,o),
(150,759,cs),
(124,760,o),
(111,741,o),
(111,721,cs),
(111,700,o),
(124,681,o),
(150,681,cs)
);
}
);
width = 594;
},
{
anchors = (
{
name = top;
pos = (364,749);
}
);
layerId = m002;
shapes = (
{
closed = 1;
nodes = (
(142,481,o),
(132,252,o),
(115,25,cs),
(114,-1,o),
(135,-14,o),
(155,-14,cs),
(175,-14,o),
(194,-1,o),
(196,25,cs),
(203,121,o),
(209,220,o),
(214,316,c),
(298,328,o),
(367,329,o),
(452,321,cs),
(469,319,o),
(492,335,o),
(492,358,cs),
(492,378,o),
(476,396,o),
(452,399,cs),
(414,403,o),
(284,407,o),
(217,396,c),
(221,500,o),
(224,605,o),
(224,709,cs),
(225,735,o),
(204,748,o),
(184,748,cs),
(164,748,o),
(143,735,o),
(143,709,cs)
);
},
{
closed = 1;
nodes = (
(215,677,o),
(281,674,o),
(347,674,cs),
(405,674,o),
(463,676,o),
(521,680,cs),
(547,682,o),
(560,699,o),
(560,720,cs),
(560,740,o),
(547,758,o),
(521,758,cs),
(461,754,o),
(401,752,o),
(341,752,cs),
(277,752,o),
(213,754,o),
(150,759,cs),
(124,760,o),
(111,741,o),
(111,721,cs),
(111,700,o),
(124,681,o),
(150,681,cs)
);
}
);
width = 594;
},
{
anchors = (
{
name = top;
pos = (397,749);
}
);
layerId = m003;
shapes = (
{
closed = 1;
nodes = (
(125,461,o),
(115,252,o),
(100,45,cs),
(97,-1,o),
(143,-14,o),
(188,-14,cs),
(232,-14,o),
(277,-1,o),
(280,45,cs),
(285,108,o),
(291,193,o),
(295,276,c),
(337,284,o),
(412,284,o),
(464,279,cs),
(510,275,o),
(546,289,o),
(546,355,cs),
(546,402,o),
(523,428,o),
(484,436,cs),
(429,447,o),
(353,447,o),
(302,436,c),
(305,527,o),
(307,598,o),
(308,669,cs),
(308,715,o),
(262,728,o),
(217,728,cs),
(173,728,o),
(126,715,o),
(126,669,cs)
);
},
{
closed = 1;
nodes = (
(185,596,o),
(282,594,o),
(380,594,cs),
(438,594,o),
(496,596,o),
(534,599,cs),
(587,603,o),
(603,638,o),
(603,680,cs),
(603,721,o),
(587,758,o),
(534,756,cs),
(494,754,o),
(434,752,o),
(374,752,cs),
(278,752,o),
(182,753,o),
(143,756,cs),
(77,760,o),
(64,716,o),
(64,675,cs),
(64,633,o),
(77,601,o),
(133,599,cs)
);
}
);
userData = {
com.hugojourdan.ColorFlow = {
"0" = 0;
"1" = 0;
"10" = 0;
"11" = 0;
"2" = 0;
"3" = 0;
"4" = 0;
"5" = 0;
"6" = 0;
"7" = 0;
"8" = 0;
"9" = 0;
};
};
width = 624;
}
);
metricLeft = F;
metricRight = F;
},
{
glyphname = G;
lastChange = "2023-02-08 10:50:20 +0000";
layers = (
{
anchors = (
{
name = bottom;
pos = (408,0);
},
{
name = top;
pos = (434,764);
}
);
layerId = m01;
shapes = (
{
closed = 1;
nodes = (
(650,748,o),
(562,780,o),
(478,780,cs),
(262,780,o),
(68,579,o),
(68,348,cs),
(68,150,o),
(214,-19,o),
(405,-19,cs),
(595,-19,o),
(769,159,o),
(769,347,cs),
(769,376,o),
(761,402,o),
(727,403,cs),
(643,403,o),
(559,404,o),
(475,404,cs),
(453,404,o),
(435,388,o),
(436,366,cs),
(437,344,o),
(452,326,o),
(475,326,cs),
(545,326,o),
(616,325,o),
(686,325,c),
(673,191,o),
(554,59,o),
(404,59,cs),
(226,59,o),
(149,247,o),
(149,346,cs),
(149,453,o),
(243,699,o),
(471,699,cs),
(534,699,o),
(596,676,o),
(656,630,cs),
(668,621,o),
(681,603,o),
(702,603,cs),
(725,603,o),
(742,624,o),
(742,646,cs),
(742,656,o),
(738,666,o),
(730,673,cs)
);
}
);
width = 834;
},
{
anchors = (
{
name = bottom;
pos = (408,0);
},
{
name = top;
pos = (473,771);
}
);
layerId = m002;
shapes = (
{
closed = 1;
nodes = (
(650,748,o),
(562,780,o),
(478,780,cs),
(262,780,o),
(68,579,o),
(68,348,cs),
(68,150,o),
(214,-19,o),
(405,-19,cs),
(595,-19,o),
(769,159,o),
(769,347,cs),
(769,376,o),
(761,402,o),
(727,403,cs),
(643,403,o),
(559,404,o),
(475,404,cs),
(453,404,o),
(435,388,o),
(436,366,cs),
(437,344,o),
(452,326,o),
(475,326,cs),
(545,326,o),
(616,325,o),
(686,325,c),
(673,191,o),
(554,59,o),
(404,59,cs),
(226,59,o),
(149,247,o),
(149,346,cs),
(149,453,o),
(243,699,o),
(471,699,cs),
(534,699,o),
(596,676,o),
(656,630,cs),
(668,621,o),
(681,603,o),
(702,603,cs),
(725,603,o),
(742,624,o),
(742,646,cs),
(742,656,o),
(738,666,o),
(730,673,cs)
);
}
);
width = 834;
},
{
anchors = (
{
name = bottom;
pos = (403,0);
},
{
name = top;
pos = (442,766);
}
);
layerId = m003;
shapes = (
{
closed = 1;
nodes = (
(654,755,o),
(557,780,o),
(466,780,cs),
(227,780,o),
(43,579,o),
(43,348,cs),
(43,150,o),
(189,-19,o),
(400,-19,cs),
(623,-19,o),
(766,180,o),
(766,361,cs),
(766,397,o),
(753,430,o),
(707,430,cs),
(640,430,o),
(554,432,o),
(489,432,cs),
(448,432,o),
(421,399,o),
(421,352,cs),
(421,295,o),
(447,274,o),
(484,274,cs),
(522,274,o),
(551,273,o),
(579,273,c),
(554,215,o),
(508,141,o),
(408,141,cs),
(296,141,o),
(230,247,o),
(230,346,cs),
(230,453,o),
(293,621,o),
(466,621,cs),
(529,621,o),
(574,604,o),
(634,566,cs),
(646,558,o),
(659,543,o),
(680,543,cs),
(703,543,o),
(752,587,o),
(752,631,cs),
(752,652,o),
(742,673,o),
(734,680,cs)
);
}
);
width = 818;
}
);
unicode = 71;
},
{
glyphname = G.alt1;
lastChange = "2023-02-08 10:50:30 +0000";
layers = (
{
anchors = (
{
name = bottom;
pos = (429,0);
},
{
name = top;
pos = (455,764);
}
);
background = {
shapes = (
{
closed = 1;
nodes = (
(646,760,o),
(556,792,o),
(465,792,cs),
(195,792,o),
(66,545,o),
(66,295,cs),
(66,138,o),
(201,-15,o),
(398,-15,cs),
(623,-15,o),
(733,220,o),
(733,344,c),
(770,343,ls),
(792,342,o),
(812,362,o),
(811,383,cs),
(810,406,o),
(793,419,o),
(770,421,cs),
(711,426,o),
(563,423,o),
(477,417,cs),
(450,415,o),
(437,399,o),
(437,379,cs),
(437,358,o),
(452,335,o),
(482,338,cs),
(537,343,o),
(595,345,o),
(654,345,c),
(620,170,o),
(544,63,o),
(395,63,cs),
(278,63,o),
(147,141,o),
(147,308,cs),
(147,476,o),
(228,714,o),
(468,714,cs),
(535,714,o),
(599,689,o),
(655,638,cs),
(664,630,o),
(673,626,o),
(682,626,cs),
(704,626,o),
(724,646,o),
(724,668,cs),
(724,677,o),
(720,687,o),
(712,695,cs)
);
}
);
};
layerId = m01;
shapes = (
{
closed = 1;
nodes = (
(637,764,o),
(551,793,o),
(465,793,cs),
(210,793,o),
(68,559,o),
(68,343,cs),
(68,153,o),
(178,-24,o),
(413,-16,cs),
(638,-8,o),
(740,230,o),
(735,354,c),
(772,355,ls),
(792,355,o),
(812,373,o),
(812,393,cs),
(812,417,o),
(794,431,o),
(770,433,cs),
(749,434,o),
(717,433,o),
(681,432,cs),
(614,430,o),
(533,424,o),
(477,418,cs),
(450,415,o),
(438,399,o),
(438,379,cs),
(439,358,o),
(455,336,o),
(485,340,cs),
(540,346,o),
(597,350,o),
(656,353,c),
(628,171,o),
(552,62,o),
(396,62,cs),
(226,62,o),
(149,193,o),
(149,339,cs),
(149,516,o),
(263,715,o),
(466,715,cs),
(530,715,o),
(591,692,o),
(647,645,cs),
(656,638,o),
(666,634,o),
(675,634,cs),
(696,635,o),
(715,655,o),
(715,676,cs),
(715,686,o),
(711,697,o),
(702,704,cs)
);
}
);
width = 876;
},
{
anchors = (
{
name = bottom;
pos = (415,0);
},
{
name = top;
pos = (465,780);
}
);
background = {
shapes = (
{
closed = 1;
nodes = (
(646,760,o),
(556,792,o),
(465,792,cs),
(195,792,o),
(66,545,o),
(66,295,cs),
(66,138,o),
(201,-15,o),
(398,-15,cs),
(623,-15,o),
(733,220,o),
(733,344,c),
(770,343,ls),
(792,342,o),
(812,362,o),
(811,383,cs),
(810,406,o),
(793,419,o),
(770,421,cs),
(711,426,o),
(563,423,o),
(477,417,cs),
(450,415,o),
(437,399,o),
(437,379,cs),
(437,358,o),
(452,335,o),
(482,338,cs),
(537,343,o),
(595,345,o),
(654,345,c),
(620,170,o),
(544,63,o),
(395,63,cs),
(278,63,o),
(147,141,o),
(147,308,cs),
(147,476,o),
(228,714,o),
(468,714,cs),
(535,714,o),
(599,689,o),
(655,638,cs),
(664,630,o),
(673,626,o),
(682,626,cs),
(704,626,o),
(724,646,o),
(724,668,cs),
(724,677,o),
(720,687,o),
(712,695,cs)
);
}
);
};
layerId = m002;
shapes = (
{
closed = 1;
nodes = (
(637,764,o),
(551,793,o),
(465,793,cs),
(210,793,o),
(68,559,o),
(68,343,cs),
(68,153,o),
(178,-24,o),
(413,-16,cs),
(638,-8,o),
(740,230,o),
(735,354,c),
(772,355,ls),
(792,356,o),
(812,373,o),
(812,393,cs),
(812,417,o),
(794,431,o),
(770,433,cs),
(749,434,o),
(717,433,o),
(681,432,cs),
(614,430,o),
(533,424,o),
(477,418,cs),
(450,415,o),
(438,399,o),
(438,379,cs),
(439,358,o),
(455,336,o),
(485,340,cs),
(540,346,o),
(597,350,o),
(656,353,c),
(628,171,o),
(552,62,o),
(396,62,cs),
(226,62,o),
(149,193,o),
(149,339,cs),
(149,516,o),
(263,715,o),
(466,715,cs),
(530,715,o),
(591,692,o),
(647,645,cs),
(656,638,o),
(666,634,o),
(675,634,cs),
(696,635,o),
(715,655,o),
(715,676,cs),
(715,686,o),
(711,697,o),
(702,704,cs)
);
}
);
width = 876;
},
{
anchors = (
{
name = bottom;
pos = (400,-4);
},
{
name = top;
pos = (439,782);
}
);
background = {
shapes = (
{
closed = 0;
nodes = (
(235,374,ls)
);
}
);
};
layerId = m003;
shapes = (
{
closed = 1;
nodes = (
(647,770,o),
(534,794,o),
(447,794,cs),
(222,794,o),
(43,602,o),
(43,344,cs),
(43,150,o),
(175,-15,o),
(389,-15,cs),
(630,-15,o),
(726,220,o),
(735,304,c),
(776,305,ls),
(796,305,o),
(826,329,o),
(826,384,cs),
(826,434,o),
(798,451,o),
(774,453,cs),
(753,454,o),
(721,453,o),
(685,452,cs),
(618,450,o),
(537,444,o),
(481,438,cs),
(454,435,o),
(432,411,o),
(432,358,cs),
(432,323,o),
(459,286,o),
(489,290,cs),
(521,294,o),
(545,295,o),
(565,295,c),
(559,253,o),
(506,154,o),
(400,154,cs),
(294,154,o),
(235,240,o),
(235,344,cs),
(235,557,o),
(366,636,o),
(459,636,cs),
(528,636,o),
(573,622,o),
(630,581,cs),
(643,571,o),
(657,568,o),
(665,568,cs),
(696,568,o),
(739,624,o),
(739,665,cs),
(739,682,o),
(736,695,o),
(721,708,cs)
);
}
);
userData = {
com.hugojourdan.ColorFlow = {
"0" = 0;
"1" = 0;
"10" = 0;
"11" = 0;
"2" = 0;
"3" = 0;
"4" = 0;
"5" = 0;
"6" = 0;
"7" = 0;
"8" = 0;
"9" = 0;
};
};
width = 877;
}
);
metricLeft = G;
metricRight = G;
},
{
glyphname = G.alt2;
lastChange = "2023-02-08 10:50:40 +0000";
layers = (
{
anchors = (
{
name = bottom;
pos = (412,0);
},
{
name = top;
pos = (438,764);
}
);
layerId = m01;
shapes = (
{
closed = 1;
nodes = (
(633,752,o),
(544,783,o),
(453,783,cs),
(210,783,o),
(69,606,o),
(69,363,cs),
(69,149,o),
(211,-19,o),
(381,-19,cs),
(574,-19,o),
(710,153,o),
(722,337,c),
(737,337,ls),
(758,337,o),
(778,356,o),
(777,378,cs),
(776,400,o),
(759,414,o),
(737,415,cs),
(673,419,o),
(521,411,o),
(447,405,cs),
(421,403,o),
(408,388,o),
(408,368,cs),
(408,347,o),
(421,325,o),
(447,327,cs),
(511,333,o),
(579,336,o),
(643,337,c),
(631,214,o),
(543,59,o),
(383,59,cs),
(266,59,o),
(151,173,o),
(151,359,cs),
(151,563,o),
(252,705,o),
(453,705,cs),
(529,705,o),
(590,679,o),
(638,626,cs),
(647,616,o),
(656,614,o),
(665,614,cs),
(687,614,o),
(707,634,o),
(707,657,cs),
(707,666,o),
(703,675,o),
(695,684,cs)
);
}
);
width = 841;
},
{
anchors = (
{
name = bottom;
pos = (388,-8);
},
{
name = top;
pos = (442,778);
}
);
layerId = m002;
shapes = (
{
closed = 1;
nodes = (
(633,752,o),
(544,783,o),
(453,783,cs),
(210,783,o),
(69,606,o),
(69,363,cs),
(69,149,o),
(211,-19,o),
(381,-19,cs),
(574,-19,o),
(710,153,o),
(722,337,c),
(737,337,ls),
(758,337,o),
(778,356,o),
(777,378,cs),
(776,400,o),
(759,414,o),
(737,415,cs),
(673,419,o),
(521,411,o),
(447,405,cs),
(421,403,o),
(408,388,o),
(408,368,cs),
(408,347,o),
(421,325,o),
(447,327,cs),
(511,333,o),
(579,336,o),
(643,337,c),
(631,214,o),
(543,59,o),
(383,59,cs),
(266,59,o),
(151,173,o),
(151,359,cs),
(151,563,o),
(252,705,o),
(453,705,cs),
(529,705,o),
(590,679,o),
(638,626,cs),
(647,616,o),
(656,614,o),
(665,614,cs),
(687,614,o),
(707,634,o),
(707,657,cs),
(707,666,o),
(703,675,o),
(695,684,cs)
);
}
);
width = 841;
},
{
anchors = (
{
name = bottom;
pos = (407,-4);
},
{
name = top;
pos = (428,773);
}
);
layerId = m003;
shapes = (
{
closed = 1;
nodes = (
(691,728,o),
(564,783,o),
(445,783,cs),
(205,783,o),
(44,606,o),
(44,363,cs),
(44,159,o),
(192,-19,o),
(398,-19,cs),
(575,-19,o),
(702,135,o),
(727,287,c),
(745,287,ls),
(773,287,o),
(792,319,o),
(792,363,cs),
(792,411,o),
(774,434,o),
(742,436,cs),
(688,439,o),
(516,431,o),
(448,426,cs),
(416,423,o),
(392,394,o),
(392,346,cs),
(392,309,o),
(416,273,o),
(458,279,cs),
(485,283,o),
(519,287,o),
(558,287,c),
(536,204,o),
(500,139,o),
(398,139,cs),
(305,139,o),
(231,233,o),
(231,359,cs),
(231,493,o),
(294,625,o),
(438,625,cs),
(509,625,o),
(573,596,o),
(601,565,cs),
(614,551,o),
(632,545,o),
(653,545,cs),
(691,545,o),
(731,593,o),
(731,632,cs),
(731,644,o),
(727,658,o),
(721,670,cs)
);
}
);
userData = {
com.hugojourdan.ColorFlow = {
"0" = 0;
"1" = 0;
"10" = 0;
"11" = 0;
"2" = 0;
"3" = 0;
"4" = 0;
"5" = 0;
"6" = 0;
"7" = 0;
"8" = 0;
"9" = 0;
};
};
width = 844;
}
);
metricLeft = G;
metricRight = G;
},
{
glyphname = G.alt3;
lastChange = "2023-02-08 10:50:47 +0000";
layers = (
{
anchors = (
{
name = bottom;
pos = (381,0);
},
{
name = top;
pos = (407,764);
}
);
layerId = m01;
shapes = (
{
closed = 1;
nodes = (
(593,750,o),
(508,780,o),
(428,780,cs),
(227,780,o),
(69,577,o),
(69,369,cs),
(69,180,o),
(187,-15,o),
(382,-15,cs),
(575,-15,o),
(712,178,o),
(714,368,cs),
(714,369,o),
(714,369,o),
(714,370,cs),
(714,373,ls),
(714,395,o),
(699,412,o),
(676,411,cs),
(602,409,o),
(524,406,o),
(450,405,cs),
(424,404,o),
(411,386,o),
(411,366,cs),
(411,346,o),
(424,325,o),
(450,326,cs),
(631,332,l),
(622,195,o),
(506,63,o),
(383,63,cs),
(252,63,o),
(152,204,o),
(152,372,cs),
(152,560,o),
(290,702,o),
(424,702,cs),
(489,702,o),
(566,663,o),
(608,627,cs),
(628,610,o),
(643,603,o),
(653,603,cs),
(676,602,o),
(693,624,o),
(693,645,cs),
(693,656,o),
(688,667,o),
(680,674,cs)
);
}
);
width = 779;
},
{
anchors = (
{
name = bottom;
pos = (391,10);
},
{
name = top;
pos = (411,772);
}
);
layerId = m002;
shapes = (
{
closed = 1;
nodes = (
(593,750,o),
(508,780,o),
(428,780,cs),
(227,780,o),
(69,577,o),
(69,369,cs),
(69,180,o),
(187,-15,o),
(382,-15,cs),
(575,-15,o),
(712,178,o),
(714,368,cs),
(714,369,o),
(714,369,o),
(714,370,cs),
(714,373,ls),
(714,395,o),
(699,412,o),
(676,411,cs),
(602,409,o),
(524,406,o),
(450,405,cs),
(424,404,o),
(411,386,o),
(411,366,cs),
(411,346,o),
(424,325,o),
(450,326,cs),
(631,332,l),
(622,195,o),
(506,63,o),
(383,63,cs),
(252,63,o),
(152,204,o),
(152,372,cs),
(152,560,o),
(290,702,o),
(424,702,cs),
(489,702,o),
(566,663,o),
(608,627,cs),
(628,610,o),
(643,603,o),
(653,603,cs),
(676,602,o),
(693,624,o),
(693,645,cs),
(693,656,o),
(688,667,o),
(680,674,cs)
);
}
);
width = 779;
},
{
anchors = (
{
name = bottom;
pos = (386,0);
},
{
name = top;
pos = (416,766);
}
);
layerId = m003;
shapes = (
{
closed = 1;
nodes = (
(608,750,o),
(523,780,o),
(433,780,cs),
(202,780,o),
(44,577,o),
(44,369,cs),
(44,180,o),
(162,-15,o),
(387,-15,cs),
(590,-15,o),
(727,178,o),
(729,368,cs),
(729,369,o),
(729,369,o),
(729,370,cs),
(729,373,ls),
(729,403,o),
(714,432,o),
(681,431,cs),
(617,429,o),
(519,426,o),
(465,425,cs),
(419,424,o),
(406,388,o),
(406,346,cs),
(406,309,o),
(419,274,o),
(465,277,cs),
(540,282,l),
(510,183,o),
(456,143,o),
(388,143,cs),
(305,143,o),
(227,204,o),
(227,372,cs),
(227,510,o),
(316,622,o),
(429,622,cs),
(494,622,o),
(548,595,o),
(593,563,cs),
(613,549,o),
(625,545,o),
(638,545,cs),
(672,545,o),
(708,604,o),
(708,636,cs),
(708,654,o),
(703,667,o),
(688,680,cs)
);
}
);
userData = {
com.hugojourdan.ColorFlow = {
"0" = 0;
"1" = 0;
"10" = 0;
"11" = 0;
"2" = 0;
"3" = 0;
"4" = 0;
"5" = 0;
"6" = 0;
"7" = 0;
"8" = 0;
"9" = 0;
};
};
width = 781;
}
);
metricLeft = G;
metricRight = G;
},
{
glyphname = G.alt4;
lastChange = "2023-02-08 10:50:54 +0000";
layers = (
{
anchors = (
{
name = bottom;
pos = (394,0);
},
{
name = top;
pos = (420,764);
}
);
layerId = m01;
shapes = (
{
closed = 1;
nodes = (
(610,752,o),
(527,778,o),
(450,778,cs),
(243,778,o),
(69,579,o),
(69,362,cs),
(69,173,o),
(209,-18,o),
(413,-18,cs),
(591,-18,o),
(743,144,o),
(740,325,cs),
(739,359,o),
(740,416,o),
(696,415,cs),
(621,413,o),
(547,410,o),
(472,408,cs),
(451,408,o),
(430,390,o),
(431,368,cs),
(432,346,o),
(449,327,o),
(472,327,cs),
(535,329,o),
(597,330,o),
(659,333,c),
(659,310,ls),
(659,201,o),
(559,60,o),
(411,60,cs),
(264,60,o),
(151,205,o),
(151,363,cs),
(151,559,o),
(302,700,o),
(446,700,cs),
(516,700,o),
(581,669,o),
(633,628,cs),
(641,622,o),
(650,617,o),
(659,617,cs),
(681,617,o),
(701,636,o),
(701,659,cs),
(701,668,o),
(699,678,o),
(689,686,cs)
);
}
);
width = 806;
},
{
anchors = (
{
name = bottom;
pos = (424,0);
},
{
name = top;
pos = (440,761);
}
);
layerId = m002;
shapes = (
{
closed = 1;
nodes = (
(610,752,o),
(527,778,o),
(450,778,cs),
(243,778,o),
(69,579,o),
(69,362,cs),
(69,173,o),
(209,-18,o),
(413,-18,cs),
(591,-18,o),
(743,144,o),
(740,325,cs),
(739,359,o),
(740,416,o),
(696,415,cs),
(621,413,o),
(547,410,o),
(472,408,cs),
(451,408,o),
(430,390,o),
(431,368,cs),
(432,346,o),
(449,327,o),
(472,327,cs),
(535,329,o),
(597,330,o),
(659,333,c),
(659,310,ls),
(659,201,o),
(559,60,o),
(411,60,cs),
(264,60,o),
(151,205,o),
(151,363,cs),
(151,559,o),
(302,700,o),
(446,700,cs),
(516,700,o),
(581,669,o),
(633,628,cs),
(641,622,o),
(650,617,o),
(659,617,cs),
(681,617,o),
(701,636,o),
(701,659,cs),
(701,668,o),
(699,678,o),
(689,686,cs)
);
}
);
width = 806;
},
{
anchors = (
{
name = bottom;
pos = (395,-3);
},
{
name = top;
pos = (415,764);
}
);
layerId = m003;
shapes = (
{
closed = 1;
nodes = (
(615,752,o),
(539,778,o),
(427,778,cs),
(208,778,o),
(44,579,o),
(44,362,cs),
(44,173,o),
(184,-18,o),
(408,-18,cs),
(616,-18,o),
(748,144,o),
(745,325,cs),
(744,359,o),
(741,456,o),
(677,455,cs),
(612,454,o),
(542,448,o),
(467,448,cs),
(426,448,o),
(406,420,o),
(406,368,cs),
(406,306,o),
(434,287,o),
(467,288,cs),
(530,290,o),
(502,290,o),
(564,293,c),
(564,270,ls),
(564,201,o),
(494,150,o),
(406,150,cs),
(326,150,o),
(226,225,o),
(226,363,cs),
(226,549,o),
(350,620,o),
(441,620,cs),
(495,620,o),
(539,611,o),
(586,574,cs),
(599,564,o),
(608,559,o),
(627,559,cs),
(668,559,o),
(706,603,o),
(706,651,cs),
(706,668,o),
(704,678,o),
(688,692,cs)
);
}
);
userData = {
com.hugojourdan.ColorFlow = {
"0" = 0;
"1" = 0;
"10" = 0;
"11" = 0;
"2" = 0;
"3" = 0;
"4" = 0;
"5" = 0;
"6" = 0;
"7" = 0;
"8" = 0;
"9" = 0;
};
};
width = 798;
}
);
metricLeft = G;
metricRight = G;
},
{
glyphname = G.alt5;
lastChange = "2023-02-08 10:51:03 +0000";
layers = (
{
anchors = (
{
name = bottom;
pos = (390,0);
},
{
name = top;
pos = (416,764);
}
);
layerId = m01;
shapes = (
{
closed = 1;
nodes = (
(617,757,o),
(532,788,o),
(450,788,cs),
(250,788,o),
(69,586,o),
(69,363,cs),
(69,198,o),
(176,-10,o),
(385,-10,cs),
(532,-10,o),
(674,116,o),
(721,283,cs),
(726,300,o),
(732,325,o),
(732,339,cs),
(732,358,o),
(725,374,o),
(703,380,cs),
(670,387,o),
(557,412,o),
(473,412,cs),
(417,412,o),
(373,401,o),
(373,367,cs),
(374,346,o),
(391,325,o),
(414,326,cs),
(485,330,o),
(578,324,o),
(644,310,c),
(606,167,o),
(503,68,o),
(379,68,cs),
(242,68,o),
(151,207,o),
(151,373,cs),
(151,558,o),
(303,710,o),
(450,710,cs),
(519,710,o),
(582,678,o),
(636,619,cs),
(645,610,o),
(654,607,o),
(664,607,cs),
(686,607,o),
(706,627,o),
(706,649,cs),
(706,658,o),
(702,668,o),
(694,676,cs)
);
}
);
width = 798;
},
{
anchors = (
{
name = bottom;
pos = (400,10);
},
{
name = top;
pos = (436,764);
}
);
layerId = m002;
shapes = (
{
closed = 1;
nodes = (
(617,757,o),
(532,788,o),
(450,788,cs),
(250,788,o),
(69,586,o),
(69,363,cs),
(69,198,o),
(176,-10,o),
(385,-10,cs),
(532,-10,o),
(674,116,o),
(721,283,cs),
(726,300,o),
(732,325,o),
(732,339,cs),
(732,358,o),
(725,374,o),
(703,380,cs),
(670,387,o),
(557,412,o),
(473,412,cs),
(417,412,o),
(373,401,o),
(373,367,cs),
(374,346,o),
(391,325,o),
(414,326,cs),
(485,330,o),
(578,324,o),
(644,310,c),
(606,167,o),
(503,68,o),
(379,68,cs),
(242,68,o),
(151,207,o),
(151,373,cs),
(151,558,o),
(303,710,o),
(450,710,cs),
(519,710,o),
(582,678,o),
(636,619,cs),
(645,610,o),
(654,607,o),
(664,607,cs),
(686,607,o),
(706,627,o),
(706,649,cs),
(706,658,o),
(702,668,o),
(694,676,cs)
);
}
);
width = 798;
},
{
anchors = (
{
name = bottom;
pos = (392,1);
},
{
name = top;
pos = (432,774);
}
);
layerId = m003;
shapes = (
{
closed = 1;
nodes = (
(632,767,o),
(537,788,o),
(455,788,cs),
(225,788,o),
(44,586,o),
(44,363,cs),
(44,198,o),
(151,-10,o),
(390,-10,cs),
(564,-10,o),
(689,116,o),
(736,283,cs),
(741,300,o),
(747,339,o),
(747,358,cs),
(747,384,o),
(747,412,o),
(704,423,cs),
(685,427,o),
(562,452,o),
(478,452,cs),
(422,452,o),
(378,441,o),
(378,367,cs),
(378,306,o),
(403,292,o),
(427,294,cs),
(464,297,o),
(508,292,o),
(549,283,c),
(511,174,o),
(441,158,o),
(384,158,cs),
(312,158,o),
(231,207,o),
(231,373,cs),
(231,558,o),
(358,630,o),
(455,630,cs),
(505,630,o),
(559,622,o),
(599,580,cs),
(612,565,o),
(621,562,o),
(636,562,cs),
(683,562,o),
(721,598,o),
(721,649,cs),
(721,663,o),
(717,678,o),
(708,687,cs)
);
}
);
userData = {
com.hugojourdan.ColorFlow = {
"0" = 0;
"1" = 0;
"10" = 0;
"11" = 0;
"2" = 0;
"3" = 0;
"4" = 0;
"5" = 0;
"6" = 0;
"7" = 0;
"8" = 0;
"9" = 0;
};
};
width = 799;
}
);
metricLeft = G;
metricRight = G;
},
{
glyphname = G.alt6;
lastChange = "2023-02-08 10:51:12 +0000";
layers = (
{
anchors = (
{
name = bottom;
pos = (404,0);
},
{
name = top;
pos = (430,764);
}
);
layerId = m01;
shapes = (
{
closed = 1;
nodes = (
(637,755,o),
(542,794,o),
(444,794,cs),
(217,794,o),
(69,596,o),
(69,376,cs),
(69,108,o),
(248,-12,o),
(406,-12,cs),
(642,-12,o),
(762,269,o),
(762,382,cs),
(762,395,o),
(750,411,o),
(723,413,cs),
(677,417,o),
(470,418,o),
(386,404,cs),
(363,400,o),
(346,389,o),
(346,368,cs),
(346,348,o),
(364,324,o),
(386,326,cs),
(463,334,o),
(540,338,o),
(672,337,c),
(632,188,o),
(533,66,o),
(402,66,cs),
(289,66,o),
(149,161,o),
(149,378,cs),
(149,559,o),
(274,716,o),
(442,716,cs),
(519,716,o),
(581,682,o),
(610,642,cs),
(627,618,o),
(641,607,o),
(660,607,cs),
(680,607,o),
(697,620,o),
(697,644,cs),
(697,651,o),
(697,660,o),
(692,667,cs)
);
}
);
width = 826;
},
{
anchors = (
{
name = bottom;
pos = (404,10);
},
{
name = top;
pos = (440,784);
}
);
layerId = m002;
shapes = (
{
closed = 1;
nodes = (
(637,755,o),
(542,794,o),
(444,794,cs),
(217,794,o),
(69,596,o),
(69,376,cs),
(69,108,o),
(248,-12,o),
(406,-12,cs),
(642,-12,o),
(762,269,o),
(762,382,cs),
(762,395,o),
(750,411,o),
(723,413,cs),
(677,417,o),
(470,418,o),
(386,404,cs),
(363,400,o),
(346,389,o),
(346,368,cs),
(346,348,o),
(364,324,o),
(386,326,cs),
(463,334,o),
(540,338,o),
(672,337,c),
(632,188,o),
(533,66,o),
(402,66,cs),
(289,66,o),
(149,161,o),
(149,378,cs),
(149,559,o),
(274,716,o),
(442,716,cs),
(519,716,o),
(581,682,o),
(610,642,cs),
(627,618,o),
(641,607,o),
(660,607,cs),
(680,607,o),
(697,620,o),
(697,644,cs),
(697,651,o),
(697,660,o),
(692,667,cs)
);
}
);
width = 826;
},
{
anchors = (
{
name = bottom;
pos = (393,4);
},
{
name = top;
pos = (425,784);
}
);
layerId = m003;
shapes = (
{
closed = 1;
nodes = (
(652,765,o),
(537,794,o),
(439,794,cs),
(192,794,o),
(44,596,o),
(44,376,cs),
(44,108,o),
(223,-12,o),
(401,-12,cs),
(637,-12,o),
(767,269,o),
(767,382,cs),
(767,420,o),
(755,451,o),
(713,454,cs),
(682,457,o),
(465,458,o),
(381,444,cs),
(346,438,o),
(331,412,o),
(331,368,cs),
(331,307,o),
(359,282,o),
(394,284,cs),
(458,287,o),
(506,289,o),
(567,287,c),
(536,179,o),
(471,149,o),
(397,149,cs),
(284,149,o),
(224,252,o),
(224,378,cs),
(224,559,o),
(321,636,o),
(449,636,cs),
(491,636,o),
(540,631,o),
(573,591,cs),
(583,579,o),
(596,567,o),
(615,567,cs),
(664,567,o),
(713,600,o),
(713,650,cs),
(713,658,o),
(712,670,o),
(705,681,cs)
);
}
);
userData = {
com.hugojourdan.ColorFlow = {
"0" = 0;
"1" = 0;
"10" = 0;
"11" = 0;
"2" = 0;
"3" = 0;
"4" = 0;
"5" = 0;
"6" = 0;
"7" = 0;
"8" = 0;
"9" = 0;
};
};
width = 818;
}
);
metricLeft = G;
metricRight = G;
},
{
color = 7;
glyphname = H;
lastChange = "2023-02-06 15:54:51 +0000";
layers = (
{
anchors = (
{
name = bottom;
pos = (369,0);
},
{
name = center;
pos = (382,382);
},
{
name = top;
pos = (395,764);
},
{
name = topleft;
pos = (37,764);
}
);
layerId = m01;
name = Regular;
shapes = (
{
closed = 1;
nodes = (
(91,514,o),
(100,258,o),
(84,11,cs),
(83,-4,o),
(96,-7,o),
(102,-7,cs),
(109,-7,o),
(117,-4,o),
(118,9,cs),
(136,259,o),
(124,514,o),
(152,762,cs),
(154,779,o),
(145,783,o),
(136,782,cs),
(128,781,o),
(118,775,o),
(117,761,cs)
);
},
{
closed = 1;
nodes = (
(354,390,o),
(532,392,o),
(614,390,cs),
(646,389,o),
(641,400,o),
(641,396,cs),
(641,415,o),
(642,424,o),
(629,424,cs),
(410,424,o),
(286,422,o),
(150,416,cs),
(130,415,o),
(108,416,o),
(108,386,cs),
(108,405,o),
(103,379,o),
(126,380,cs)
);
},
{
closed = 1;
nodes = (
(620,504,o),
(609,248,o),
(609,2,cs),
(609,-17,o),
(618,-20,o),
(627,-20,cs),
(633,-20,o),
(644,-17,o),
(644,1,cs),
(644,196,o),
(647,392,o),
(654,578,cs),
(656,630,o),
(659,693,o),
(664,748,cs),
(666,771,o),
(650,774,o),
(644,774,cs),
(636,774,o),
(628,769,o),
(627,748,cs)
);
}
);
width = 756.5;
},
{
anchors = (
{
name = bottom;
pos = (375,0);
},
{
name = center;
pos = (388,605);
},
{
name = top;
pos = (401,764);
},
{
name = topleft;
pos = (37,764);
}
);
layerId = m002;
name = Regular;
shapes = (
{
closed = 1;
nodes = (
(85,505,o),
(94,268,o),
(78,32,cs),
(77,6,o),
(98,-7,o),
(118,-7,cs),
(139,-7,o),
(157,6,o),
(159,32,cs),
(176,269,o),
(164,507,o),
(191,743,cs),
(194,769,o),
(171,782,o),
(151,782,cs),
(131,782,o),
(113,769,o),
(110,743,cs)
);
},
{
closed = 1;
nodes = (
(380,368,o),
(499,369,o),
(581,367,cs),
(613,366,o),
(644,370,o),
(644,406,cs),
(644,428,o),
(626,444,o),
(603,444,cs),
(384,443,o),
(299,442,o),
(153,436,cs),
(133,435,o),
(111,426,o),
(111,396,cs),
(111,375,o),
(129,357,o),
(152,358,cs)
);
},
{
closed = 1;
nodes = (
(589,497,o),
(584,258,o),
(584,19,cs),
(584,-7,o),
(604,-20,o),
(625,-20,cs),
(645,-20,o),
(665,-7,o),
(665,19,cs),
(665,206,o),
(668,392,o),
(675,578,cs),
(677,630,o),
(679,683,o),
(682,735,cs),
(683,761,o),
(662,774,o),
(642,774,cs),
(621,774,o),
(601,761,o),
(601,735,cs)
);
}
);
width = 767;
},
{
anchors = (
{
name = bottom;
pos = (385,0);
},
{
name = center;
pos = (403,607);
},
{
name = top;
pos = (411,764);
},
{
name = topleft;
pos = (37,764);
}
);
layerId = m003;
shapes = (
{
closed = 1;
nodes = (
(61,485,o),
(70,288,o),
(55,60,cs),
(53,26,o),
(80,-7,o),
(151,-7,cs),
(226,-7,o),
(244,26,o),
(246,56,cs),
(263,289,o),
(251,494,o),
(277,718,cs),
(281,749,o),
(258,782,o),
(187,782,cs),
(113,782,o),
(90,749,o),
(87,718,cs)
);
},
{
closed = 1;
nodes = (
(387,308,o),
(491,309,o),
(573,307,cs),
(605,306,o),
(651,310,o),
(651,426,cs),
(651,455,o),
(633,471,o),
(610,471,cs),
(391,470,o),
(326,469,o),
(160,463,cs),
(140,462,o),
(118,446,o),
(118,416,cs),
(118,315,o),
(136,297,o),
(159,298,cs)
);
},
{
closed = 1;
nodes = (
(531,484,o),
(526,278,o),
(526,43,cs),
(526,13,o),
(546,-20,o),
(622,-20,cs),
(692,-20,o),
(717,13,o),
(717,43,cs),
(717,226,o),
(720,392,o),
(727,578,cs),
(729,630,o),
(731,663,o),
(733,709,cs),
(735,741,o),
(709,774,o),
(639,774,cs),
(563,774,o),
(544,741,o),
(542,709,cs)
);
}
);
width = 788;
}
);
unicode = 72;
},
{
glyphname = H.alt1;
lastChange = "2023-02-08 10:51:34 +0000";
layers = (
{
anchors = (
{
name = bottom;
pos = (386,0);
},
{
name = center;
pos = (399,382);
},
{
name = top;
pos = (412,764);
},
{
name = topleft;
pos = (43,764);
}
);
layerId = m01;
shapes = (
{
closed = 1;
nodes = (
(662,-16,o),
(682,-3,o),
(682,23,cs),
(681,198,o),
(687,551,o),
(692,726,cs),
(693,752,o),
(672,765,o),
(652,765,cs),
(632,765,o),
(611,752,o),
(611,726,cs),
(608,636,o),
(606,542,o),
(604,451,c),
(471,448,o),
(205,444,o),
(180,444,c),
(184,538,o),
(187,635,o),
(190,729,cs),
(191,755,o),
(170,768,o),
(150,768,cs),
(129,768,o),
(109,755,o),
(109,729,cs),
(101,496,o),
(93,262,o),
(84,29,cs),
(84,3,o),
(104,-10,o),
(125,-10,cs),
(145,-10,o),
(165,3,o),
(165,29,cs),
(169,141,o),
(175,261,o),
(177,366,c),
(274,368,o),
(481,372,o),
(603,371,c),
(602,284,o),
(601,196,o),
(601,23,cs),
(601,-3,o),
(621,-16,o),
(642,-16,cs)
);
}
);
width = 794;
},
{
anchors = (
{
name = bottom;
pos = (377,5);
},
{
name = center;
pos = (398,605);
},
{
name = top;
pos = (396,754);
},
{
name = topleft;
pos = (37,764);
}
);
layerId = m002;
shapes = (
{
closed = 1;
nodes = (
(656,-16,o),
(676,-3,o),
(676,23,cs),
(675,198,o),
(681,551,o),
(686,726,cs),
(687,752,o),
(666,765,o),
(646,765,cs),
(626,765,o),
(605,752,o),
(605,726,cs),
(602,636,o),
(600,542,o),
(598,451,c),
(465,448,o),
(199,444,o),
(174,444,c),
(178,538,o),
(181,635,o),
(184,729,cs),
(185,755,o),
(164,768,o),
(144,768,cs),
(123,768,o),
(103,755,o),
(103,729,cs),
(95,496,o),
(87,262,o),
(78,29,cs),
(78,3,o),
(98,-10,o),
(119,-10,cs),
(139,-10,o),
(159,3,o),
(159,29,cs),
(163,141,o),
(169,261,o),
(171,366,c),
(268,368,o),
(475,372,o),
(597,371,c),
(596,284,o),
(595,196,o),
(595,23,cs),
(595,-3,o),
(615,-16,o),
(636,-16,cs)
);
}
);
width = 778;
},
{
anchors = (
{
name = bottom;
pos = (386,0);
},
{
name = center;
pos = (403,626);
},
{
name = top;
pos = (402,764);
},
{
name = topleft;
pos = (43,764);
}
);
background = {
shapes = (
{
closed = 1;
nodes = (
(57,485,o),
(66,288,o),
(51,60,cs),
(49,26,o),
(76,-7,o),
(147,-7,cs),
(222,-7,o),
(240,26,o),
(242,56,cs),
(259,289,o),
(247,494,o),
(273,718,cs),
(277,749,o),
(254,782,o),
(183,782,cs),
(109,782,o),
(86,749,o),
(83,718,cs)
);
},
{
closed = 1;
nodes = (
(383,328,o),
(487,329,o),
(569,327,cs),
(601,326,o),
(647,330,o),
(647,446,cs),
(647,475,o),
(629,491,o),
(606,491,cs),
(387,490,o),
(322,489,o),
(156,483,cs),
(136,482,o),
(114,466,o),
(114,436,cs),
(114,335,o),
(132,317,o),
(155,318,cs)
);
},
{
closed = 1;
nodes = (
(527,484,o),
(522,278,o),
(522,43,cs),
(522,13,o),
(542,-20,o),
(618,-20,cs),
(688,-20,o),
(713,13,o),
(713,43,cs),
(713,226,o),
(716,392,o),
(723,578,cs),
(725,630,o),
(727,663,o),
(729,709,cs),
(731,741,o),
(705,774,o),
(635,774,cs),
(559,774,o),
(540,741,o),
(538,709,cs)
);
}
);
};
layerId = m003;
shapes = (
{
closed = 1;
nodes = (
(677,-16,o),
(712,4,o),
(712,45,cs),
(711,198,o),
(717,551,o),
(721,706,cs),
(723,754,o),
(694,775,o),
(622,775,cs),
(562,775,o),
(534,754,o),
(530,706,cs),
(526,647,o),
(524,568,o),
(524,491,c),
(441,488,o),
(276,484,o),
(260,484,c),
(262,564,o),
(265,646,o),
(269,709,cs),
(272,757,o),
(246,778,o),
(180,778,cs),
(110,778,o),
(79,757,o),
(77,709,cs),
(70,496,o),
(62,262,o),
(56,49,cs),
(55,10,o),
(89,-10,o),
(155,-10,cs),
(214,-10,o),
(246,10,o),
(246,49,cs),
(246,129,o),
(252,234,o),
(257,326,c),
(318,328,o),
(447,332,o),
(523,331,c),
(522,255,o),
(521,177,o),
(521,53,cs),
(521,4,o),
(553,-16,o),
(612,-16,cs)
);
}
);
userData = {
com.hugojourdan.ColorFlow = {
"0" = 0;
"1" = 0;
"10" = 0;
"11" = 0;
"2" = 0;
"3" = 0;
"4" = 0;
"5" = 0;
"6" = 0;
"7" = 0;
"8" = 0;
"9" = 0;
};
};
width = 783;
}
);
metricLeft = H;
metricRight = H;
},
{
glyphname = H.alt2;
lastChange = "2023-02-08 10:51:48 +0000";
layers = (
{
anchors = (
{
name = bottom;
pos = (393,0);
},
{
name = center;
pos = (406,382);
},
{
name = top;
pos = (419,764);
},
{
name = topleft;
pos = (43,764);
}
);
layerId = m01;
shapes = (
{
closed = 1;
nodes = (
(112,493,o),
(103,261,o),
(90,29,cs),
(89,3,o),
(110,-10,o),
(130,-10,cs),
(150,-10,o),
(170,3,o),
(171,29,cs),
(184,261,o),
(193,493,o),
(197,725,cs),
(198,751,o),
(177,764,o),
(157,764,cs),
(136,764,o),
(116,751,o),
(116,725,cs)
);
},
{
closed = 1;
nodes = (
(276,368,o),
(491,368,cs),
(550,368,o),
(610,366,o),
(670,362,cs),
(696,362,o),
(709,382,o),
(709,402,cs),
(709,422,o),
(697,438,o),
(670,440,cs),
(610,444,o),
(551,446,o),
(491,446,cs),
(368,446,o),
(246,437,o),
(131,421,cs),
(109,418,o),
(96,402,o),
(96,384,cs),
(96,362,o),
(114,344,o),
(137,344,cs),
(166,344,o)
);
},
{
closed = 1;
nodes = (
(617,516,o),
(613,252,o),
(605,35,cs),
(605,9,o),
(625,-4,o),
(646,-4,cs),
(666,-4,o),
(686,9,o),
(686,35,cs),
(694,252,o),
(698,516,o),
(698,733,cs),
(699,759,o),
(678,772,o),
(658,772,cs),
(637,772,o),
(617,759,o),
(617,733,cs)
);
}
);
width = 807;
},
{
anchors = (
{
name = bottom;
pos = (377,0);
},
{
name = center;
pos = (391,598);
},
{
name = top;
pos = (416,769);
},
{
name = topleft;
pos = (37,764);
}
);
layerId = m002;
shapes = (
{
closed = 1;
nodes = (
(106,493,o),
(97,261,o),
(84,29,cs),
(83,3,o),
(104,-10,o),
(124,-10,cs),
(144,-10,o),
(164,3,o),
(165,29,cs),
(178,261,o),
(187,493,o),
(191,725,cs),
(192,751,o),
(171,764,o),
(151,764,cs),
(130,764,o),
(110,751,o),
(110,725,cs)
);
},
{
closed = 1;
nodes = (
(270,368,o),
(485,368,cs),
(544,368,o),
(604,366,o),
(664,362,cs),
(690,362,o),
(703,382,o),
(703,402,cs),
(703,422,o),
(691,438,o),
(664,440,cs),
(604,444,o),
(545,446,o),
(485,446,cs),
(362,446,o),
(240,437,o),
(125,421,cs),
(103,418,o),
(90,402,o),
(90,384,cs),
(90,362,o),
(108,344,o),
(131,344,cs),
(160,344,o)
);
},
{
closed = 1;
nodes = (
(611,516,o),
(607,252,o),
(599,35,cs),
(599,9,o),
(619,-4,o),
(640,-4,cs),
(660,-4,o),
(680,9,o),
(680,35,cs),
(688,252,o),
(692,516,o),
(692,733,cs),
(693,759,o),
(672,772,o),
(652,772,cs),
(631,772,o),
(611,759,o),
(611,733,cs)
);
}
);
width = 791;
},
{
anchors = (
{
name = bottom;
pos = (418,0);
},
{
name = center;
pos = (433,622);
},
{
name = top;
pos = (434,771);
},
{
name = topleft;
pos = (68,764);
}
);
background = {
shapes = (
{
closed = 1;
nodes = (
(92,485,o),
(101,288,o),
(86,60,cs),
(84,26,o),
(111,-7,o),
(182,-7,cs),
(257,-7,o),
(275,26,o),
(277,56,cs),
(294,289,o),
(282,494,o),
(308,718,cs),
(312,749,o),
(289,782,o),
(218,782,cs),
(144,782,o),
(121,749,o),
(118,718,cs)
);
},
{
closed = 1;
nodes = (
(418,308,o),
(522,309,o),
(604,307,cs),
(636,306,o),
(682,310,o),
(682,426,cs),
(682,455,o),
(664,471,o),
(641,471,cs),
(422,470,o),
(357,469,o),
(191,463,cs),
(171,462,o),
(149,446,o),
(149,416,cs),
(149,315,o),
(167,297,o),
(190,298,cs)
);
},
{
closed = 1;
nodes = (
(562,484,o),
(557,278,o),
(557,43,cs),
(557,13,o),
(577,-20,o),
(653,-20,cs),
(723,-20,o),
(748,13,o),
(748,43,cs),
(748,226,o),
(751,392,o),
(758,578,cs),
(760,630,o),
(762,663,o),
(764,709,cs),
(766,741,o),
(740,774,o),
(670,774,cs),
(594,774,o),
(575,741,o),
(573,709,cs)
);
}
);
};
layerId = m003;
shapes = (
{
closed = 1;
nodes = (
(107,503,o),
(98,261,o),
(86,49,cs),
(84,3,o),
(130,-10,o),
(175,-10,cs),
(224,-10,o),
(275,3,o),
(277,49,cs),
(289,261,o),
(298,503,o),
(302,715,cs),
(303,761,o),
(252,774,o),
(202,774,cs),
(155,774,o),
(111,761,o),
(110,715,cs)
);
},
{
closed = 1;
nodes = (
(281,332,o),
(496,332,cs),
(574,332,o),
(678,327,o),
(731,324,cs),
(777,322,o),
(790,362,o),
(790,402,cs),
(790,443,o),
(778,478,o),
(731,481,cs),
(678,485,o),
(575,490,o),
(496,490,cs),
(373,490,o),
(216,477,o),
(121,464,cs),
(79,458,o),
(66,421,o),
(66,384,cs),
(66,340,o),
(84,304,o),
(127,304,cs),
(156,304,o)
);
},
{
closed = 1;
nodes = (
(562,526,o),
(558,252,o),
(552,55,cs),
(550,9,o),
(599,-4,o),
(651,-4,cs),
(696,-4,o),
(741,9,o),
(743,55,cs),
(749,252,o),
(753,526,o),
(754,723,cs),
(754,769,o),
(708,782,o),
(663,782,cs),
(611,782,o),
(562,769,o),
(562,723,cs)
);
}
);
userData = {
com.hugojourdan.ColorFlow = {
"0" = 0;
"1" = 0;
"10" = 0;
"11" = 0;
"2" = 0;
"3" = 0;
"4" = 0;
"5" = 0;
"6" = 0;
"7" = 0;
"8" = 0;
"9" = 0;
};
};
width = 848;
}
);
metricLeft = H;
metricRight = H;
},
{
glyphname = H.alt3;
lastChange = "2023-02-08 10:52:01 +0000";
layers = (
{
anchors = (
{
name = bottom;
pos = (380,0);
},
{
name = center;
pos = (393,382);
},
{
name = top;
pos = (406,764);
},
{
name = topleft;
pos = (43,764);
}
);
layerId = m01;
shapes = (
{
closed = 1;
nodes = (
(98,485,o),
(91,214,o),
(95,30,cs),
(95,4,o),
(115,-10,o),
(135,-10,cs),
(156,-10,o),
(176,4,o),
(176,30,cs),
(176,314,o),
(176,514,o),
(191,740,cs),
(193,766,o),
(171,779,o),
(150,779,cs),
(130,779,o),
(111,766,o),
(110,740,cs)
);
},
{
closed = 1;
nodes = (
(621,378,ls),
(647,379,o),
(660,400,o),
(660,421,cs),
(660,441,o),
(647,457,o),
(621,456,cs),
(162,444,ls),
(136,443,o),
(122,425,o),
(122,405,cs),
(122,384,o),
(136,365,o),
(162,366,cs)
);
},
{
closed = 1;
nodes = (
(584,490,o),
(575,265,o),
(580,25,cs),
(580,-1,o),
(601,-14,o),
(621,-14,cs),
(642,-14,o),
(662,-1,o),
(661,25,cs),
(656,270,o),
(669,483,o),
(695,736,cs),
(697,754,o),
(693,769,o),
(685,776,cs),
(677,784,o),
(667,787,o),
(657,787,cs),
(636,787,o),
(618,775,o),
(615,747,cs)
);
}
);
width = 782;
},
{
anchors = (
{
name = bottom;
pos = (374,5);
},
{
name = center;
pos = (386,611);
},
{
name = top;
pos = (390,755);
},
{
name = topleft;
pos = (37,764);
}
);
layerId = m002;
shapes = (
{
closed = 1;
nodes = (
(92,485,o),
(85,214,o),
(89,30,cs),
(89,4,o),
(109,-10,o),
(129,-10,cs),
(150,-10,o),
(170,4,o),
(170,30,cs),
(170,314,o),
(170,514,o),
(185,740,cs),
(187,766,o),
(165,779,o),
(144,779,cs),
(124,779,o),
(105,766,o),
(104,740,cs)
);
},
{
closed = 1;
nodes = (
(615,378,ls),
(641,379,o),
(654,400,o),
(654,421,cs),
(654,441,o),
(641,457,o),
(615,456,cs),
(156,444,ls),
(130,443,o),
(116,425,o),
(116,405,cs),
(116,384,o),
(130,365,o),
(156,366,cs)
);
},
{
closed = 1;
nodes = (
(578,490,o),
(569,265,o),
(574,25,cs),
(574,-1,o),
(595,-14,o),
(615,-14,cs),
(636,-14,o),
(656,-1,o),
(655,25,cs),
(650,270,o),
(663,483,o),
(689,736,cs),
(691,754,o),
(687,769,o),
(679,776,cs),
(671,784,o),
(661,787,o),
(651,787,cs),
(630,787,o),
(612,775,o),
(609,747,cs)
);
}
);
width = 766;
},
{
anchors = (
{
name = bottom;
pos = (380,0);
},
{
name = center;
pos = (403,633);
},
{
name = top;
pos = (402,770);
},
{
name = topleft;
pos = (43,764);
}
);
layerId = m003;
shapes = (
{
closed = 1;
nodes = (
(68,485,o),
(61,214,o),
(64,50,cs),
(65,4,o),
(110,-10,o),
(155,-10,cs),
(207,-10,o),
(256,4,o),
(256,50,cs),
(256,314,o),
(256,514,o),
(270,720,cs),
(273,766,o),
(222,779,o),
(170,779,cs),
(125,779,o),
(81,766,o),
(79,720,cs)
);
},
{
closed = 1;
nodes = (
(611,338,ls),
(657,339,o),
(670,380,o),
(670,421,cs),
(670,464,o),
(657,497,o),
(611,496,cs),
(152,484,ls),
(106,483,o),
(92,446,o),
(92,405,cs),
(92,362,o),
(106,325,o),
(152,326,cs)
);
},
{
closed = 1;
nodes = (
(504,490,o),
(495,265,o),
(499,45,cs),
(500,-1,o),
(552,-14,o),
(601,-14,cs),
(648,-14,o),
(692,-1,o),
(691,45,cs),
(686,270,o),
(699,483,o),
(723,716,cs),
(725,738,o),
(714,757,o),
(695,770,cs),
(680,781,o),
(660,787,o),
(637,787,cs),
(586,787,o),
(538,775,o),
(532,727,cs)
);
}
);
userData = {
com.hugojourdan.ColorFlow = {
"0" = 0;
"1" = 0;
"10" = 0;
"11" = 0;
"2" = 0;
"3" = 0;
"4" = 0;
"5" = 0;
"6" = 0;
"7" = 0;
"8" = 0;
"9" = 0;
};
};
width = 770;
}
);
metricLeft = H;
metricRight = H;
},
{
glyphname = H.alt4;
lastChange = "2023-02-08 10:52:14 +0000";
layers = (
{
anchors = (
{
name = bottom;
pos = (387,0);
},
{
name = center;
pos = (400,382);
},
{
name = top;
pos = (413,764);
},
{
name = topleft;
pos = (43,764);
}
);
layerId = m01;
shapes = (
{
closed = 1;
nodes = (
(84,36,ls),
(83,10,o),
(104,-3,o),
(124,-3,cs),
(144,-3,o),
(164,10,o),
(165,36,cs),
(195,742,ls),
(196,769,o),
(175,782,o),
(155,782,cs),
(134,782,o),
(115,769,o),
(114,742,cs)
);
},
{
closed = 1;
nodes = (
(347,376,o),
(444,379,o),
(640,368,cs),
(673,366,o),
(697,374,o),
(697,408,cs),
(697,431,o),
(680,445,o),
(657,447,cs),
(500,457,o),
(313,453,o),
(156,441,cs),
(128,439,o),
(107,427,o),
(107,399,cs),
(107,377,o),
(123,362,o),
(155,364,cs)
);
},
{
closed = 1;
nodes = (
(597,561,o),
(588,376,o),
(588,192,cs),
(588,136,o),
(589,81,o),
(590,25,cs),
(590,-1,o),
(610,-14,o),
(630,-14,cs),
(651,-14,o),
(671,-1,o),
(671,25,cs),
(669,81,o),
(668,138,o),
(668,194,cs),
(668,392,o),
(679,552,o),
(695,734,cs),
(698,762,o),
(682,780,o),
(657,780,cs),
(636,780,o),
(617,769,o),
(614,737,cs)
);
}
);
width = 795;
},
{
anchors = (
{
name = bottom;
pos = (381,0);
},
{
name = center;
pos = (380,610);
},
{
name = top;
pos = (416,774);
},
{
name = topleft;
pos = (37,764);
}
);
layerId = m002;
shapes = (
{
closed = 1;
nodes = (
(78,36,ls),
(77,10,o),
(98,-3,o),
(118,-3,cs),
(138,-3,o),
(158,10,o),
(159,36,cs),
(189,742,ls),
(190,769,o),
(169,782,o),
(149,782,cs),
(128,782,o),
(109,769,o),
(108,742,cs)
);
},
{
closed = 1;
nodes = (
(341,376,o),
(438,379,o),
(634,368,cs),
(667,366,o),
(691,374,o),
(691,408,cs),
(691,431,o),
(674,445,o),
(651,447,cs),
(494,457,o),
(307,453,o),
(150,441,cs),
(122,439,o),
(101,427,o),
(101,399,cs),
(101,377,o),
(117,362,o),
(149,364,cs)
);
},
{
closed = 1;
nodes = (
(591,561,o),
(582,376,o),
(582,192,cs),
(582,136,o),
(583,81,o),
(584,25,cs),
(584,-1,o),
(604,-14,o),
(624,-14,cs),
(645,-14,o),
(665,-1,o),
(665,25,cs),
(663,81,o),
(662,138,o),
(662,194,cs),
(662,392,o),
(673,552,o),
(689,734,cs),
(692,762,o),
(676,780,o),
(651,780,cs),
(630,780,o),
(611,769,o),
(608,737,cs)
);
}
);
width = 779;
},
{
anchors = (
{
name = bottom;
pos = (387,0);
},
{
name = center;
pos = (405,628);
},
{
name = top;
pos = (402,766);
},
{
name = topleft;
pos = (43,764);
}
);
layerId = m003;
shapes = (
{
closed = 1;
nodes = (
(55,56,ls),
(53,10,o),
(99,-3,o),
(144,-3,cs),
(193,-3,o),
(244,10,o),
(246,56,cs),
(274,722,ls),
(276,769,o),
(223,782,o),
(173,782,cs),
(127,782,o),
(85,769,o),
(83,722,cs)
);
},
{
closed = 1;
nodes = (
(361,337,o),
(481,340,o),
(670,330,cs),
(731,326,o),
(757,352,o),
(757,417,cs),
(757,464,o),
(736,485,o),
(687,488,cs),
(543,498,o),
(322,494,o),
(156,482,cs),
(118,479,o),
(97,454,o),
(97,399,cs),
(97,352,o),
(113,322,o),
(155,325,cs)
);
},
{
closed = 1;
nodes = (
(517,561,o),
(508,376,o),
(508,192,cs),
(508,136,o),
(509,81,o),
(509,45,cs),
(510,-1,o),
(560,-14,o),
(610,-14,cs),
(656,-14,o),
(701,-1,o),
(700,45,cs),
(699,81,o),
(698,138,o),
(698,194,cs),
(698,392,o),
(709,552,o),
(724,714,cs),
(728,762,o),
(693,780,o),
(635,780,cs),
(585,780,o),
(537,769,o),
(532,717,cs)
);
}
);
userData = {
com.hugojourdan.ColorFlow = {
"0" = 0;
"1" = 0;
"10" = 0;
"11" = 0;
"2" = 0;
"3" = 0;
"4" = 0;
"5" = 0;
"6" = 0;
"7" = 0;
"8" = 0;
"9" = 0;
};
};
width = 815;
}
);
metricLeft = H;
metricRight = H;
},
{
glyphname = I;
lastChange = "2023-02-07 13:18:29 +0000";
layers = (
{
anchors = (
{
name = bottom;
pos = (142,0);
},
{
name = ogonek;
pos = (262,10);
},
{
name = top;
pos = (168,764);
},
{
name = topleft;
pos = (37,764);
}
);
layerId = m01;
shapes = (
{
closed = 1;
nodes = (
(104,493,o),
(92,258,o),
(87,22,cs),
(87,-4,o),
(107,-17,o),
(128,-17,cs),
(148,-17,o),
(168,-4,o),
(168,22,cs),
(173,258,o),
(185,493,o),
(206,728,cs),
(207,755,o),
(187,768,o),
(166,768,cs),
(146,768,o),
(126,755,o),
(125,728,cs)
);
}
);
width = 301;
},
{
anchors = (
{
name = bottom;
pos = (128,-10);
},
{
name = ogonek;
pos = (139,10);
},
{
name = top;
pos = (168,759);
},
{
name = topleft;
pos = (37,764);
}
);
layerId = m002;
shapes = (
{
closed = 1;
nodes = (
(104,493,o),
(92,258,o),
(87,22,cs),
(87,-4,o),
(107,-17,o),
(128,-17,cs),
(148,-17,o),
(168,-4,o),
(168,22,cs),
(173,258,o),
(185,493,o),
(206,728,cs),
(207,755,o),
(187,768,o),
(166,768,cs),
(146,768,o),
(126,755,o),
(125,728,cs)
);
}
);
width = 301;
},
{
anchors = (
{
name = bottom;
pos = (163,0);
},
{
name = ogonek;
pos = (199,10);
},
{
name = top;
pos = (189,764);
},
{
name = topleft;
pos = (58,764);
}
);
layerId = m003;
shapes = (
{
closed = 1;
nodes = (
(75,493,o),
(63,258,o),
(59,51,cs),
(58,-4,o),
(97,-17,o),
(149,-17,cs),
(205,-17,o),
(249,-4,o),
(250,41,cs),
(254,258,o),
(266,493,o),
(284,708,cs),
(288,755,o),
(249,771,o),
(187,771,cs),
(137,771,o),
(97,755,o),
(94,714,cs)
);
}
);
width = 329;
}
);
unicode = 73;
},
{
glyphname = I.alt1;
lastChange = "2023-02-08 10:52:30 +0000";
layers = (
{
anchors = (
{
name = bottom;
pos = (142,0);
},
{
name = ogonek;
pos = (262,10);
},
{
name = top;
pos = (168,764);
},
{
name = topleft;
pos = (37,764);
}
);
layerId = m01;
shapes = (
{
closed = 1;
nodes = (
(105,496,o),
(92,261,o),
(87,25,cs),
(87,-1,o),
(107,-14,o),
(128,-14,cs),
(148,-14,o),
(168,-1,o),
(168,25,cs),
(173,261,o),
(186,496,o),
(206,731,cs),
(207,758,o),
(187,771,o),
(166,771,cs),
(146,771,o),
(126,758,o),
(125,731,cs)
);
}
);
width = 301;
},
{
anchors = (
{
name = bottom;
pos = (142,0);
},
{
name = ogonek;
pos = (262,10);
},
{
name = top;
pos = (174,764);
},
{
name = topleft;
pos = (37,764);
}
);
layerId = m002;
shapes = (
{
closed = 1;
nodes = (
(105,496,o),
(92,261,o),
(87,25,cs),
(87,-1,o),
(107,-14,o),
(128,-14,cs),
(148,-14,o),
(168,-1,o),
(168,25,cs),
(173,261,o),
(186,496,o),
(206,731,cs),
(207,758,o),
(187,771,o),
(166,771,cs),
(146,771,o),
(126,758,o),
(125,731,cs)
);
}
);
width = 301;
},
{
anchors = (
{
name = bottom;
pos = (154,-4);
},
{
name = ogonek;
pos = (199,10);
},
{
name = top;
pos = (190,764);
},
{
name = topleft;
pos = (59,764);
}
);
background = {
shapes = (
{
closed = 1;
nodes = (
(73,493,o),
(61,258,o),
(57,51,cs),
(56,-4,o),
(95,-17,o),
(147,-17,cs),
(203,-17,o),
(247,-4,o),
(248,41,cs),
(252,258,o),
(264,493,o),
(282,708,cs),
(286,755,o),
(247,771,o),
(185,771,cs),
(135,771,o),
(95,755,o),
(92,714,cs)
);
}
);
};
layerId = m003;
shapes = (
{
closed = 1;
nodes = (
(72,496,o),
(63,261,o),
(59,45,cs),
(58,-1,o),
(91,-14,o),
(140,-14,cs),
(188,-14,o),
(249,-1,o),
(250,45,cs),
(254,261,o),
(263,496,o),
(280,711,cs),
(284,758,o),
(231,771,o),
(181,771,cs),
(134,771,o),
(93,758,o),
(89,711,cs)
);
}
);
userData = {
com.hugojourdan.ColorFlow = {
"0" = 0;
"1" = 0;
"10" = 0;
"11" = 0;
"2" = 0;
"3" = 0;
"4" = 0;
"5" = 0;
"6" = 0;
"7" = 0;
"8" = 0;
"9" = 0;
};
};
width = 325;
}
);
metricLeft = I;
metricRight = I;
},
{
glyphname = I.alt2;
lastChange = "2023-02-08 10:52:37 +0000";
layers = (
{
anchors = (
{
name = bottom;
pos = (142,0);
},
{
name = ogonek;
pos = (263,10);
},
{
name = top;
pos = (168,764);
},
{
name = topleft;
pos = (37,764);
}
);
layerId = m01;
shapes = (
{
closed = 1;
nodes = (
(102,27,ls),
(102,1,o),
(122,-13,o),
(142,-13,cs),
(163,-13,o),
(183,1,o),
(183,27,cs),
(186,246,o),
(188,519,o),
(191,738,cs),
(192,764,o),
(171,777,o),
(151,777,cs),
(131,777,o),
(110,764,o),
(110,738,cs)
);
}
);
width = 302;
},
{
anchors = (
{
name = bottom;
pos = (134,0);
},
{
name = ogonek;
pos = (263,10);
},
{
name = top;
pos = (158,764);
},
{
name = topleft;
pos = (37,764);
}
);
layerId = m002;
shapes = (
{
closed = 1;
nodes = (
(102,27,ls),
(102,1,o),
(122,-13,o),
(142,-13,cs),
(163,-13,o),
(183,1,o),
(183,27,cs),
(186,246,o),
(188,519,o),
(191,738,cs),
(192,764,o),
(171,777,o),
(151,777,cs),
(131,777,o),
(110,764,o),
(110,738,cs)
);
}
);
width = 302;
},
{
anchors = (
{
name = bottom;
pos = (166,0);
},
{
name = ogonek;
pos = (209,10);
},
{
name = top;
pos = (182,761);
},
{
name = topleft;
pos = (61,764);
}
);
background = {
shapes = (
{
closed = 1;
nodes = (
(75,493,o),
(63,258,o),
(59,51,cs),
(58,-4,o),
(97,-17,o),
(149,-17,cs),
(205,-17,o),
(249,-4,o),
(250,41,cs),
(254,258,o),
(266,493,o),
(284,708,cs),
(288,755,o),
(249,771,o),
(187,771,cs),
(137,771,o),
(97,755,o),
(94,714,cs)
);
}
);
};
layerId = m003;
shapes = (
{
closed = 1;
nodes = (
(74,47,ls),
(74,9,o),
(107,-13,o),
(166,-13,cs),
(225,-13,o),
(260,9,o),
(261,47,cs),
(263,246,o),
(265,519,o),
(268,718,cs),
(269,755,o),
(234,777,o),
(175,777,cs),
(116,777,o),
(81,755,o),
(81,718,cs)
);
}
);
userData = {
com.hugojourdan.ColorFlow = {
"0" = 0;
"1" = 0;
"10" = 0;
"11" = 0;
"2" = 0;
"3" = 0;
"4" = 0;
"5" = 0;
"6" = 0;
"7" = 0;
"8" = 0;
"9" = 0;
};
};
width = 329;
}
);
metricLeft = I;
metricRight = I;
},
{
glyphname = I.alt3;
lastChange = "2023-02-08 10:52:48 +0000";
layers = (
{
anchors = (
{
name = bottom;
pos = (141,0);
},
{
name = ogonek;
pos = (260,10);
},
{
name = top;
pos = (167,764);
},
{
name = topleft;
pos = (37,764);
}
);
layerId = m01;
shapes = (
{
closed = 1;
nodes = (
(86,26,ls),
(85,0,o),
(106,-13,o),
(126,-13,cs),
(146,-13,o),
(167,0,o),
(167,26,cs),
(177,239,o),
(193,512,o),
(204,725,cs),
(205,751,o),
(184,764,o),
(164,764,cs),
(143,764,o),
(124,751,o),
(123,725,cs)
);
}
);
width = 299;
},
{
anchors = (
{
name = bottom;
pos = (131,-10);
},
{
name = ogonek;
pos = (260,10);
},
{
name = top;
pos = (167,744);
},
{
name = topleft;
pos = (37,764);
}
);
layerId = m002;
shapes = (
{
closed = 1;
nodes = (
(86,26,ls),
(85,0,o),
(106,-13,o),
(126,-13,cs),
(146,-13,o),
(167,0,o),
(167,26,cs),
(177,239,o),
(193,512,o),
(204,725,cs),
(205,751,o),
(184,764,o),
(164,764,cs),
(143,764,o),
(124,751,o),
(123,725,cs)
);
}
);
width = 299;
},
{
anchors = (
{
name = bottom;
pos = (164,0);
},
{
name = ogonek;
pos = (189,6);
},
{
name = top;
pos = (190,764);
},
{
name = topleft;
pos = (60,764);
}
);
background = {
shapes = (
{
closed = 1;
nodes = (
(77,493,o),
(65,258,o),
(61,51,cs),
(60,-4,o),
(99,-17,o),
(151,-17,cs),
(207,-17,o),
(251,-4,o),
(252,41,cs),
(256,258,o),
(268,493,o),
(286,708,cs),
(290,755,o),
(251,771,o),
(189,771,cs),
(139,771,o),
(99,755,o),
(96,714,cs)
);
}
);
};
layerId = m003;
shapes = (
{
closed = 1;
nodes = (
(57,46,ls),
(55,0,o),
(113,-13,o),
(159,-13,cs),
(205,-13,o),
(243,0,o),
(245,46,cs),
(253,239,o),
(269,512,o),
(279,705,cs),
(281,751,o),
(241,764,o),
(195,764,cs),
(147,764,o),
(94,751,o),
(92,705,cs)
);
}
);
userData = {
com.hugojourdan.ColorFlow = {
"0" = 0;
"1" = 0;
"10" = 0;
"11" = 0;
"2" = 0;
"3" = 0;
"4" = 0;
"5" = 0;
"6" = 0;
"7" = 0;
"8" = 0;
"9" = 0;
};
};
width = 324;
}
);
metricLeft = I;
metricRight = I;
},
{
glyphname = I.alt4;
lastChange = "2023-02-08 10:53:17 +0000";
layers = (
{
anchors = (
{
name = bottom;
pos = (139,0);
},
{
name = ogonek;
pos = (257,10);
},
{
name = top;
pos = (165,764);
},
{
name = topleft;
pos = (37,764);
}
);
layerId = m01;
shapes = (
{
closed = 1;
nodes = (
(109,505,o),
(97,269,o),
(86,29,cs),
(85,3,o),
(106,-10,o),
(126,-10,cs),
(147,-10,o),
(167,3,o),
(168,29,cs),
(178,269,o),
(190,505,o),
(201,735,cs),
(202,761,o),
(181,774,o),
(161,774,cs),
(140,774,o),
(120,761,o),
(120,735,cs)
);
}
);
width = 296;
},
{
anchors = (
{
name = bottom;
pos = (142,-6);
},
{
name = ogonek;
pos = (257,10);
},
{
name = top;
pos = (152,764);
},
{
name = topleft;
pos = (37,764);
}
);
layerId = m002;
shapes = (
{
closed = 1;
nodes = (
(109,505,o),
(97,269,o),
(86,29,cs),
(85,3,o),
(106,-10,o),
(126,-10,cs),
(147,-10,o),
(167,3,o),
(168,29,cs),
(178,269,o),
(190,505,o),
(201,735,cs),
(202,761,o),
(181,774,o),
(161,774,cs),
(140,774,o),
(120,761,o),
(120,735,cs)
);
}
);
width = 296;
},
{
anchors = (
{
name = bottom;
pos = (139,-8);
},
{
name = ogonek;
pos = (185,10);
},
{
name = top;
pos = (185,764);
},
{
name = topleft;
pos = (57,764);
}
);
background = {
shapes = (
{
closed = 1;
nodes = (
(53,46,ls),
(51,0,o),
(99,-13,o),
(145,-13,cs),
(191,-13,o),
(239,0,o),
(241,46,cs),
(249,239,o),
(265,512,o),
(275,705,cs),
(277,751,o),
(229,764,o),
(183,764,cs),
(135,764,o),
(90,751,o),
(88,705,cs)
);
}
);
};
layerId = m003;
shapes = (
{
closed = 1;
nodes = (
(79,505,o),
(67,269,o),
(57,49,cs),
(55,3,o),
(101,-10,o),
(146,-10,cs),
(192,-10,o),
(237,3,o),
(239,49,cs),
(248,269,o),
(260,505,o),
(270,715,cs),
(272,761,o),
(226,774,o),
(181,774,cs),
(134,774,o),
(90,761,o),
(88,715,cs)
);
}
);
userData = {
com.hugojourdan.ColorFlow = {
"0" = 0;
"1" = 0;
"10" = 0;
"11" = 0;
"2" = 0;
"3" = 0;
"4" = 0;
"5" = 0;
"6" = 0;
"7" = 0;
"8" = 0;
"9" = 0;
};
};
width = 314;
}
);
metricLeft = I;
metricRight = I;
},
{
glyphname = I.alt5;
lastChange = "2023-02-08 10:53:28 +0000";
layers = (
{
anchors = (
{
name = bottom;
pos = (143,0);
},
{
name = ogonek;
pos = (264,10);
},
{
name = top;
pos = (169,764);
},
{
name = topleft;
pos = (37,764);
}
);
layerId = m01;
shapes = (
{
closed = 1;
nodes = (
(106,623,o),
(97,394,o),
(97,268,cs),
(97,189,o),
(99,109,o),
(103,29,cs),
(103,3,o),
(124,-10,o),
(144,-10,cs),
(164,-10,o),
(185,3,o),
(184,29,cs),
(180,109,o),
(177,189,o),
(177,269,cs),
(177,394,o),
(187,617,o),
(196,732,cs),
(198,769,o),
(184,789,o),
(158,789,cs),
(137,789,o),
(119,773,o),
(117,749,cs)
);
}
);
width = 303;
},
{
anchors = (
{
name = bottom;
pos = (143,14);
},
{
name = ogonek;
pos = (264,10);
},
{
name = top;
pos = (169,764);
},
{
name = topleft;
pos = (37,764);
}
);
layerId = m002;
shapes = (
{
closed = 1;
nodes = (
(106,623,o),
(97,394,o),
(97,268,cs),
(97,189,o),
(99,109,o),
(103,29,cs),
(103,3,o),
(124,-10,o),
(144,-10,cs),
(164,-10,o),
(185,3,o),
(184,29,cs),
(180,109,o),
(177,189,o),
(177,269,cs),
(177,394,o),
(187,617,o),
(196,732,cs),
(198,769,o),
(184,789,o),
(158,789,cs),
(137,789,o),
(119,773,o),
(117,749,cs)
);
}
);
width = 303;
},
{
anchors = (
{
name = bottom;
pos = (164,-10);
},
{
name = ogonek;
pos = (199,10);
},
{
name = top;
pos = (187,774);
},
{
name = topleft;
pos = (58,764);
}
);
layerId = m003;
shapes = (
{
closed = 1;
nodes = (
(77,623,o),
(68,394,o),
(68,268,cs),
(68,189,o),
(70,109,o),
(72,49,cs),
(74,3,o),
(121,-10,o),
(165,-10,cs),
(210,-10,o),
(256,3,o),
(254,49,cs),
(251,109,o),
(248,189,o),
(248,269,cs),
(248,394,o),
(258,617,o),
(265,712,cs),
(269,769,o),
(239,789,o),
(179,789,cs),
(132,789,o),
(90,773,o),
(86,729,cs)
);
}
);
userData = {
com.hugojourdan.ColorFlow = {
"0" = 0;
"1" = 0;
"10" = 0;
"11" = 0;
"2" = 0;
"3" = 0;
"4" = 0;
"5" = 0;
"6" = 0;
"7" = 0;
"8" = 0;
"9" = 0;
};
};
width = 322;
}
);
metricLeft = I;
metricRight = I;
},
{
glyphname = I.alt6;
lastChange = "2023-02-08 10:53:47 +0000";
layers = (
{
anchors = (
{
name = bottom;
pos = (139,0);
},
{
name = ogonek;
pos = (257,10);
},
{
name = top;
pos = (165,764);
},
{
name = topleft;
pos = (37,764);
}
);
layerId = m01;
shapes = (
{
closed = 1;
nodes = (
(109,489,o),
(97,259,o),
(86,29,cs),
(85,3,o),
(106,-10,o),
(126,-10,cs),
(147,-10,o),
(167,3,o),
(167,29,cs),
(178,259,o),
(190,489,o),
(201,719,cs),
(202,745,o),
(181,758,o),
(161,758,cs),
(140,758,o),
(120,745,o),
(120,719,cs)
);
}
);
width = 296;
},
{
anchors = (
{
name = bottom;
pos = (120,-28);
},
{
name = ogonek;
pos = (257,10);
},
{
name = top;
pos = (161,748);
},
{
name = topleft;
pos = (37,764);
}
);
layerId = m002;
shapes = (
{
closed = 1;
nodes = (
(109,489,o),
(97,259,o),
(86,29,cs),
(85,3,o),
(106,-10,o),
(126,-10,cs),
(147,-10,o),
(167,3,o),
(167,29,cs),
(178,259,o),
(190,489,o),
(201,719,cs),
(202,745,o),
(181,758,o),
(161,758,cs),
(140,758,o),
(120,745,o),
(120,719,cs)
);
}
);
width = 296;
},
{
anchors = (
{
name = bottom;
pos = (149,-4);
},
{
name = ogonek;
pos = (188,13);
},
{
name = top;
pos = (182,754);
},
{
name = topleft;
pos = (57,764);
}
);
layerId = m003;
shapes = (
{
closed = 1;
nodes = (
(85,489,o),
(69,259,o),
(57,49,cs),
(54,3,o),
(101,-10,o),
(146,-10,cs),
(193,-10,o),
(237,3,o),
(239,49,cs),
(250,259,o),
(266,489,o),
(270,699,cs),
(271,745,o),
(226,758,o),
(181,758,cs),
(134,758,o),
(89,745,o),
(88,699,cs)
);
}
);
userData = {
com.hugojourdan.ColorFlow = {
"0" = 0;
"1" = 0;
"10" = 0;
"11" = 0;
"2" = 0;
"3" = 0;
"4" = 0;
"5" = 0;
"6" = 0;
"7" = 0;
"8" = 0;
"9" = 0;
};
};
width = 316;
}
);
metricLeft = I;
metricRight = I;
},
{
glyphname = J;
lastChange = "2023-02-08 10:54:33 +0000";
layers = (
{
anchors = (
{
name = bottom;
pos = (289,0);
},
{
name = top;
pos = (315,764);
}
);
layerId = m01;
name = Regular;
shapes = (
{
closed = 1;
nodes = (
(409,693,o),
(406,622,o),
(406,551,cs),
(406,499,o),
(408,448,o),
(408,397,cs),
(408,202,o),
(387,62,o),
(259,62,cs),
(173,62,o),
(120,123,o),
(109,155,cs),
(102,176,o),
(97,197,o),
(65,197,cs),
(44,197,o),
(20,181,o),
(29,141,cs),
(55,33,o),
(165,-16,o),
(264,-16,cs),
(470,-16,o),
(489,206,o),
(489,420,cs),
(489,469,o),
(488,518,o),
(488,563,cs),
(488,640,o),
(496,708,o),
(503,751,cs),
(507,776,o),
(487,792,o),
(464,792,cs),
(447,792,o),
(429,781,o),
(424,763,cs)
);
}
);
width = 595;
},
{
anchors = (
{
name = bottom;
pos = (271,0);
},
{
name = top;
pos = (464,781);
}
);
layerId = m002;
name = Regular;
shapes = (
{
closed = 1;
nodes = (
(409,693,o),
(406,622,o),
(406,551,cs),
(406,499,o),
(408,448,o),
(408,397,cs),
(408,202,o),
(387,62,o),
(259,62,cs),
(173,62,o),
(120,123,o),
(109,155,cs),
(102,176,o),
(97,197,o),
(65,197,cs),
(44,197,o),
(20,181,o),
(29,141,cs),
(55,33,o),
(165,-16,o),
(264,-16,cs),
(470,-16,o),
(489,206,o),
(489,420,cs),
(489,469,o),
(488,518,o),
(488,563,cs),
(488,640,o),
(496,708,o),
(503,751,cs),
(507,776,o),
(487,792,o),
(464,792,cs),
(447,792,o),
(429,781,o),
(424,763,cs)
);
}
);
width = 595;
},
{
anchors = (
{
name = bottom;
pos = (255,4);
},
{
name = top;
pos = (479,764);
}
);
layerId = m003;
name = Regular;
shapes = (
{
closed = 1;
nodes = (
(374,683,o),
(371,612,o),
(371,551,cs),
(371,499,o),
(373,448,o),
(373,338,cs),
(373,206,o),
(333,139,o),
(264,139,cs),
(207,139,o),
(184,176,o),
(164,208,cs),
(152,227,o),
(136,238,o),
(113,238,cs),
(73,238,o),
(-4,188,o),
(13,135,cs),
(43,41,o),
(136,-16,o),
(262,-16,cs),
(529,-16,o),
(554,206,o),
(554,388,cs),
(554,469,o),
(552,505,o),
(552,550,cs),
(552,617,o),
(562,676,o),
(568,719,cs),
(572,749,o),
(552,782,o),
(482,782,cs),
(422,782,o),
(394,771,o),
(385,730,cs)
);
}
);
userData = {
com.hugojourdan.ColorFlow = {
"0" = 0;
"1" = 0;
"10" = 0;
"11" = 0;
"2" = 0;
"3" = 0;
"4" = 0;
"5" = 0;
"6" = 0;
"7" = 0;
"8" = 0;
"9" = 0;
};
};
width = 613;
}
);
unicode = 74;
},
{
glyphname = J.alt1;
lastChange = "2023-02-08 10:54:28 +0000";
layers = (
{
anchors = (
{
name = bottom;
pos = (260,0);
},
{
name = top;
pos = (286,764);
}
);
layerId = m01;
shapes = (
{
closed = 1;
nodes = (
(277,-7,o),
(338,25,o),
(381,95,cs),
(442,200,o),
(426,328,o),
(433,444,cs),
(436,538,o),
(438,632,o),
(441,726,cs),
(442,752,o),
(421,765,o),
(401,765,cs),
(381,765,o),
(359,751,o),
(359,724,cs),
(359,680,o),
(352,322,o),
(338,209,cs),
(328,132,o),
(269,71,o),
(217,71,cs),
(174,71,o),
(131,107,o),
(108,174,cs),
(101,193,o),
(85,206,o),
(65,206,cs),
(43,206,o),
(21,184,o),
(30,151,cs),
(55,59,o),
(137,-7,o),
(218,-7,cs)
);
}
);
width = 537;
},
{
anchors = (
{
name = bottom;
pos = (260,0);
},
{
name = top;
pos = (393,741);
}
);
layerId = m002;
shapes = (
{
closed = 1;
nodes = (
(277,-7,o),
(338,25,o),
(381,95,cs),
(442,200,o),
(426,328,o),
(433,444,cs),
(436,538,o),
(438,632,o),
(441,726,cs),
(442,752,o),
(421,765,o),
(401,765,cs),
(381,765,o),
(359,751,o),
(359,724,cs),
(359,680,o),
(352,322,o),
(338,209,cs),
(328,132,o),
(269,71,o),
(217,71,cs),
(174,71,o),
(131,107,o),
(108,174,cs),
(101,193,o),
(85,206,o),
(65,206,cs),
(43,206,o),
(21,184,o),
(30,151,cs),
(55,59,o),
(137,-7,o),
(218,-7,cs)
);
}
);
width = 537;
},
{
anchors = (
{
name = bottom;
pos = (240,-7);
},
{
name = top;
pos = (415,754);
}
);
layerId = m003;
shapes = (
{
closed = 1;
nodes = (
(338,-7,o),
(420,25,o),
(463,95,cs),
(524,200,o),
(508,328,o),
(515,444,cs),
(518,538,o),
(520,632,o),
(523,708,cs),
(524,752,o),
(473,765,o),
(423,765,cs),
(376,765,o),
(341,751,o),
(341,706,cs),
(341,680,o),
(334,371,o),
(323,287,cs),
(310,181,o),
(287,148,o),
(239,148,cs),
(200,148,o),
(185,174,o),
(170,214,cs),
(163,233,o),
(147,246,o),
(127,246,cs),
(44,246,o),
(3,184,o),
(12,151,cs),
(37,59,o),
(119,-7,o),
(240,-7,cs)
);
}
);
userData = {
com.hugojourdan.ColorFlow = {
"0" = 0;
"1" = 0;
"10" = 0;
"11" = 0;
"2" = 0;
"3" = 0;
"4" = 0;
"5" = 0;
"6" = 0;
"7" = 0;
"8" = 0;
"9" = 0;
};
};
width = 570;
}
);
metricLeft = J;
metricRight = J;
},
{
glyphname = J.alt2;
lastChange = "2023-02-08 10:54:26 +0000";
layers = (
{
anchors = (
{
name = bottom;
pos = (276,0);
},
{
name = top;
pos = (302,764);
}
);
layerId = m01;
shapes = (
{
closed = 1;
nodes = (
(388,680,o),
(385,611,o),
(383,544,cs),
(380,446,o),
(378,351,o),
(366,241,cs),
(351,112,o),
(322,59,o),
(247,59,cs),
(187,59,o),
(132,104,o),
(108,168,cs),
(96,201,o),
(86,207,o),
(65,207,cs),
(44,207,o),
(22,186,o),
(29,153,cs),
(48,60,o),
(150,-19,o),
(249,-19,cs),
(385,-19,o),
(428,94,o),
(449,238,cs),
(464,341,o),
(465,454,o),
(464,533,cs),
(463,616,o),
(468,699,o),
(476,749,cs),
(481,778,o),
(453,792,o),
(435,792,cs),
(420,792,o),
(400,781,o),
(397,755,cs)
);
}
);
width = 569;
},
{
anchors = (
{
name = bottom;
pos = (276,0);
},
{
name = top;
pos = (428,752);
}
);
layerId = m002;
shapes = (
{
closed = 1;
nodes = (
(388,680,o),
(385,611,o),
(383,544,cs),
(380,446,o),
(378,351,o),
(366,241,cs),
(351,112,o),
(322,59,o),
(247,59,cs),
(187,59,o),
(132,104,o),
(108,168,cs),
(96,201,o),
(86,207,o),
(65,207,cs),
(44,207,o),
(22,186,o),
(29,153,cs),
(48,60,o),
(150,-19,o),
(249,-19,cs),
(385,-19,o),
(428,94,o),
(449,238,cs),
(464,341,o),
(465,454,o),
(464,533,cs),
(463,616,o),
(468,699,o),
(476,749,cs),
(481,778,o),
(453,792,o),
(435,792,cs),
(420,792,o),
(400,781,o),
(397,755,cs)
);
}
);
width = 569;
},
{
anchors = (
{
name = bottom;
pos = (274,0);
},
{
name = top;
pos = (456,777);
}
);
layerId = m003;
shapes = (
{
closed = 1;
nodes = (
(370,680,o),
(367,611,o),
(365,544,cs),
(362,446,o),
(365,351,o),
(348,241,cs),
(339,182,o),
(308,136,o),
(261,136,cs),
(231,136,o),
(200,152,o),
(182,201,cs),
(168,241,o),
(148,247,o),
(100,247,cs),
(47,247,o),
(-3,212,o),
(15,148,cs),
(40,60,o),
(125,-19,o),
(271,-19,cs),
(457,-19,o),
(510,94,o),
(531,238,cs),
(546,341,o),
(547,454,o),
(546,533,cs),
(545,616,o),
(550,699,o),
(555,728,cs),
(563,778,o),
(505,792,o),
(457,792,cs),
(416,792,o),
(382,781,o),
(376,734,cs)
);
}
);
userData = {
com.hugojourdan.ColorFlow = {
"0" = 0;
"1" = 0;
"10" = 0;
"11" = 0;
"2" = 0;
"3" = 0;
"4" = 0;
"5" = 0;
"6" = 0;
"7" = 0;
"8" = 0;
"9" = 0;
};
};
width = 600;
}
);
metricLeft = J;
metricRight = J;
},
{
glyphname = J.alt3;
lastChange = "2023-02-08 10:54:23 +0000";
layers = (
{
anchors = (
{
name = bottom;
pos = (271,0);
},
{
name = top;
pos = (297,764);
}
);
layerId = m01;
shapes = (
{
closed = 1;
nodes = (
(383,591,o),
(375,431,o),
(361,272,cs),
(348,124,o),
(311,66,o),
(230,66,cs),
(155,66,o),
(113,117,o),
(107,170,cs),
(104,194,o),
(86,207,o),
(67,207,cs),
(47,207,o),
(27,193,o),
(27,160,cs),
(27,97,o),
(94,-12,o),
(229,-12,cs),
(387,-12,o),
(426,108,o),
(442,265,cs),
(458,425,o),
(459,590,o),
(467,750,cs),
(468,776,o),
(447,789,o),
(426,789,cs),
(406,789,o),
(383,776,o),
(383,750,cs)
);
}
);
width = 559;
},
{
anchors = (
{
name = bottom;
pos = (271,0);
},
{
name = top;
pos = (417,781);
}
);
layerId = m002;
shapes = (
{
closed = 1;
nodes = (
(383,591,o),
(375,431,o),
(361,272,cs),
(348,124,o),
(311,66,o),
(230,66,cs),
(155,66,o),
(113,117,o),
(107,170,cs),
(104,194,o),
(86,207,o),
(67,207,cs),
(47,207,o),
(27,193,o),
(27,160,cs),
(27,97,o),
(94,-12,o),
(229,-12,cs),
(387,-12,o),
(426,108,o),
(442,265,cs),
(458,425,o),
(459,590,o),
(467,750,cs),
(468,776,o),
(447,789,o),
(426,789,cs),
(406,789,o),
(383,776,o),
(383,750,cs)
);
}
);
width = 559;
},
{
anchors = (
{
name = bottom;
pos = (259,0);
},
{
name = top;
pos = (439,776);
}
);
layerId = m003;
shapes = (
{
closed = 1;
nodes = (
(358,591,o),
(350,431,o),
(336,272,cs),
(329,188,o),
(286,143,o),
(242,143,cs),
(213,143,o),
(188,157,o),
(184,188,cs),
(179,234,o),
(131,247,o),
(96,247,cs),
(30,247,o),
(12,218,o),
(12,168,cs),
(12,97,o),
(74,-12,o),
(249,-12,cs),
(462,-12,o),
(504,140,o),
(517,265,cs),
(533,425,o),
(534,590,o),
(540,720,cs),
(543,776,o),
(501,789,o),
(451,789,cs),
(404,789,o),
(358,776,o),
(358,720,cs)
);
}
);
userData = {
com.hugojourdan.ColorFlow = {
"0" = 0;
"1" = 0;
"10" = 0;
"11" = 0;
"2" = 0;
"3" = 0;
"4" = 0;
"5" = 0;
"6" = 0;
"7" = 0;
"8" = 0;
"9" = 0;
};
};
width = 584;
}
);
metricLeft = J;
metricRight = J;
},
{
glyphname = J.alt4;
lastChange = "2023-02-08 10:54:42 +0000";
layers = (
{
anchors = (
{
name = bottom;
pos = (265,0);
},
{
name = top;
pos = (291,764);
}
);
layerId = m01;
shapes = (
{
closed = 1;
nodes = (
(300,-10,o),
(364,24,o),
(390,103,cs),
(427,217,o),
(434,337,o),
(438,457,cs),
(441,543,o),
(446,648,o),
(455,725,cs),
(458,753,o),
(437,771,o),
(416,771,cs),
(401,771,o),
(380,764,o),
(377,741,cs),
(363,648,o),
(357,553,o),
(357,459,cs),
(357,342,o),
(340,188,o),
(316,130,cs),
(298,87,o),
(267,68,o),
(230,68,cs),
(183,68,o),
(132,100,o),
(110,152,cs),
(99,178,o),
(89,190,o),
(66,190,cs),
(46,190,o),
(27,176,o),
(27,150,cs),
(27,146,o),
(27,143,o),
(28,139,cs),
(54,47,o),
(147,-10,o),
(233,-10,cs)
);
}
);
width = 548;
},
{
anchors = (
{
name = bottom;
pos = (265,0);
},
{
name = top;
pos = (420,747);
}
);
layerId = m002;
shapes = (
{
closed = 1;
nodes = (
(300,-10,o),
(364,24,o),
(390,103,cs),
(427,217,o),
(434,337,o),
(438,457,cs),
(441,543,o),
(446,648,o),
(455,725,cs),
(458,753,o),
(437,771,o),
(416,771,cs),
(401,771,o),
(380,764,o),
(377,741,cs),
(363,648,o),
(357,553,o),
(357,459,cs),
(357,342,o),
(340,188,o),
(316,130,cs),
(298,87,o),
(267,68,o),
(230,68,cs),
(183,68,o),
(132,100,o),
(110,152,cs),
(99,178,o),
(89,190,o),
(66,190,cs),
(46,190,o),
(27,176,o),
(27,150,cs),
(27,146,o),
(27,143,o),
(28,139,cs),
(54,47,o),
(147,-10,o),
(233,-10,cs)
);
}
);
width = 548;
},
{
anchors = (
{
name = bottom;
pos = (262,3);
},
{
name = top;
pos = (446,754);
}
);
layerId = m003;
shapes = (
{
closed = 1;
nodes = (
(372,-10,o),
(449,52,o),
(474,122,cs),
(508,217,o),
(518,337,o),
(522,457,cs),
(525,543,o),
(530,648,o),
(536,700,cs),
(542,753,o),
(487,771,o),
(440,771,cs),
(397,771,o),
(363,764,o),
(356,717,cs),
(346,648,o),
(340,553,o),
(340,459,cs),
(340,342,o),
(337,265,o),
(313,207,cs),
(295,164,o),
(274,145,o),
(238,145,cs),
(207,145,o),
(186,163,o),
(174,192,cs),
(163,218,o),
(153,230,o),
(130,230,cs),
(59,230,o),
(11,191,o),
(11,150,cs),
(11,146,o),
(11,143,o),
(15,130,cs),
(38,47,o),
(130,-10,o),
(247,-10,cs)
);
}
);
userData = {
com.hugojourdan.ColorFlow = {
"0" = 0;
"1" = 0;
"10" = 0;
"11" = 0;
"2" = 0;
"3" = 0;
"4" = 0;
"5" = 0;
"6" = 0;
"7" = 0;
"8" = 0;
"9" = 0;
};
};
width = 581;
}
);
metricLeft = J;
metricRight = J;
},
{
glyphname = J.alt5;
lastChange = "2023-02-08 10:54:48 +0000";
layers = (
{
anchors = (
{
name = bottom;
pos = (282,0);
},
{
name = top;
pos = (308,764);
}
);
layerId = m01;
shapes = (
{
closed = 1;
nodes = (
(399,671,o),
(401,608,o),
(401,545,cs),
(401,413,o),
(396,297,o),
(378,215,cs),
(357,121,o),
(326,67,o),
(279,67,cs),
(199,67,o),
(133,132,o),
(106,198,cs),
(100,213,o),
(87,222,o),
(69,222,cs),
(49,222,o),
(28,208,o),
(28,183,cs),
(28,180,o),
(28,176,o),
(34,158,cs),
(63,79,o),
(171,-11,o),
(273,-11,cs),
(384,-11,o),
(438,97,o),
(457,205,cs),
(476,314,o),
(480,433,o),
(482,541,cs),
(483,605,o),
(480,669,o),
(480,733,cs),
(481,759,o),
(460,772,o),
(440,772,cs),
(420,772,o),
(399,759,o),
(399,733,cs)
);
}
);
width = 582;
},
{
anchors = (
{
name = bottom;
pos = (282,0);
},
{
name = top;
pos = (421,747);
}
);
layerId = m002;
shapes = (
{
closed = 1;
nodes = (
(399,671,o),
(401,608,o),
(401,545,cs),
(401,413,o),
(396,297,o),
(378,215,cs),
(357,121,o),
(326,67,o),
(279,67,cs),
(199,67,o),
(133,132,o),
(106,198,cs),
(100,213,o),
(87,222,o),
(69,222,cs),
(49,222,o),
(28,208,o),
(28,183,cs),
(28,180,o),
(28,176,o),
(34,158,cs),
(63,79,o),
(171,-11,o),
(273,-11,cs),
(384,-11,o),
(438,97,o),
(457,205,cs),
(476,314,o),
(480,433,o),
(482,541,cs),
(483,605,o),
(480,669,o),
(480,733,cs),
(481,759,o),
(460,772,o),
(440,772,cs),
(420,772,o),
(399,759,o),
(399,733,cs)
);
}
);
width = 582;
},
{
anchors = (
{
name = bottom;
pos = (296,0);
},
{
name = top;
pos = (453,756);
}
);
layerId = m003;
shapes = (
{
closed = 1;
nodes = (
(371,671,o),
(373,608,o),
(373,545,cs),
(373,413,o),
(376,354,o),
(358,272,cs),
(337,178,o),
(310,144,o),
(271,144,cs),
(233,144,o),
(197,172,o),
(174,229,cs),
(164,253,o),
(151,262,o),
(121,262,cs),
(49,262,o),
(12,220,o),
(12,183,cs),
(12,180,o),
(10,174,o),
(21,148,cs),
(69,38,o),
(178,-11,o),
(279,-11,cs),
(420,-11,o),
(512,97,o),
(531,205,cs),
(550,314,o),
(554,433,o),
(556,541,cs),
(557,605,o),
(554,669,o),
(554,713,cs),
(555,759,o),
(506,772,o),
(454,772,cs),
(411,772,o),
(371,759,o),
(371,713,cs)
);
}
);
userData = {
com.hugojourdan.ColorFlow = {
"0" = 0;
"1" = 0;
"10" = 0;
"11" = 0;
"2" = 0;
"3" = 0;
"4" = 0;
"5" = 0;
"6" = 0;
"7" = 0;
"8" = 0;
"9" = 0;
};
};
width = 607;
}
);
metricLeft = J;
metricRight = J;
},
{
glyphname = J.alt6;
lastChange = "2023-02-08 10:55:04 +0000";
layers = (
{
anchors = (
{
name = bottom;
pos = (266,0);
},
{
name = top;
pos = (292,764);
}
);
layerId = m01;
shapes = (
{
closed = 1;
nodes = (
(359,617,o),
(361,494,o),
(353,373,cs),
(338,129,o),
(300,68,o),
(230,68,cs),
(170,68,o),
(123,112,o),
(108,157,cs),
(101,177,o),
(86,190,o),
(66,190,cs),
(46,190,o),
(27,176,o),
(27,150,cs),
(27,141,o),
(28,132,o),
(33,121,cs),
(69,41,o),
(147,-10,o),
(233,-10,cs),
(401,-10,o),
(424,179,o),
(436,371,cs),
(440,439,o),
(441,570,o),
(456,730,cs),
(459,758,o),
(437,776,o),
(416,776,cs),
(401,776,o),
(381,768,o),
(377,742,cs)
);
}
);
width = 549;
},
{
anchors = (
{
name = bottom;
pos = (238,0);
},
{
name = top;
pos = (399,750);
}
);
layerId = m002;
shapes = (
{
closed = 1;
nodes = (
(359,617,o),
(361,494,o),
(353,373,cs),
(338,129,o),
(300,68,o),
(230,68,cs),
(170,68,o),
(123,112,o),
(108,157,cs),
(101,177,o),
(86,190,o),
(66,190,cs),
(46,190,o),
(27,176,o),
(27,150,cs),
(27,141,o),
(28,132,o),
(33,121,cs),
(69,41,o),
(147,-10,o),
(233,-10,cs),
(401,-10,o),
(424,179,o),
(436,371,cs),
(440,439,o),
(441,570,o),
(456,730,cs),
(459,758,o),
(437,776,o),
(416,776,cs),
(401,776,o),
(381,768,o),
(377,742,cs)
);
}
);
width = 549;
},
{
anchors = (
{
name = bottom;
pos = (273,-8);
},
{
name = top;
pos = (432,771);
}
);
background = {
shapes = (
{
closed = 1;
nodes = (
(343,617,o),
(348,494,o),
(337,373,cs),
(324,234,o),
(302,145,o),
(243,145,cs),
(210,145,o),
(184,163,o),
(172,197,cs),
(165,217,o),
(150,230,o),
(125,230,cs),
(60,230,o),
(11,194,o),
(11,150,cs),
(11,141,o),
(18,120,o),
(23,109,cs),
(55,38,o),
(138,-10,o),
(257,-10,cs),
(473,-10,o),
(508,179,o),
(520,371,cs),
(524,439,o),
(525,570,o),
(540,730,cs),
(543,758,o),
(461,776,o),
(440,776,cs),
(425,776,o),
(365,768,o),
(361,742,cs)
);
}
);
};
layerId = m003;
shapes = (
{
closed = 1;
nodes = (
(343,617,o),
(348,494,o),
(337,373,cs),
(324,234,o),
(302,145,o),
(243,145,cs),
(210,145,o),
(184,163,o),
(172,197,cs),
(165,217,o),
(150,230,o),
(125,230,cs),
(60,230,o),
(11,194,o),
(11,150,cs),
(11,141,o),
(18,120,o),
(23,109,cs),
(55,38,o),
(138,-10,o),
(257,-10,cs),
(473,-10,o),
(508,179,o),
(520,371,cs),
(524,439,o),
(525,570,o),
(538,710,cs),
(542,756,o),
(513,776,o),
(440,776,cs),
(388,776,o),
(363,760,o),
(358,722,cs)
);
}
);
userData = {
com.hugojourdan.ColorFlow = {
"0" = 0;
"1" = 0;
"10" = 0;
"11" = 0;
"2" = 0;
"3" = 0;
"4" = 0;
"5" = 0;
"6" = 0;
"7" = 0;
"8" = 0;
"9" = 0;
};
};
width = 583;
}
);
metricLeft = J;
metricRight = J;
},
{
glyphname = K;
lastChange = "2023-02-08 10:55:25 +0000";
layers = (
{
anchors = (
{
name = bottom;
pos = (327,0);
},
{
name = top;
pos = (353,764);
}
);
layerId = m01;
name = Regular;
shapes = (
{
closed = 1;
nodes = (
(180,262,o),
(186,501,o),
(188,741,cs),
(189,767,o),
(168,780,o),
(148,780,cs),
(128,780,o),
(107,767,o),
(107,741,cs),
(105,501,o),
(99,262,o),
(90,22,cs),
(90,-4,o),
(110,-17,o),
(130,-17,cs),
(150,-17,o),
(171,-4,o),
(171,22,cs)
);
},
{
closed = 1;
nodes = (
(408,658,o),
(288,555,o),
(164,459,c),
(148,398,l),
(206,342,o),
(254,282,o),
(303,222,cs),
(379,127,o),
(462,36,o),
(572,-20,cs),
(579,-24,o),
(586,-26,o),
(592,-26,cs),
(615,-26,o),
(633,-4,o),
(633,17,cs),
(633,30,o),
(627,42,o),
(613,50,cs),
(460,126,o),
(368,291,o),
(238,418,c),
(356,509,o),
(471,606,o),
(582,705,cs),
(591,714,o),
(594,723,o),
(594,733,cs),
(594,755,o),
(574,775,o),
(552,775,cs),
(543,775,o),
(533,771,o),
(525,763,cs)
);
}
);
width = 672;
},
{
anchors = (
{
name = bottom;
pos = (327,10);
},
{
name = top;
pos = (363,754);
}
);
layerId = m002;
name = Regular;
shapes = (
{
closed = 1;
nodes = (
(180,262,o),
(186,501,o),
(188,741,cs),
(189,767,o),
(168,780,o),
(148,780,cs),
(128,780,o),
(107,767,o),
(107,741,cs),
(105,501,o),
(99,262,o),
(90,22,cs),
(90,-4,o),
(110,-17,o),
(130,-17,cs),
(150,-17,o),
(171,-4,o),
(171,22,cs)
);
},
{
closed = 1;
nodes = (
(408,658,o),
(288,555,o),
(164,459,c),
(148,398,l),
(206,342,o),
(254,282,o),
(303,222,cs),
(379,127,o),
(462,36,o),
(572,-20,cs),
(579,-24,o),
(586,-26,o),
(592,-26,cs),
(615,-26,o),
(633,-4,o),
(633,17,cs),
(633,30,o),
(627,42,o),
(613,50,cs),
(460,126,o),
(368,291,o),
(238,418,c),
(356,509,o),
(471,606,o),
(582,705,cs),
(591,714,o),
(594,723,o),
(594,733,cs),
(594,755,o),
(574,775,o),
(552,775,cs),
(543,775,o),
(533,771,o),
(525,763,cs)
);
}
);
width = 672;
},
{
anchors = (
{
name = bottom;
pos = (376,8);
},
{
name = top;
pos = (384,768);
}
);
layerId = m003;
name = Regular;
shapes = (
{
closed = 1;
nodes = (
(259,270,o),
(265,501,o),
(268,723,cs),
(268,767,o),
(239,780,o),
(177,780,cs),
(106,780,o),
(76,767,o),
(76,714,cs),
(74,501,o),
(68,270,o),
(61,59,cs),
(59,4,o),
(79,-17,o),
(159,-17,cs),
(229,-17,o),
(250,4,o),
(251,44,cs)
);
},
{
closed = 1;
nodes = (
(441,656,o),
(337,552,o),
(213,456,c),
(193,411,l),
(251,355,o),
(298,288,o),
(344,222,cs),
(413,123,o),
(499,36,o),
(609,-20,cs),
(616,-24,o),
(625,-26,o),
(636,-26,cs),
(668,-26,o),
(729,31,o),
(729,93,cs),
(729,115,o),
(723,134,o),
(688,154,cs),
(562,227,o),
(524,322,o),
(418,426,c),
(536,517,o),
(578,545,o),
(666,624,cs),
(686,642,o),
(689,655,o),
(689,673,cs),
(689,715,o),
(636,775,o),
(597,775,cs),
(582,775,o),
(566,769,o),
(541,746,cs)
);
}
);
width = 745;
}
);
unicode = 75;
},
{
glyphname = K.alt1;
lastChange = "2023-02-08 10:55:37 +0000";
layers = (
{
anchors = (
{
name = bottom;
pos = (338,0);
},
{
name = top;
pos = (364,764);
}
);
layerId = m01;
shapes = (
{
closed = 1;
nodes = (
(640,-16,o),
(654,4,o),
(654,24,cs),
(654,43,o),
(646,56,o),
(621,66,cs),
(514,107,o),
(403,216,o),
(331,314,cs),
(311,340,o),
(277,391,o),
(234,424,c),
(346,515,o),
(457,608,o),
(567,704,cs),
(576,712,o),
(579,722,o),
(579,731,cs),
(579,753,o),
(559,773,o),
(537,773,cs),
(528,773,o),
(518,769,o),
(510,761,cs),
(412,677,o),
(197,490,o),
(188,483,c),
(200,751,ls),
(201,777,o),
(180,790,o),
(159,790,cs),
(139,790,o),
(120,777,o),
(119,751,cs),
(82,32,ls),
(81,6,o),
(102,-7,o),
(123,-7,cs),
(143,-7,o),
(162,6,o),
(163,32,cs),
(179,371,l),
(229,339,o),
(255,272,o),
(307,215,cs),
(388,118,o),
(485,33,o),
(594,-11,cs),
(605,-15,o),
(612,-16,o),
(615,-16,cs)
);
}
);
width = 693;
},
{
anchors = (
{
name = bottom;
pos = (327,0);
},
{
name = top;
pos = (346,764);
}
);
layerId = m002;
shapes = (
{
closed = 1;
nodes = (
(640,-16,o),
(654,4,o),
(654,24,cs),
(654,43,o),
(646,56,o),
(621,66,cs),
(514,107,o),
(403,216,o),
(331,314,cs),
(311,340,o),
(277,391,o),
(234,424,c),
(346,515,o),
(457,608,o),
(567,704,cs),
(576,712,o),
(579,722,o),
(579,731,cs),
(579,753,o),
(559,773,o),
(537,773,cs),
(528,773,o),
(518,769,o),
(510,761,cs),
(412,677,o),
(197,490,o),
(188,483,c),
(200,751,ls),
(201,777,o),
(180,790,o),
(159,790,cs),
(139,790,o),
(120,777,o),
(119,751,cs),
(82,32,ls),
(81,6,o),
(102,-7,o),
(123,-7,cs),
(143,-7,o),
(162,6,o),
(163,32,cs),
(179,371,l),
(229,339,o),
(255,272,o),
(307,215,cs),
(388,118,o),
(485,33,o),
(594,-11,cs),
(605,-15,o),
(612,-16,o),
(615,-16,cs)
);
}
);
width = 693;
},
{
anchors = (
{
name = bottom;
pos = (382,10);
},
{
name = top;
pos = (395,774);
}
);
layerId = m003;
shapes = (
{
closed = 1;
nodes = (
(703,-16,o),
(743,54,o),
(743,117,cs),
(743,136,o),
(735,149,o),
(710,159,cs),
(629,192,o),
(567,242,o),
(512,314,cs),
(491,341,o),
(455,395,o),
(410,428,c),
(511,509,o),
(558,548,o),
(666,642,cs),
(675,650,o),
(678,660,o),
(678,669,cs),
(678,716,o),
(624,773,o),
(578,773,cs),
(569,773,o),
(559,769,o),
(551,761,cs),
(477,698,o),
(339,572,o),
(270,510,c),
(280,731,ls),
(282,777,o),
(241,790,o),
(190,790,cs),
(140,790,o),
(91,777,o),
(89,731,cs),
(53,62,ls),
(51,16,o),
(83,-7,o),
(154,-7,cs),
(214,-7,o),
(242,16,o),
(244,52,cs),
(259,342,l),
(287,305,o),
(311,256,o),
(348,215,cs),
(429,118,o),
(526,33,o),
(635,-11,cs),
(646,-15,o),
(653,-16,o),
(656,-16,cs)
);
}
);
userData = {
com.hugojourdan.ColorFlow = {
"0" = 0;
"1" = 0;
"10" = 0;
"11" = 0;
"2" = 0;
"3" = 0;
"4" = 0;
"5" = 0;
"6" = 0;
"7" = 0;
"8" = 0;
"9" = 0;
};
};
width = 758;
}
);
metricLeft = K;
metricRight = K;
},
{
glyphname = K.alt2;
lastChange = "2023-02-08 10:55:48 +0000";
layers = (
{
anchors = (
{
name = bottom;
pos = (332,0);
},
{
name = top;
pos = (358,764);
}
);
layerId = m01;
shapes = (
{
closed = 1;
nodes = (
(169,280,o),
(180,521,o),
(197,738,cs),
(198,764,o),
(177,777,o),
(157,777,cs),
(137,777,o),
(118,764,o),
(116,738,cs),
(97,505,o),
(87,260,o),
(86,26,cs),
(86,0,o),
(107,-13,o),
(127,-13,cs),
(147,-13,o),
(167,0,o),
(167,26,cs)
);
},
{
closed = 1;
nodes = (
(627,-21,o),
(642,4,o),
(642,20,cs),
(642,34,o),
(633,48,o),
(618,58,cs),
(507,133,o),
(304,356,o),
(210,430,c),
(202,370,l),
(334,477,o),
(458,590,o),
(576,712,cs),
(584,720,o),
(588,730,o),
(588,739,cs),
(588,761,o),
(569,779,o),
(547,779,cs),
(538,779,o),
(528,776,o),
(520,767,cs),
(402,645,o),
(276,531,o),
(167,437,c),
(167,368,l),
(282,266,o),
(467,61,o),
(552,1,cs),
(572,-13,o),
(586,-21,o),
(604,-21,cs)
);
}
);
width = 681;
},
{
anchors = (
{
name = bottom;
pos = (348,8);
},
{
name = top;
pos = (358,764);
}
);
layerId = m002;
shapes = (
{
closed = 1;
nodes = (
(169,280,o),
(180,521,o),
(197,738,cs),
(198,764,o),
(177,777,o),
(157,777,cs),
(137,777,o),
(118,764,o),
(116,738,cs),
(97,505,o),
(87,260,o),
(86,26,cs),
(86,0,o),
(107,-13,o),
(127,-13,cs),
(147,-13,o),
(167,0,o),
(167,26,cs)
);
},
{
closed = 1;
nodes = (
(627,-21,o),
(642,4,o),
(642,20,cs),
(642,34,o),
(633,48,o),
(618,58,cs),
(507,133,o),
(304,356,o),
(210,430,c),
(202,370,l),
(334,477,o),
(458,590,o),
(576,712,cs),
(584,720,o),
(588,730,o),
(588,739,cs),
(588,761,o),
(569,779,o),
(547,779,cs),
(538,779,o),
(528,776,o),
(520,767,cs),
(402,645,o),
(276,531,o),
(167,437,c),
(167,368,l),
(282,266,o),
(467,61,o),
(552,1,cs),
(572,-13,o),
(586,-21,o),
(604,-21,cs)
);
}
);
width = 681;
},
{
anchors = (
{
name = bottom;
pos = (372,10);
},
{
name = top;
pos = (398,759);
}
);
layerId = m003;
shapes = (
{
closed = 1;
nodes = (
(249,280,o),
(260,521,o),
(275,718,cs),
(278,764,o),
(237,777,o),
(187,777,cs),
(127,777,o),
(88,764,o),
(84,718,cs),
(67,505,o),
(57,260,o),
(56,46,cs),
(56,0,o),
(97,-13,o),
(157,-13,cs),
(217,-13,o),
(247,0,o),
(247,46,cs)
);
},
{
closed = 1;
nodes = (
(694,-21,o),
(738,46,o),
(738,103,cs),
(738,117,o),
(729,131,o),
(714,141,cs),
(603,216,o),
(494,356,o),
(400,430,c),
(372,370,l),
(504,477,o),
(563,527,o),
(681,649,cs),
(689,657,o),
(693,667,o),
(693,676,cs),
(693,722,o),
(634,779,o),
(587,779,cs),
(578,779,o),
(568,776,o),
(560,767,cs),
(442,645,o),
(316,531,o),
(207,437,c),
(207,368,l),
(322,266,o),
(507,61,o),
(592,1,cs),
(612,-13,o),
(626,-21,o),
(644,-21,cs)
);
}
);
userData = {
com.hugojourdan.ColorFlow = {
"0" = 0;
"1" = 0;
"10" = 0;
"11" = 0;
"2" = 0;
"3" = 0;
"4" = 0;
"5" = 0;
"6" = 0;
"7" = 0;
"8" = 0;
"9" = 0;
};
};
width = 754;
}
);
metricLeft = K;
metricRight = K;
},
{
glyphname = K.alt3;
lastChange = "2023-02-08 10:55:58 +0000";
layers = (
{
anchors = (
{
name = bottom;
pos = (295,0);
},
{
name = top;
pos = (321,764);
}
);
layerId = m01;
shapes = (
{
closed = 1;
nodes = (
(125,500,o),
(109,260,o),
(82,22,cs),
(79,-4,o),
(102,-17,o),
(122,-17,cs),
(143,-17,o),
(160,-4,o),
(163,22,cs),
(190,260,o),
(207,500,o),
(212,739,cs),
(213,765,o),
(192,778,o),
(172,778,cs),
(151,778,o),
(131,765,o),
(131,739,cs)
);
},
{
closed = 1;
nodes = (
(423,670,o),
(265,531,o),
(170,446,c),
(170,379,l),
(279,279,o),
(432,99,o),
(478,28,cs),
(492,6,o),
(509,-15,o),
(532,-15,cs),
(553,-15,o),
(569,-7,o),
(569,15,cs),
(569,26,o),
(565,40,o),
(557,56,cs),
(507,156,o),
(327,338,o),
(246,415,c),
(350,501,o),
(472,605,o),
(573,700,cs),
(582,708,o),
(585,718,o),
(585,727,cs),
(585,749,o),
(565,769,o),
(543,769,cs),
(534,769,o),
(524,765,o),
(516,757,cs)
);
}
);
width = 608;
},
{
anchors = (
{
name = bottom;
pos = (312,10);
},
{
name = top;
pos = (341,754);
}
);
layerId = m002;
shapes = (
{
closed = 1;
nodes = (
(125,500,o),
(109,260,o),
(82,22,cs),
(79,-4,o),
(102,-17,o),
(122,-17,cs),
(143,-17,o),
(160,-4,o),
(163,22,cs),
(190,260,o),
(207,500,o),
(212,739,cs),
(213,765,o),
(192,778,o),
(172,778,cs),
(151,778,o),
(131,765,o),
(131,739,cs)
);
},
{
closed = 1;
nodes = (
(423,670,o),
(265,531,o),
(170,446,c),
(170,379,l),
(279,279,o),
(432,99,o),
(478,28,cs),
(492,6,o),
(509,-15,o),
(532,-15,cs),
(553,-15,o),
(569,-7,o),
(569,15,cs),
(569,26,o),
(565,40,o),
(557,56,cs),
(507,156,o),
(327,338,o),
(246,415,c),
(350,501,o),
(472,605,o),
(573,700,cs),
(582,708,o),
(585,718,o),
(585,727,cs),
(585,749,o),
(565,769,o),
(543,769,cs),
(534,769,o),
(524,765,o),
(516,757,cs)
);
}
);
width = 608;
},
{
anchors = (
{
name = bottom;
pos = (343,6);
},
{
name = top;
pos = (397,768);
}
);
layerId = m003;
shapes = (
{
closed = 1;
nodes = (
(93,500,o),
(77,260,o),
(53,52,cs),
(47,-4,o),
(90,-17,o),
(150,-17,cs),
(211,-17,o),
(238,-4,o),
(244,52,cs),
(268,260,o),
(285,500,o),
(290,719,cs),
(291,765,o),
(250,778,o),
(200,778,cs),
(139,778,o),
(99,765,o),
(98,719,cs)
);
},
{
closed = 1;
nodes = (
(461,670,o),
(303,531,o),
(208,446,c),
(208,379,l),
(317,279,o),
(470,99,o),
(516,28,cs),
(530,6,o),
(547,-15,o),
(581,-15,cs),
(630,-15,o),
(703,23,o),
(703,65,cs),
(703,76,o),
(699,90,o),
(691,106,cs),
(638,210,o),
(490,353,o),
(414,424,c),
(516,508,o),
(567,550,o),
(665,641,cs),
(674,649,o),
(677,659,o),
(677,668,cs),
(677,719,o),
(630,769,o),
(581,769,cs),
(572,769,o),
(562,765,o),
(554,757,cs)
);
}
);
userData = {
com.hugojourdan.ColorFlow = {
"0" = 0;
"1" = 0;
"10" = 0;
"11" = 0;
"2" = 0;
"3" = 0;
"4" = 0;
"5" = 0;
"6" = 0;
"7" = 0;
"8" = 0;
"9" = 0;
};
};
width = 720;
}
);
metricLeft = K;
metricRight = K;
},
